<svg width="28" height="28" viewBox="0 0 28 28" fill="none" xmlns="http://www.w3.org/2000/svg">
<g id="icons">
<path id="Vector" d="M23.3333 4.66667V23.3333H4.66667V4.66667H23.3333ZM24.8 2H3.2C2.53333 2 2 2.53333 2 3.2V24.8C2 25.3333 2.53333 26 3.2 26H24.8C25.3333 26 26 25.3333 26 24.8V3.2C26 2.53333 25.3333 2 24.8 2ZM12.6667 7.33333H20.6667V10H12.6667V7.33333ZM12.6667 12.6667H20.6667V15.3333H12.6667V12.6667ZM12.6667 18H20.6667V20.6667H12.6667V18ZM7.33333 7.33333H10V10H7.33333V7.33333ZM7.33333 12.6667H10V15.3333H7.33333V12.6667ZM7.33333 18H10V20.6667H7.33333V18Z" fill="white"/>
</g>
</svg>
