<svg width="28" height="28" viewBox="0 0 28 28" fill="none" xmlns="http://www.w3.org/2000/svg">
<g id="icons">
<g id="Group">
<g id="Vector">
<path fill-rule="evenodd" clip-rule="evenodd" d="M14.0003 1.1665C6.91283 1.1665 1.16699 6.91234 1.16699 13.9998C1.16699 21.0873 6.91283 26.8332 14.0003 26.8332C21.0878 26.8332 26.8337 21.0873 26.8337 13.9998C26.8337 6.91234 21.0878 1.1665 14.0003 1.1665ZM3.50033 13.9998C3.50033 16.4382 4.33216 18.6828 5.72633 20.4655C6.70543 19.1797 7.96854 18.1377 9.417 17.4209C10.8655 16.704 12.46 16.3318 14.0762 16.3332C15.6714 16.3317 17.2459 16.6943 18.6797 17.3934C20.1136 18.0926 21.3689 19.1097 22.3502 20.3675C23.361 19.0417 24.0416 17.4943 24.3357 15.8532C24.6298 14.2121 24.5288 12.5246 24.0412 10.9303C23.5536 9.33601 22.6934 7.88073 21.5317 6.68488C20.37 5.48904 18.9403 4.58701 17.3608 4.05343C15.7813 3.51985 14.0974 3.37007 12.4485 3.61647C10.7996 3.86287 9.23308 4.49838 7.87856 5.4704C6.52403 6.44242 5.42044 7.72302 4.65909 9.20623C3.89775 10.6894 3.50054 12.3326 3.50033 13.9998ZM14.0003 24.4998C11.5899 24.5035 9.2523 23.6742 7.38299 22.1525C8.13541 21.0754 9.13689 20.1959 10.3022 19.589C11.4675 18.982 12.7622 18.6656 14.0762 18.6665C15.3737 18.6655 16.6527 18.974 17.8071 19.5665C18.9614 20.159 19.9578 21.0183 20.7133 22.0732C18.8295 23.6443 16.4533 24.5033 14.0003 24.4998Z" fill="white"/>
<path fill-rule="evenodd" clip-rule="evenodd" d="M18.667 10.4998C18.667 11.7375 18.1753 12.9245 17.3002 13.7997C16.425 14.6748 15.238 15.1665 14.0003 15.1665C12.7626 15.1665 11.5757 14.6748 10.7005 13.7997C9.82532 12.9245 9.33366 11.7375 9.33366 10.4998C9.33366 9.26216 9.82532 8.07517 10.7005 7.20001C11.5757 6.32484 12.7626 5.83317 14.0003 5.83317C15.238 5.83317 16.425 6.32484 17.3002 7.20001C18.1753 8.07517 18.667 9.26216 18.667 10.4998ZM16.3337 10.4998C16.3337 11.1187 16.0878 11.7122 15.6502 12.1498C15.2127 12.5873 14.6192 12.8332 14.0003 12.8332C13.3815 12.8332 12.788 12.5873 12.3504 12.1498C11.9128 11.7122 11.667 11.1187 11.667 10.4998C11.667 9.881 11.9128 9.28751 12.3504 8.84992C12.788 8.41234 13.3815 8.1665 14.0003 8.1665C14.6192 8.1665 15.2127 8.41234 15.6502 8.84992C16.0878 9.28751 16.3337 9.881 16.3337 10.4998Z" fill="white"/>
</g>
</g>
</g>
</svg>
