<svg width="28" height="28" viewBox="0 0 28 28" fill="none" xmlns="http://www.w3.org/2000/svg">
<g id="icons">
<path id="Vector" fill-rule="evenodd" clip-rule="evenodd" d="M14 22.9375C14.3162 22.9375 15.1591 22.6268 16.0446 20.8558C16.4654 20.0142 16.8188 18.972 17.0649 17.7812H10.9351C11.1812 18.972 11.5346 20.0142 11.9554 20.8558C12.8409 22.6268 13.6838 22.9375 14 22.9375ZM10.6367 15.7188C10.5374 14.5751 10.5374 13.4249 10.6367 12.2812H17.3632C17.4625 13.4249 17.4625 14.5751 17.3632 15.7188H10.6367ZM19.1659 17.7812C18.8579 19.4643 18.3505 20.9548 17.7001 22.1373C19.6372 21.2534 21.1968 19.7094 22.1001 17.7812H19.1659ZM22.7725 15.7188H19.4312C19.5208 14.5747 19.5208 13.4253 19.4312 12.2812H22.7711C22.9924 13.4164 22.9924 14.5836 22.7711 15.7188H22.7725ZM8.56737 15.7188H5.2275C5.00622 14.5836 5.00622 13.4164 5.2275 12.2812H8.56875C8.47906 13.4253 8.47906 14.5747 8.56875 15.7188H8.56737ZM5.89987 17.7812H8.83413C9.14213 19.4643 9.6495 20.9548 10.2999 22.1373C8.36279 21.2534 6.80319 19.7094 5.89987 17.7812ZM10.9351 10.2188H17.0649C16.8188 9.028 16.4654 7.98575 16.0446 7.14425C15.1591 5.37325 14.3162 5.0625 14 5.0625C13.6838 5.0625 12.8409 5.37325 11.9554 7.14425C11.5346 7.98575 11.1812 9.028 10.9351 10.2188ZM19.1659 10.2188H22.1001C21.1967 8.29071 19.6371 6.74674 17.7001 5.86275C18.3505 7.04525 18.8579 8.53575 19.1659 10.2188ZM10.3012 5.86275C9.65088 7.04525 9.1435 8.53575 8.8355 10.2188H5.89987C6.80319 8.29064 8.36416 6.74664 10.3012 5.86275ZM14 3C16.9174 3 19.7153 4.15893 21.7782 6.22183C23.8411 8.28473 25 11.0826 25 14C25 16.9174 23.8411 19.7153 21.7782 21.7782C19.7153 23.8411 16.9174 25 14 25C11.0826 25 8.28473 23.8411 6.22183 21.7782C4.15893 19.7153 3 16.9174 3 14C3 11.0826 4.15893 8.28473 6.22183 6.22183C8.28473 4.15893 11.0826 3 14 3Z" fill="white"/>
</g>
</svg>
