<svg width="28" height="29" viewBox="0 0 28 29" fill="none" xmlns="http://www.w3.org/2000/svg">
<g id="icons">
<path id="Vector" d="M2 1.17145V25.3143H16.8571V23.4572H3.85714V3.02859H13.1429V8.60002H18.7143V10.4572H20.5714V7.30002L20.2929 7.02145L14.7214 1.45002L14.4429 1.17145H2ZM15 4.32859L17.4143 6.74288H15V4.32859ZM5.71429 10.4572V12.3143H16.8571V10.4572H5.71429ZM21.5 12.3143V14.1714C19.9214 14.45 18.7143 15.75 18.7143 17.4214C18.7143 19.2786 20.1071 20.6714 21.9643 20.6714H22.8929C23.6357 20.6714 24.2857 21.3214 24.2857 22.0643C24.2857 22.8072 23.6357 23.4572 22.8929 23.4572H19.6429V25.3143H21.5V27.1714H23.3571V25.3143C24.9357 25.0357 26.1429 23.7357 26.1429 22.0643C26.1429 20.2072 24.75 18.8143 22.8929 18.8143H21.9643C21.2214 18.8143 20.5714 18.1643 20.5714 17.4214C20.5714 16.6786 21.2214 16.0286 21.9643 16.0286H25.2143V14.1714H23.3571V12.3143H21.5ZM5.71429 15.1V16.9572H12.2143V15.1H5.71429ZM14.0714 15.1V16.9572H16.8571V15.1H14.0714ZM5.71429 18.8143V20.6714H12.2143V18.8143H5.71429ZM14.0714 18.8143V20.6714H16.8571V18.8143H14.0714Z" fill="white"/>
</g>
</svg>
