<svg width="28" height="28" viewBox="0 0 28 28" fill="none" xmlns="http://www.w3.org/2000/svg">
<g id="icons">
<path id="Vector" d="M8.16699 20.9998C9.45033 20.9998 10.5003 22.0498 10.5003 23.3332C10.5003 24.6165 9.45033 25.6665 8.16699 25.6665C6.88366 25.6665 5.83366 24.6165 5.83366 23.3332C5.83366 22.0498 6.88366 20.9998 8.16699 20.9998ZM19.8337 20.9998C21.117 20.9998 22.167 22.0498 22.167 23.3332C22.167 24.6165 21.117 25.6665 19.8337 25.6665C18.5503 25.6665 17.5003 24.6165 17.5003 23.3332C17.5003 22.0498 18.5503 20.9998 19.8337 20.9998ZM8.40032 17.2665C8.40032 17.3832 8.51699 17.4998 8.63366 17.4998H22.167V19.8332H8.16699C6.88366 19.8332 5.83366 18.7832 5.83366 17.4998C5.83366 17.0332 5.95033 16.6832 6.06699 16.3332L7.58366 13.5332L3.50033 4.6665H1.16699V2.33317H5.01699L10.0337 12.8332H18.2003L22.7503 4.6665L24.7337 5.83317L20.1837 13.9998C19.8337 14.6998 19.017 15.1665 18.2003 15.1665H9.45033L8.40032 17.0332V17.2665ZM10.967 1.1665C11.9003 1.1665 12.6003 1.8665 12.6003 2.79984C12.6003 3.73317 11.9003 4.43317 10.967 4.43317C10.0337 4.43317 9.33366 3.73317 9.33366 2.79984C9.33366 1.8665 10.1503 1.1665 10.967 1.1665ZM17.0337 10.4998C16.1003 10.4998 15.4003 9.79984 15.4003 8.8665C15.4003 7.93317 16.1003 7.23317 17.0337 7.23317C17.967 7.23317 18.667 7.93317 18.667 8.8665C18.667 9.79984 17.8503 10.4998 17.0337 10.4998ZM10.7337 10.4998L9.33366 9.09984L17.267 1.1665L18.667 2.5665L10.7337 10.4998Z" fill="white"/>
</g>
</svg>
