<svg width="28" height="28" viewBox="0 0 28 28" fill="none" xmlns="http://www.w3.org/2000/svg">
<g id="icons">
<path id="Vector" d="M12.0855 1.162C12.6285 0.727033 13.3034 0.490021 13.9991 0.490021C14.6948 0.490021 15.3698 0.727033 15.9128 1.162L25.1003 8.512C25.8265 9.093 26.25 9.97325 26.25 10.9042V23.1875C26.25 23.9997 25.9273 24.7787 25.353 25.353C24.7787 25.9273 23.9997 26.25 23.1875 26.25H17.0625C16.7144 26.25 16.3806 26.1117 16.1344 25.8656C15.8883 25.6194 15.75 25.2856 15.75 24.9375V15.75H12.25V24.9375C12.25 25.2856 12.1117 25.6194 11.8656 25.8656C11.6194 26.1117 11.2856 26.25 10.9375 26.25H4.8125C4.00027 26.25 3.22132 25.9273 2.64699 25.353C2.07266 24.7787 1.75 23.9997 1.75 23.1875V10.9025C1.75 9.97325 2.1735 9.093 2.89975 8.512L12.0855 1.162ZM14.273 3.21125C14.1955 3.14934 14.0992 3.11562 14 3.11562C13.9008 3.11562 13.8045 3.14934 13.727 3.21125L4.5395 10.5612C4.48803 10.6024 4.4465 10.6545 4.41802 10.7139C4.38954 10.7733 4.37483 10.8384 4.375 10.9042V23.1875C4.375 23.429 4.571 23.625 4.8125 23.625H9.625V14.4375C9.625 14.0894 9.76328 13.7556 10.0094 13.5094C10.2556 13.2633 10.5894 13.125 10.9375 13.125H17.0625C17.4106 13.125 17.7444 13.2633 17.9906 13.5094C18.2367 13.7556 18.375 14.0894 18.375 14.4375V23.625H23.1875C23.3035 23.625 23.4148 23.5789 23.4969 23.4969C23.5789 23.4148 23.625 23.3035 23.625 23.1875V10.9025C23.6249 10.8369 23.6101 10.7722 23.5816 10.7131C23.5531 10.6541 23.5117 10.6022 23.4605 10.5612L14.273 3.21125Z" fill="#28292B"/>
</g>
</svg>
