<svg width="28" height="29" viewBox="0 0 28 29" fill="none" xmlns="http://www.w3.org/2000/svg">
<g id="icons">
<path id="Vector" d="M23.3335 4.8381V23.5048H4.66679V4.8381H23.3335ZM24.8001 2.17143H3.20012C2.53346 2.17143 2.00012 2.70477 2.00012 3.37143V24.9714C2.00012 25.5048 2.53346 26.1714 3.20012 26.1714H24.8001C25.3335 26.1714 26.0001 25.5048 26.0001 24.9714V3.37143C26.0001 2.70477 25.3335 2.17143 24.8001 2.17143ZM12.6668 7.50477H20.6668V10.1714H12.6668V7.50477ZM12.6668 12.8381H20.6668V15.5048H12.6668V12.8381ZM12.6668 18.1714H20.6668V20.8381H12.6668V18.1714ZM7.33346 7.50477H10.0001V10.1714H7.33346V7.50477ZM7.33346 12.8381H10.0001V15.5048H7.33346V12.8381ZM7.33346 18.1714H10.0001V20.8381H7.33346V18.1714Z" fill="white"/>
</g>
</svg>
