<svg width="28" height="29" viewBox="0 0 28 29" fill="none" xmlns="http://www.w3.org/2000/svg">
<g id="icons">
<path id="Vector" fill-rule="evenodd" clip-rule="evenodd" d="M4.25 8.57143C4.25 7.98796 4.48705 7.42838 4.90901 7.0158C5.33097 6.60322 5.90326 6.37143 6.5 6.37143H21.5C22.0967 6.37143 22.669 6.60322 23.091 7.0158C23.5129 7.42838 23.75 7.98796 23.75 8.57143V17.3714C23.75 17.9549 23.5129 18.5145 23.091 18.9271C22.669 19.3396 22.0967 19.5714 21.5 19.5714H12.1415L11.8505 19.7738L8.75 21.9181V19.5714H6.5C5.90326 19.5714 5.33097 19.3396 4.90901 18.9271C4.48705 18.5145 4.25 17.9549 4.25 17.3714V8.57143ZM6.5 4.17143C5.30653 4.17143 4.16193 4.635 3.31802 5.46016C2.47411 6.28532 2 7.40448 2 8.57143L2 17.3714C2 18.5384 2.47411 19.6575 3.31802 20.4827C4.16193 21.3079 5.30653 21.7714 6.5 21.7714V26.1714L8.2745 24.9424L12.86 21.7714H21.5C22.6935 21.7714 23.8381 21.3079 24.682 20.4827C25.5259 19.6575 26 18.5384 26 17.3714V8.57143C26 7.40448 25.5259 6.28532 24.682 5.46016C23.8381 4.635 22.6935 4.17143 21.5 4.17143H6.5ZM18.5 14.4381C18.8978 14.4381 19.2794 14.2836 19.5607 14.0085C19.842 13.7335 20 13.3604 20 12.9714C20 12.5824 19.842 12.2094 19.5607 11.9343C19.2794 11.6593 18.8978 11.5048 18.5 11.5048C18.1022 11.5048 17.7206 11.6593 17.4393 11.9343C17.158 12.2094 17 12.5824 17 12.9714C17 13.3604 17.158 13.7335 17.4393 14.0085C17.7206 14.2836 18.1022 14.4381 18.5 14.4381ZM15.5 12.9714C15.5 13.3604 15.342 13.7335 15.0607 14.0085C14.7794 14.2836 14.3978 14.4381 14 14.4381C13.6022 14.4381 13.2206 14.2836 12.9393 14.0085C12.658 13.7335 12.5 13.3604 12.5 12.9714C12.5 12.5824 12.658 12.2094 12.9393 11.9343C13.2206 11.6593 13.6022 11.5048 14 11.5048C14.3978 11.5048 14.7794 11.6593 15.0607 11.9343C15.342 12.2094 15.5 12.5824 15.5 12.9714ZM9.5 14.4381C9.89782 14.4381 10.2794 14.2836 10.5607 14.0085C10.842 13.7335 11 13.3604 11 12.9714C11 12.5824 10.842 12.2094 10.5607 11.9343C10.2794 11.6593 9.89782 11.5048 9.5 11.5048C9.10218 11.5048 8.72064 11.6593 8.43934 11.9343C8.15804 12.2094 8 12.5824 8 12.9714C8 13.3604 8.15804 13.7335 8.43934 14.0085C8.72064 14.2836 9.10218 14.4381 9.5 14.4381Z" fill="white"/>
</g>
</svg>
