<svg width="24" height="24" viewBox="0 0 24 24" fill="none" xmlns="http://www.w3.org/2000/svg">
<g id="icons">
<g id="Vector">
<path d="M11.0769 14.5714C11.0769 14.0034 10.6341 13.5428 10.0879 13.5428C9.54169 13.5428 9.0989 14.0034 9.0989 14.5714C9.0989 15.1395 9.54169 15.6 10.0879 15.6C10.6341 15.6 11.0769 15.1395 11.0769 14.5714Z" fill="url(#paint0_linear_1_1262)"/>
<path fill-rule="evenodd" clip-rule="evenodd" d="M5.14285 5.82856C5.14285 4.97647 5.80705 4.28571 6.62637 4.28571H14.7433L18 7.67268V18.1714C18 19.0235 17.3358 19.7143 16.5165 19.7143H6.62637C5.80705 19.7143 5.14285 19.0235 5.14285 18.1714V5.82856ZM11.415 8.42642C11.617 8.35641 11.8393 8.42865 11.967 8.60574L12.2637 9.01717C12.9175 9.92367 13.9434 10.4572 15.033 10.4572V11.4857C13.9282 11.4857 12.8743 11.0591 12.0659 10.3072V14.5714C12.0659 15.7075 11.1803 16.6286 10.0879 16.6286C8.99548 16.6286 8.10989 15.7075 8.10989 14.5714C8.10989 13.4353 8.99548 12.5143 10.0879 12.5143C10.4482 12.5143 10.786 12.6145 11.0769 12.7895V8.91431C11.0769 8.69295 11.2131 8.49642 11.415 8.42642Z" fill="url(#paint1_linear_1_1262)"/>
</g>
</g>
<defs>
<linearGradient id="paint0_linear_1_1262" x1="20.7732" y1="4.6502" x2="4.05926" y2="4.79021" gradientUnits="userSpaceOnUse">
<stop stop-color="#FAFAFA"/>
<stop offset="1" stop-color="#FAFAFA"/>
</linearGradient>
<linearGradient id="paint1_linear_1_1262" x1="20.7732" y1="4.6502" x2="4.05926" y2="4.79021" gradientUnits="userSpaceOnUse">
<stop stop-color="#FAFAFA"/>
<stop offset="1" stop-color="#FAFAFA"/>
</linearGradient>
</defs>
</svg>
