<svg width="28" height="28" viewBox="0 0 28 28" fill="none" xmlns="http://www.w3.org/2000/svg">
<g id="icons">
<path id="Vector" d="M14 1.16666L3.5 5.83332V12.8333C3.5 19.3083 7.98 25.3633 14 26.8333C20.02 25.3633 24.5 19.3083 24.5 12.8333V5.83332L14 1.16666ZM22.1667 12.8333C22.1667 14.9917 21.5717 17.0917 20.5567 18.9117L18.865 17.22C19.6063 16.0985 19.9369 14.7551 19.8008 13.4176C19.6647 12.0802 19.0703 10.8309 18.1183 9.88166C17.024 8.78893 15.5407 8.17518 13.9942 8.17518C12.4477 8.17518 10.9644 8.78893 9.87 9.88166C8.77728 10.976 8.16353 12.4593 8.16353 14.0058C8.16353 15.5523 8.77728 17.0356 9.87 18.13C10.8206 19.0796 12.0696 19.6724 13.4064 19.8084C14.7431 19.9444 16.0859 19.6153 17.2083 18.8767L19.215 20.8833C17.8267 22.54 16.03 23.8117 14 24.43C9.31 22.9717 5.83333 18.1067 5.83333 12.8333V7.34999L14 3.72166L22.1667 7.34999V12.8333ZM14 17.5C12.0633 17.5 10.5 15.9367 10.5 14C10.5 12.0633 12.0633 10.5 14 10.5C15.9367 10.5 17.5 12.0633 17.5 14C17.5 15.9367 15.9367 17.5 14 17.5Z" fill="white"/>
</g>
</svg>
