<svg width="24" height="24" viewBox="0 0 24 24" fill="none" xmlns="http://www.w3.org/2000/svg">
<g id="pajamas:earth">
<path id="Vector" fill-rule="evenodd" clip-rule="evenodd" d="M12 20.9375C12.3162 20.9375 13.1591 20.6268 14.0446 18.8558C14.4654 18.0142 14.8188 16.972 15.0649 15.7812H8.93512C9.18125 16.972 9.53463 18.0142 9.95537 18.8558C10.8409 20.6268 11.6838 20.9375 12 20.9375ZM8.63675 13.7188C8.5374 12.5751 8.5374 11.4249 8.63675 10.2812H15.3632C15.4625 11.4249 15.4625 12.5751 15.3632 13.7188H8.63675ZM17.1659 15.7812C16.8579 17.4643 16.3505 18.9548 15.7001 20.1373C17.6372 19.2534 19.1968 17.7094 20.1001 15.7812H17.1659ZM20.7725 13.7188H17.4312C17.5208 12.5747 17.5208 11.4253 17.4312 10.2812H20.7711C20.9924 11.4164 20.9924 12.5836 20.7711 13.7188H20.7725ZM6.56737 13.7188H3.2275C3.00622 12.5836 3.00622 11.4164 3.2275 10.2812H6.56875C6.47906 11.4253 6.47906 12.5747 6.56875 13.7188H6.56737ZM3.89987 15.7812H6.83413C7.14213 17.4643 7.6495 18.9548 8.29988 20.1373C6.36279 19.2534 4.80319 17.7094 3.89987 15.7812ZM8.93512 8.21875H15.0649C14.8188 7.028 14.4654 5.98575 14.0446 5.14425C13.1591 3.37325 12.3162 3.0625 12 3.0625C11.6838 3.0625 10.8409 3.37325 9.95537 5.14425C9.53463 5.98575 9.18125 7.028 8.93512 8.21875ZM17.1659 8.21875H20.1001C19.1967 6.29071 17.6371 4.74674 15.7001 3.86275C16.3505 5.04525 16.8579 6.53575 17.1659 8.21875ZM8.30125 3.86275C7.65088 5.04525 7.1435 6.53575 6.8355 8.21875H3.89987C4.80319 6.29064 6.36416 4.74664 8.30125 3.86275ZM12 1C14.9174 1 17.7153 2.15893 19.7782 4.22183C21.8411 6.28473 23 9.08262 23 12C23 14.9174 21.8411 17.7153 19.7782 19.7782C17.7153 21.8411 14.9174 23 12 23C9.08262 23 6.28473 21.8411 4.22183 19.7782C2.15893 17.7153 1 14.9174 1 12C1 9.08262 2.15893 6.28473 4.22183 4.22183C6.28473 2.15893 9.08262 1 12 1Z" fill="white"/>
</g>
</svg>
