<svg width="24" height="24" viewBox="0 0 24 24" fill="none" xmlns="http://www.w3.org/2000/svg">
<g id="ic:outline-topic">
<path id="Vector" d="M20 6H12L10 4H4C2.9 4 2.01 4.9 2.01 6L2 18C2 19.1 2.9 20 4 20H20.77C21.45 20 22 19.44 22 18.77V8C22 6.9 21.1 6 20 6ZM20 18H4V6H9.17L11.17 8H20V18ZM18 12H6V10H18V12ZM14 16H6V14H14V16Z" fill="url(#paint0_linear_244_14107)"/>
</g>
<defs>
<linearGradient id="paint0_linear_244_14107" x1="26.3138" y1="4.378" x2="0.31669" y2="4.70465" gradientUnits="userSpaceOnUse">
<stop stop-color="#EA4335"/>
<stop offset="1" stop-color="#FBBC05"/>
</linearGradient>
</defs>
</svg>
