<svg xmlns="http://www.w3.org/2000/svg" width="36" height="36" viewBox="0 0 36 36" fill="none">
<g clip-path="url(#clip0_24_12541)">
<path fill-rule="evenodd" clip-rule="evenodd" d="M0 18C0 8.0586 8.0586 0 18 0C27.9414 0 36 8.0586 36 18C36 27.9414 27.9414 36 18 36C8.0586 36 0 27.9414 0 18ZM18 10.8C18 10.3226 17.8104 9.86477 17.4728 9.52721C17.1352 9.18964 16.6774 9 16.2 9C15.7226 9 15.2648 9.18964 14.9272 9.52721C14.5896 9.86477 14.4 10.3226 14.4 10.8V19.8C14.4 20.2774 14.5896 20.7352 14.9272 21.0728C15.2648 21.4104 15.7226 21.6 16.2 21.6H25.2C25.6774 21.6 26.1352 21.4104 26.4728 21.0728C26.8104 20.7352 27 20.2774 27 19.8C27 19.3226 26.8104 18.8648 26.4728 18.5272C26.1352 18.1896 25.6774 18 25.2 18H18V10.8Z" fill="#FBBC05"/>
</g>
<defs>
<clipPath id="clip0_24_12541">
<rect width="36" height="36" fill="white"/>
</clipPath>
</defs>
</svg>