<svg xmlns="http://www.w3.org/2000/svg" width="36" height="36" viewBox="0 0 36 36" fill="none">
<g clip-path="url(#clip0_24_12500)">
<path d="M18 0C8.05876 0 0 8.05876 0 18C0 27.9412 8.05876 36 18 36C27.9412 36 36 27.9412 36 18C36 8.05876 27.9412 0 18 0ZM19.5543 27.7592V30.2943H17.1294V27.7877C13.1501 27.2427 11.4076 23.9732 11.4076 23.9732L13.8845 21.9012C13.8845 21.9012 15.4661 24.6543 18.327 24.6543C19.9073 24.6543 21.1061 23.8085 21.1061 22.3631C21.1061 18.9846 12.0033 19.3945 12.0033 13.1266C12.0033 10.402 14.1582 8.43897 17.1281 7.97454V5.44186H19.553V7.97454C21.6238 8.24701 24.076 9.33687 24.076 11.6813V13.4796H20.8609V12.6077C20.8609 11.7085 19.7153 11.1091 18.4335 11.1091C16.7987 11.1091 15.6011 11.9265 15.6011 13.0709C15.6011 16.5312 24.7039 15.6865 24.7039 22.2542C24.7039 24.954 22.6876 27.2948 19.5543 27.7592Z" fill="#FBBC05"/>
</g>
<defs>
<clipPath id="clip0_24_12500">
<rect width="36" height="36" fill="white"/>
</clipPath>
</defs>
</svg>