<svg width="14" height="14" viewBox="0 0 14 14" fill="none" xmlns="http://www.w3.org/2000/svg">
<path d="M8.56953 0.899604C9.28047 1.04179 9.74258 1.73359 9.60039 2.44453L9.5375 2.75625C9.39258 3.48632 9.12461 4.18085 8.75 4.81249H12.6875C13.4121 4.81249 14 5.40039 14 6.12499C14 6.63085 13.7129 7.07109 13.2918 7.28984C13.5898 7.53046 13.7812 7.8996 13.7812 8.3125C13.7812 8.95234 13.3219 9.48554 12.7176 9.60039C12.8379 9.8 12.9062 10.0324 12.9062 10.2812C12.9062 10.8637 12.5262 11.3586 12.0012 11.5281C12.0203 11.6184 12.0312 11.7141 12.0312 11.8125C12.0312 12.5371 11.4434 13.125 10.7188 13.125H8.05273C7.5332 13.125 7.02734 12.9719 6.59531 12.6848L5.54258 11.982C4.8125 11.4953 4.375 10.675 4.375 9.79726V8.75V7.43749V6.75664C4.375 5.9582 4.73867 5.20624 5.35938 4.70585L5.56172 4.54453C6.28633 3.96484 6.78125 3.15 6.96172 2.24218L7.02461 1.93046C7.1668 1.21953 7.85859 0.757417 8.56953 0.899604ZM0.875 5.24999H2.625C3.10898 5.24999 3.5 5.64101 3.5 6.12499V12.25C3.5 12.734 3.10898 13.125 2.625 13.125H0.875C0.391016 13.125 0 12.734 0 12.25V6.12499C0 5.64101 0.391016 5.24999 0.875 5.24999Z" fill="#219653"/>
</svg>
