<svg xmlns="http://www.w3.org/2000/svg" width="14" height="14" viewBox="0 0 14 14" fill="none">
<path d="M5.43047 13.1004C4.71953 12.9582 4.25742 12.2664 4.39961 11.5555L4.4625 11.2438C4.60742 10.5137 4.87539 9.81915 5.25 9.18751H1.3125C0.587891 9.18751 0 8.59961 0 7.87501C0 7.36915 0.287109 6.92891 0.708203 6.71016C0.410156 6.46954 0.21875 6.1004 0.21875 5.6875C0.21875 5.04766 0.678124 4.51446 1.28242 4.39961C1.16211 4.2 1.09375 3.96758 1.09375 3.71875C1.09375 3.13633 1.47383 2.64141 1.99883 2.47188C1.97969 2.38165 1.96875 2.28594 1.96875 2.1875C1.96875 1.4629 2.55664 0.875005 3.28125 0.875005H5.94727C6.4668 0.875005 6.97266 1.02813 7.40469 1.31524L8.45742 2.01797C9.1875 2.50469 9.625 3.325 9.625 4.20274V5.25V6.56251V7.24336C9.625 8.0418 9.26133 8.79376 8.64062 9.29415L8.43828 9.45547C7.71367 10.0352 7.21875 10.85 7.03828 11.7578L6.97539 12.0695C6.8332 12.7805 6.14141 13.2426 5.43047 13.1004ZM13.125 8.75001H11.375C10.891 8.75001 10.5 8.35899 10.5 7.87501V1.75C10.5 1.26602 10.891 0.875005 11.375 0.875005H13.125C13.609 0.875005 14 1.26602 14 1.75V7.87501C14 8.35899 13.609 8.75001 13.125 8.75001Z" fill="#219653"/>
</svg>