<svg width="36" height="36" viewBox="0 0 36 36" fill="none" xmlns="http://www.w3.org/2000/svg">
<g clip-path="url(#clip0_24_12194)">
<path d="M18 36C20.3642 36.003 22.7058 35.5388 24.89 34.6341C27.0743 33.7293 29.0582 32.4018 30.7278 30.7278C32.4018 29.0582 33.7293 27.0743 34.6341 24.89C35.5388 22.7058 36.003 20.3642 36 18C36.003 15.6358 35.5388 13.2942 34.634 11.11C33.7292 8.92573 32.4017 6.9418 30.7278 5.27221C29.0582 3.59824 27.0743 2.27071 24.89 1.36593C22.7058 0.46115 20.3642 -0.00304824 18 1.50629e-05C15.6358 -0.00299893 13.2942 0.461222 11.11 1.366C8.92573 2.27078 6.9418 3.59828 5.27221 5.27221C3.59828 6.9418 2.27078 8.92573 1.366 11.11C0.461222 13.2942 -0.00299893 15.6358 1.50629e-05 18C-0.00304824 20.3642 0.46115 22.7058 1.36593 24.89C2.27071 27.0743 3.59824 29.0582 5.27221 30.7278C6.9418 32.4017 8.92573 33.7292 11.11 34.634C13.2942 35.5388 15.6358 36.003 18 36Z" fill="#1C8C00"/>
<path d="M12 18L16.5 22.5L25.5 13.5" stroke="white" stroke-width="4" stroke-linecap="round" stroke-linejoin="round"/>
</g>
<defs>
<clipPath id="clip0_24_12194">
<rect width="36" height="36" fill="white"/>
</clipPath>
</defs>
</svg>
