<svg width="10" height="9" viewBox="0 0 10 9" fill="none" xmlns="http://www.w3.org/2000/svg">
<path d="M7.61648 8.18935C7.61648 8.18935 7.63352 8.17231 7.66761 8.13822C7.70169 8.10414 7.71873 8.04045 7.71873 7.94717C7.71873 7.85389 7.68465 7.77316 7.61648 7.70499C7.54831 7.63682 7.46759 7.60274 7.3743 7.60274C7.28102 7.60274 7.20029 7.63682 7.13212 7.70499C7.06395 7.77316 7.02987 7.85389 7.02987 7.94717C7.02987 8.04045 7.06395 8.12118 7.13212 8.18935C7.20029 8.25752 7.28102 8.2916 7.3743 8.2916C7.46759 8.2916 7.54831 8.25752 7.61648 8.18935ZM8.99421 8.18935C8.99421 8.18935 9.01125 8.17231 9.04534 8.13822C9.07942 8.10414 9.09647 8.04045 9.09647 7.94717C9.09647 7.85389 9.06238 7.77316 8.99421 7.70499C8.92604 7.63682 8.84532 7.60274 8.75203 7.60274C8.65875 7.60274 8.57802 7.63682 8.50985 7.70499C8.44168 7.77316 8.4076 7.85389 8.4076 7.94717C8.4076 8.04045 8.44168 8.12118 8.50985 8.18935C8.57802 8.25752 8.65875 8.2916 8.75203 8.2916C8.84532 8.2916 8.92604 8.25752 8.99421 8.18935ZM9.78533 6.74166V8.46382C9.78533 8.60733 9.7351 8.72932 9.63464 8.82978C9.53418 8.93024 9.4122 8.98047 9.26868 8.98047H1.34673C1.20321 8.98047 1.08123 8.93024 0.980767 8.82978C0.880308 8.72932 0.830078 8.60733 0.830078 8.46382V6.74166C0.830078 6.59814 0.880308 6.47616 0.980767 6.3757C1.08123 6.27524 1.20321 6.22501 1.34673 6.22501H3.84925L4.57578 6.95693C4.78388 7.15785 5.02785 7.25831 5.3077 7.25831C5.58756 7.25831 5.83153 7.15785 6.03962 6.95693L6.77154 6.22501H9.26868C9.4122 6.22501 9.53418 6.27524 9.63464 6.3757C9.7351 6.47616 9.78533 6.59814 9.78533 6.74166ZM8.03626 3.67943C8.09725 3.82654 8.07214 3.95211 7.96091 4.05616L5.54988 6.46719C5.4853 6.53536 5.40458 6.56944 5.3077 6.56944C5.21083 6.56944 5.13011 6.53536 5.06553 6.46719L2.6545 4.05616C2.54327 3.95211 2.51816 3.82654 2.57915 3.67943C2.64014 3.53951 2.74599 3.46954 2.89667 3.46954H4.27441V1.05852C4.27441 0.965232 4.30849 0.884505 4.37666 0.816337C4.44483 0.748167 4.52556 0.714083 4.61884 0.714083H5.99657C6.08985 0.714083 6.17058 0.748167 6.23875 0.816337C6.30692 0.884505 6.341 0.965232 6.341 1.05852V3.46954H7.71873C7.86942 3.46954 7.97527 3.53951 8.03626 3.67943Z" fill="#212121"/>
</svg>
