<svg xmlns="http://www.w3.org/2000/svg" width="25" height="24" viewBox="0 0 25 24" fill="none">
<path d="M19.6111 21H5.38889C5.15314 21 4.92705 20.9052 4.76035 20.7364C4.59365 20.5676 4.5 20.3387 4.5 20.1V3.9C4.5 3.66131 4.59365 3.43239 4.76035 3.2636C4.92705 3.09482 5.15314 3 5.38889 3H19.6111C19.8469 3 20.073 3.09482 20.2397 3.2636C20.4064 3.43239 20.5 3.66131 20.5 3.9V20.1C20.5 20.3387 20.4064 20.5676 20.2397 20.7364C20.073 20.9052 19.8469 21 19.6111 21ZM18.7222 19.2V4.8H6.27778V19.2H18.7222ZM8.94444 9.3H16.0556V11.1H8.94444V9.3ZM8.94444 12.9H16.0556V14.7H8.94444V12.9Z" fill="black"/>
</svg>