<svg xmlns="http://www.w3.org/2000/svg" width="24" height="24" viewBox="0 0 24 24" fill="none">
  <path d="M19.528 11.664L12.328 4.464C12.04 4.176 11.64 4 11.2 4H5.6C4.72 4 4 4.72 4 5.6V11.2C4 11.64 4.176 12.04 4.472 12.336L11.672 19.536C11.96 19.824 12.36 20 12.8 20C13.24 20 13.64 19.824 13.928 19.528L19.528 13.928C19.824 13.64 20 13.24 20 12.8C20 12.36 19.816 11.952 19.528 11.664ZM12.8 18.408L5.6 11.2V5.6H11.2V5.592L18.4 12.792L12.8 18.408Z" fill="black"/>
  <path d="M8 9C8.55228 9 9 8.55228 9 8C9 7.44772 8.55228 7 8 7C7.44772 7 7 7.44772 7 8C7 8.55228 7.44772 9 8 9Z" fill="black"/>
</svg>