<svg xmlns="http://www.w3.org/2000/svg" width="24" height="24" viewBox="0 0 24 24" fill="none">
<mask id="path-1-inside-1_43_23903" fill="white">
<path fill-rule="evenodd" clip-rule="evenodd" d="M4.8894 12.8891H10.2229C10.7118 12.8891 11.1118 12.4891 11.1118 12.0002V4.88891C11.1118 4.40001 10.7118 4 10.2229 4H4.8894C4.4005 4 4.00049 4.40001 4.00049 4.88891V12.0002C4.00049 12.4891 4.4005 12.8891 4.8894 12.8891ZM4.8894 20.0005H10.2229C10.7118 20.0005 11.1118 19.6005 11.1118 19.1116V15.5559C11.1118 15.067 10.7118 14.667 10.2229 14.667H4.8894C4.4005 14.667 4.00049 15.067 4.00049 15.5559V19.1116C4.00049 19.6005 4.4005 20.0005 4.8894 20.0005ZM13.7785 20.0003H19.112C19.6009 20.0003 20.0009 19.6003 20.0009 19.1114V12.0001C20.0009 11.5112 19.6009 11.1112 19.112 11.1112H13.7785C13.2896 11.1112 12.8896 11.5112 12.8896 12.0001V19.1114C12.8896 19.6003 13.2896 20.0003 13.7785 20.0003ZM12.8896 4.88891V8.44455C12.8896 8.93345 13.2896 9.33346 13.7785 9.33346H19.112C19.6009 9.33346 20.0009 8.93345 20.0009 8.44455V4.88891C20.0009 4.40001 19.6009 4 19.112 4H13.7785C13.2896 4 12.8896 4.40001 12.8896 4.88891Z"/>
</mask>
<path d="M4.8894 14.2891H10.2229V11.4891H4.8894V14.2891ZM10.2229 14.2891C11.485 14.2891 12.5118 13.2623 12.5118 12.0002H9.71177C9.71177 11.7159 9.93857 11.4891 10.2229 11.4891V14.2891ZM12.5118 12.0002V4.88891H9.71177V12.0002H12.5118ZM12.5118 4.88891C12.5118 3.62681 11.485 2.6 10.2229 2.6V5.4C9.93857 5.4 9.71177 5.17321 9.71177 4.88891H12.5118ZM10.2229 2.6H4.8894V5.4H10.2229V2.6ZM4.8894 2.6C3.6273 2.6 2.60049 3.62681 2.60049 4.88891H5.40049C5.40049 5.17321 5.1737 5.4 4.8894 5.4V2.6ZM2.60049 4.88891V12.0002H5.40049V4.88891H2.60049ZM2.60049 12.0002C2.60049 13.2623 3.6273 14.2891 4.8894 14.2891V11.4891C5.1737 11.4891 5.40049 11.7159 5.40049 12.0002H2.60049ZM4.8894 21.4005H10.2229V18.6005H4.8894V21.4005ZM10.2229 21.4005C11.485 21.4005 12.5118 20.3737 12.5118 19.1116H9.71177C9.71177 18.8273 9.93856 18.6005 10.2229 18.6005V21.4005ZM12.5118 19.1116V15.5559H9.71177V19.1116H12.5118ZM12.5118 15.5559C12.5118 14.2938 11.485 13.267 10.2229 13.267V16.067C9.93856 16.067 9.71177 15.8402 9.71177 15.5559H12.5118ZM10.2229 13.267H4.8894V16.067H10.2229V13.267ZM4.8894 13.267C3.6273 13.267 2.60049 14.2938 2.60049 15.5559H5.40049C5.40049 15.8402 5.1737 16.067 4.8894 16.067V13.267ZM2.60049 15.5559V19.1116H5.40049V15.5559H2.60049ZM2.60049 19.1116C2.60049 20.3737 3.6273 21.4005 4.8894 21.4005V18.6005C5.1737 18.6005 5.40049 18.8273 5.40049 19.1116H2.60049ZM13.7785 21.4003H19.112V18.6003H13.7785V21.4003ZM19.112 21.4003C20.3741 21.4003 21.4009 20.3735 21.4009 19.1114H18.6009C18.6009 18.8271 18.8277 18.6003 19.112 18.6003V21.4003ZM21.4009 19.1114V12.0001H18.6009V19.1114H21.4009ZM21.4009 12.0001C21.4009 10.738 20.3741 9.71118 19.112 9.71118V12.5112C18.8277 12.5112 18.6009 12.2844 18.6009 12.0001H21.4009ZM19.112 9.71118H13.7785V12.5112H19.112V9.71118ZM13.7785 9.71118C12.5164 9.71118 11.4896 10.738 11.4896 12.0001H14.2896C14.2896 12.2844 14.0628 12.5112 13.7785 12.5112V9.71118ZM11.4896 12.0001V19.1114H14.2896V12.0001H11.4896ZM11.4896 19.1114C11.4896 20.3735 12.5164 21.4003 13.7785 21.4003V18.6003C14.0628 18.6003 14.2896 18.8271 14.2896 19.1114H11.4896ZM11.4896 4.88891V8.44455H14.2896V4.88891H11.4896ZM11.4896 8.44455C11.4896 9.70665 12.5164 10.7335 13.7785 10.7335V7.93346C14.0628 7.93346 14.2896 8.16026 14.2896 8.44455H11.4896ZM13.7785 10.7335H19.112V7.93346H13.7785V10.7335ZM19.112 10.7335C20.3741 10.7335 21.4009 9.70665 21.4009 8.44455H18.6009C18.6009 8.16026 18.8277 7.93346 19.112 7.93346V10.7335ZM21.4009 8.44455V4.88891H18.6009V8.44455H21.4009ZM21.4009 4.88891C21.4009 3.62681 20.3741 2.6 19.112 2.6V5.4C18.8277 5.4 18.6009 5.17321 18.6009 4.88891H21.4009ZM19.112 2.6H13.7785V5.4H19.112V2.6ZM13.7785 2.6C12.5164 2.6 11.4896 3.62681 11.4896 4.88891H14.2896C14.2896 5.17321 14.0628 5.4 13.7785 5.4V2.6Z" fill="black" mask="url(#path-1-inside-1_43_23903)"/>
</svg>