<svg xmlns="http://www.w3.org/2000/svg" width="25" height="24" viewBox="0 0 25 24" fill="none">
<path d="M3.5 5.25003C3.30109 5.25003 3.11032 5.32905 2.96967 5.4697C2.82902 5.61035 2.75 5.80112 2.75 6.00003C2.75 6.19894 2.82902 6.38971 2.96967 6.53036C3.11032 6.67101 3.30109 6.75003 3.5 6.75003H5.165L7.133 14.625C7.30025 15.2925 7.898 15.75 8.58575 15.75H17.9382C18.6155 15.75 19.1908 15.3 19.3685 14.6475L21.3125 7.50003H19.742L17.9375 14.25H8.585L6.61775 6.37503C6.53649 6.05195 6.34916 5.76549 6.08576 5.56152C5.82236 5.35754 5.49813 5.24786 5.165 5.25003H3.5ZM17 15.75C15.7662 15.75 14.75 16.7663 14.75 18C14.75 19.2338 15.7662 20.25 17 20.25C18.2338 20.25 19.25 19.2338 19.25 18C19.25 16.7663 18.2338 15.75 17 15.75ZM10.25 15.75C9.01625 15.75 8 16.7663 8 18C8 19.2338 9.01625 20.25 10.25 20.25C11.4838 20.25 12.5 19.2338 12.5 18C12.5 16.7663 11.4838 15.75 10.25 15.75ZM12.5 5.25003V9.00003H10.25L13.25 12L16.25 9.00003H14V5.25003H12.5ZM10.25 17.25C10.673 17.25 11 17.577 11 18C11 18.423 10.673 18.75 10.25 18.75C9.827 18.75 9.5 18.423 9.5 18C9.5 17.577 9.827 17.25 10.25 17.25ZM17 17.25C17.423 17.25 17.75 17.577 17.75 18C17.75 18.423 17.423 18.75 17 18.75C16.577 18.75 16.25 18.423 16.25 18C16.25 17.577 16.577 17.25 17 17.25Z" fill="black"/>
</svg>