<svg xmlns="http://www.w3.org/2000/svg" width="49" height="34" viewBox="0 0 49 34" fill="none">
<g clip-path="url(#clip0_43_24267)">
<path fill-rule="evenodd" clip-rule="evenodd" d="M0.798828 8.96191H48.9633V25.0167H0.798828V8.96191Z" fill="#F3F4F4"/>
<path fill-rule="evenodd" clip-rule="evenodd" d="M48.9633 25.0166V29.4718C48.9633 31.9202 47.0768 33.044 44.8291 33.044H4.93294C2.68527 33.044 0.798828 31.9202 0.798828 29.4718V25.0166H48.9633Z" fill="#E6A124"/>
<path fill-rule="evenodd" clip-rule="evenodd" d="M0.798828 8.96197V4.94827C0.798828 2.74074 2.68527 0.93457 4.93294 0.93457H44.8291C47.0768 0.93457 48.9633 2.74074 48.9633 4.94827V8.96197H0.798828ZM14.5257 20.2806C14.8468 19.3575 15.0876 18.7153 15.2482 18.4744L18.0577 12.775H20.0646L15.2482 22.2072H13.0808L12.278 12.7349H14.1645L14.4856 18.4343C14.5354 19.0353 14.5354 19.6395 14.4856 20.2405L14.5257 20.2806ZM19.2217 22.2072L21.2286 12.775H23.2354L21.1483 22.2072H19.1414H19.2217ZM29.256 19.4377C29.256 20.3208 28.9349 21.0432 28.2927 21.565C27.5451 22.1322 26.6209 22.4166 25.6838 22.3677C24.7205 22.3677 23.9579 22.1671 23.396 21.7657V19.9997C24.1987 20.4813 25.0015 20.7221 25.7239 20.7221C26.118 20.741 26.5089 20.6432 26.8478 20.4412C27.0886 20.2405 27.2491 19.9997 27.2491 19.6384C27.2365 19.3226 27.1079 19.0225 26.8879 18.7955C26.8076 18.6751 26.5267 18.4744 26.0852 18.1534C25.5232 17.7118 25.0817 17.2703 24.881 16.869C24.6001 16.4676 24.4797 15.986 24.4797 15.5043C24.4595 14.98 24.5931 14.4612 24.8641 14.0119C25.1351 13.5626 25.5317 13.2024 26.0049 12.9757C26.6938 12.7203 27.429 12.6133 28.1621 12.6617C28.8953 12.7102 29.61 12.9129 30.2594 13.2566L29.5771 14.7818C29.0041 14.4886 28.374 14.3242 27.7308 14.3002C27.3695 14.3002 27.0886 14.4206 26.8478 14.5812C26.6069 14.7818 26.5267 15.0628 26.5267 15.3839C26.5267 15.6247 26.5668 15.8655 26.7273 16.0662C26.8879 16.2669 27.1689 16.5077 27.6906 16.869C28.2124 17.1901 28.6138 17.5513 28.8546 17.9928C29.0954 18.3942 29.256 18.8758 29.256 19.4377ZM35.5976 19.9595H32.5071L31.4234 22.2473H29.2961L34.2731 12.7349H36.6813L37.6446 22.2072H35.718L35.5976 19.9194V19.9595ZM35.4772 18.3139L35.3167 16.0261L35.2364 14.4206V14.1798C35.0758 14.6614 34.835 15.2233 34.5541 15.7853L33.35 18.3139H35.4772Z" fill="#5565AF"/>
</g>
<defs>
<clipPath id="clip0_43_24267">
<rect width="48.1644" height="32.1096" fill="white" transform="translate(0.798828 0.93457)"/>
</clipPath>
</defs>
</svg>