<svg width="16" height="16" viewBox="0 0 16 16" fill="none" xmlns="http://www.w3.org/2000/svg">
<g id="&#240;&#159;&#166;&#134; icon &#34;calendar outline&#34;">
<g id="Group">
<path id="Vector" d="M12.0889 2.91058H11.4639V2.28558C11.4639 2.11982 11.398 1.96085 11.2808 1.84364C11.1636 1.72643 11.0046 1.66058 10.8389 1.66058C10.6731 1.66058 10.5141 1.72643 10.3969 1.84364C10.2797 1.96085 10.2139 2.11982 10.2139 2.28558V2.91058H6.46387V2.28558C6.46387 2.11982 6.39802 1.96085 6.28081 1.84364C6.1636 1.72643 6.00463 1.66058 5.83887 1.66058C5.67311 1.66058 5.51414 1.72643 5.39693 1.84364C5.27972 1.96085 5.21387 2.11982 5.21387 2.28558V2.91058H4.58887C4.09159 2.91058 3.61467 3.10813 3.26304 3.45976C2.91141 3.81139 2.71387 4.2883 2.71387 4.78558V12.2856C2.71387 12.7829 2.91141 13.2598 3.26304 13.6114C3.61467 13.963 4.09159 14.1606 4.58887 14.1606H12.0889C12.5861 14.1606 13.0631 13.963 13.4147 13.6114C13.7663 13.2598 13.9639 12.7829 13.9639 12.2856V4.78558C13.9639 4.2883 13.7663 3.81139 13.4147 3.45976C13.0631 3.10813 12.5861 2.91058 12.0889 2.91058ZM4.58887 4.16058H5.21387V4.78558C5.21387 4.95134 5.27972 5.11031 5.39693 5.22753C5.51414 5.34474 5.67311 5.41058 5.83887 5.41058C6.00463 5.41058 6.1636 5.34474 6.28081 5.22753C6.39802 5.11031 6.46387 4.95134 6.46387 4.78558V4.16058H10.2139V4.78558C10.2139 4.95134 10.2797 5.11031 10.3969 5.22753C10.5141 5.34474 10.6731 5.41058 10.8389 5.41058C11.0046 5.41058 11.1636 5.34474 11.2808 5.22753C11.398 5.11031 11.4639 4.95134 11.4639 4.78558V4.16058H12.0889C12.2546 4.16058 12.4136 4.22643 12.5308 4.34364C12.648 4.46085 12.7139 4.61982 12.7139 4.78558V7.28558H3.96387V4.78558C3.96387 4.61982 4.02972 4.46085 4.14693 4.34364C4.26414 4.22643 4.42311 4.16058 4.58887 4.16058ZM12.0889 12.9106H4.58887C4.42311 12.9106 4.26414 12.8447 4.14693 12.7275C4.02972 12.6103 3.96387 12.4513 3.96387 12.2856V8.53558H12.7139V12.2856C12.7139 12.4513 12.648 12.6103 12.5308 12.7275C12.4136 12.8447 12.2546 12.9106 12.0889 12.9106Z" fill="white"/>
<path id="Vector_2" d="M5.83893 11.0356C6.18411 11.0356 6.46393 10.7558 6.46393 10.4106C6.46393 10.0654 6.18411 9.78558 5.83893 9.78558C5.49375 9.78558 5.21393 10.0654 5.21393 10.4106C5.21393 10.7558 5.49375 11.0356 5.83893 11.0356Z" fill="white"/>
<path id="Vector_3" d="M10.8388 9.78558H8.33881C8.17305 9.78558 8.01407 9.85143 7.89686 9.96864C7.77965 10.0859 7.71381 10.2448 7.71381 10.4106C7.71381 10.5763 7.77965 10.7353 7.89686 10.8525C8.01407 10.9697 8.17305 11.0356 8.33881 11.0356H10.8388C11.0046 11.0356 11.1635 10.9697 11.2807 10.8525C11.398 10.7353 11.4638 10.5763 11.4638 10.4106C11.4638 10.2448 11.398 10.0859 11.2807 9.96864C11.1635 9.85143 11.0046 9.78558 10.8388 9.78558Z" fill="white"/>
</g>
</g>
</svg>
