<svg width="16" height="16" viewBox="0 0 16 16" fill="none" xmlns="http://www.w3.org/2000/svg">
<g id="Frame 1000002804">
<path id="Vector" d="M1.46185 6.29719C0.883534 6.67202 0.417671 7.15395 0.064257 7.74297C0.021419 7.82865 0 7.91432 0 8C0 8.08568 0.021419 8.17135 0.064257 8.25703C0.417671 8.84605 0.883534 9.32798 1.46185 9.70281C1.69746 9.08166 2.0241 8.51406 2.44177 8C2.0241 7.48594 1.69746 6.91834 1.46185 6.29719ZM9.70281 1.46185C9.32798 0.883534 8.84605 0.417671 8.25703 0.0642576C8.17135 0.0214195 8.083 9.53674e-07 7.99197 9.53674e-07C7.90094 9.53674e-07 7.81794 0.0214195 7.74297 0.0642576C7.15395 0.417671 6.67202 0.883534 6.29719 1.46185C6.91834 1.69746 7.48594 2.0241 8 2.44177C8.51406 2.0241 9.08166 1.69746 9.70281 1.46185ZM15.9357 7.74297C15.5823 7.15395 15.1165 6.67202 14.5382 6.29719C14.3025 6.91834 13.9759 7.48594 13.5582 8C13.9759 8.51406 14.3025 9.08166 14.5382 9.70281C15.1165 9.32798 15.5823 8.84605 15.9357 8.25703C15.9786 8.17135 16 8.08568 16 8C16 7.91432 15.9786 7.82865 15.9357 7.74297ZM6.29719 14.5382C6.67202 15.1165 7.15395 15.5823 7.74297 15.9357C7.82865 15.9786 7.917 16 8.00803 16C8.09906 16 8.18206 15.9786 8.25703 15.9357C8.84605 15.5823 9.32798 15.1165 9.70281 14.5382C9.08166 14.3025 8.51406 13.9759 8 13.5582C7.48594 13.9759 6.91834 14.3025 6.29719 14.5382ZM12.0321 8C12.8032 7.35743 13.3414 6.55689 13.6466 5.59839C13.9518 4.63989 13.9813 3.66801 13.7349 2.68273C13.7135 2.57564 13.6627 2.48461 13.5823 2.40964C13.502 2.33467 13.4083 2.28648 13.3012 2.26506C12.3266 2.01874 11.3601 2.04819 10.4016 2.35341C9.44311 2.65864 8.64257 3.19679 8 3.96787C7.35743 3.19679 6.55689 2.65864 5.59839 2.35341C4.63989 2.04819 3.67336 2.01874 2.6988 2.26506C2.5917 2.28648 2.49799 2.33735 2.41767 2.41767C2.33735 2.49799 2.28648 2.5917 2.26506 2.6988C2.01874 3.67336 2.04819 4.63989 2.35341 5.59839C2.65863 6.55689 3.19679 7.35743 3.96787 8C3.19679 8.64257 2.65863 9.44311 2.35341 10.4016C2.04819 11.3601 2.01874 12.332 2.26506 13.3173C2.28648 13.4244 2.33735 13.5154 2.41767 13.5904C2.49799 13.6653 2.5917 13.7135 2.6988 13.7349C3.67336 13.9813 4.63989 13.9518 5.59839 13.6466C6.55689 13.3414 7.35743 12.8032 8 12.0321C8.49264 12.6212 9.09237 13.079 9.7992 13.4056C10.506 13.7323 11.245 13.8956 12.0161 13.8956C12.4552 13.8956 12.8835 13.8474 13.3012 13.751C13.4083 13.7189 13.502 13.6627 13.5823 13.5823C13.6627 13.502 13.7189 13.4083 13.751 13.3012C13.9866 12.3266 13.9518 11.3601 13.6466 10.4016C13.3414 9.44311 12.8032 8.64257 12.0321 8ZM9.70281 9.70281C9.36011 10.0455 8.95047 10.2651 8.4739 10.3614C7.99732 10.4578 7.53414 10.4123 7.08434 10.2249C6.63454 10.0375 6.27309 9.74297 6 9.34137C5.72691 8.93976 5.59036 8.49264 5.59036 8C5.59036 7.50736 5.72691 7.06024 6 6.65864C6.27309 6.25703 6.63454 5.96252 7.08434 5.7751C7.53414 5.58768 7.99732 5.54217 8.4739 5.63855C8.95047 5.73494 9.36011 5.95448 9.70281 6.29719C10.0134 6.60777 10.2222 6.96921 10.3293 7.38153C10.4364 7.79384 10.4364 8.20616 10.3293 8.61847C10.2222 9.03079 10.0134 9.39224 9.70281 9.70281Z" fill="#FF0000"/>
</g>
</svg>
