<svg width="16" height="16" viewBox="0 0 16 16" fill="none" xmlns="http://www.w3.org/2000/svg">
<g id="&#240;&#159;&#166;&#134; icon &#34;people&#34;">
<g id="Group">
<path id="Vector" d="M5.99998 7.33333C6.5274 7.33333 7.04297 7.17694 7.4815 6.88392C7.92003 6.5909 8.26182 6.17443 8.46366 5.68716C8.66549 5.19989 8.7183 4.66371 8.61541 4.14643C8.51251 3.62914 8.25854 3.15399 7.8856 2.78105C7.51266 2.40811 7.0375 2.15413 6.52022 2.05124C6.00294 1.94835 5.46676 2.00116 4.97949 2.20299C4.49222 2.40482 4.07574 2.74662 3.78273 3.18515C3.48971 3.62368 3.33331 4.13925 3.33331 4.66667C3.33331 5.37391 3.61426 6.05219 4.11436 6.55229C4.61446 7.05238 5.29274 7.33333 5.99998 7.33333Z" fill="#EDEFF1"/>
<path id="Vector_2" d="M11.3333 8.66675C11.7289 8.66675 12.1156 8.54945 12.4445 8.32969C12.7734 8.10992 13.0297 7.79757 13.1811 7.43212C13.3324 7.06666 13.3721 6.66453 13.2949 6.27657C13.2177 5.88861 13.0272 5.53224 12.7475 5.25254C12.4678 4.97283 12.1115 4.78235 11.7235 4.70518C11.3355 4.62801 10.9334 4.66761 10.5679 4.81899C10.2025 4.97037 9.89014 5.22671 9.67037 5.55561C9.45061 5.88451 9.33331 6.27119 9.33331 6.66675C9.33331 7.19718 9.54403 7.70589 9.9191 8.08096C10.2942 8.45604 10.8029 8.66675 11.3333 8.66675Z" fill="#EDEFF1"/>
<path id="Vector_3" d="M14 13.3333C14.1768 13.3333 14.3464 13.263 14.4714 13.138C14.5964 13.013 14.6666 12.8434 14.6666 12.6666C14.6661 12.0435 14.491 11.4331 14.1611 10.9045C13.8311 10.376 13.3597 9.95044 12.8002 9.67625C12.2407 9.40205 11.6156 9.29016 10.9957 9.35327C10.3758 9.41637 9.78607 9.65195 9.29331 10.0333C8.64032 9.38284 7.80935 8.94033 6.9052 8.76155C6.00104 8.58277 5.06419 8.67573 4.2128 9.02869C3.3614 9.38166 2.63359 9.97883 2.12114 10.7449C1.60869 11.511 1.33456 12.4116 1.33331 13.3333C1.33331 13.5101 1.40355 13.6796 1.52858 13.8047C1.6536 13.9297 1.82317 13.9999 1.99998 13.9999H9.99998C10.1768 13.9999 10.3464 13.9297 10.4714 13.8047C10.5964 13.6796 10.6666 13.5101 10.6666 13.3333" fill="#EDEFF1"/>
</g>
</g>
</svg>
