<svg xmlns="http://www.w3.org/2000/svg" viewBox="0 0 512 512" id="PriceTag"><path d="M510.56 340.86 353.72 8.6A15 15 0 0 0 340.15 0h-94.53l109.5 54.75A44.77 44.77 0 0 1 380 95v324.08l123.4-58.25a15 15 0 0 0 7.16-19.97Z" fill="#ff6f00" class="color000000 svgShape"></path><circle cx="175" cy="120" r="20" fill="#ff6f00" class="color000000 svgShape"></circle><path d="m341.71 81.58-160-80a15 15 0 0 0-13.42 0l-160 80A15 15 0 0 0 0 95v402a15 15 0 0 0 15 15h320a15 15 0 0 0 15-15V95a15 15 0 0 0-8.29-13.42Zm-153.8 331.23v16.93a7.5 7.5 0 0 1-7.5 7.5h-13.9a7.5 7.5 0 0 1-7.5-7.5v-15.28c-11.63-1.34-23.1-5.24-30.62-10.61a7.51 7.51 0 0 1-2.7-8.64l5.31-14.78a7.5 7.5 0 0 1 11.22-3.71 51.72 51.72 0 0 0 27.6 8.28c11.22 0 18.76-5.68 18.76-14.13 0-6.66-3.45-12.49-20.26-19.3-20.28-8-41.09-19.56-41.09-45.13 0-20.16 12.87-35.92 33.32-41.56v-16.3a7.5 7.5 0 0 1 7.5-7.5h13.68a7.5 7.5 0 0 1 7.5 7.5V263a63.42 63.42 0 0 1 25 8.2 7.48 7.48 0 0 1 3.22 9.12l-5.51 14.57a7.5 7.5 0 0 1-10.74 3.85 46 46 0 0 0-24.08-6.51c-14.75 0-15.89 8.78-15.89 11.47 0 6.1 3.28 10.18 22.73 18.23 18.06 7.36 38.83 19.41 38.83 47.31-.02 20.84-13.79 37.69-34.88 43.57ZM175 170a50 50 0 1 1 50-50 50.06 50.06 0 0 1-50 50Z" fill="#ff6f00" class="color000000 svgShape"></path></svg>