<svg width="107" height="18" viewBox="0 0 107 18" fill="none" xmlns="http://www.w3.org/2000/svg">
<g id=".Payment Methods">
<path id="Vector" d="M46.9574 13.1349C48.4789 13.1349 49.4855 12.3381 49.4855 10.8582C49.4855 9.36687 48.4789 8.57 46.9574 8.57H44.0312V15.5597H45.5177V13.1349H46.9574ZM48.0108 10.8582C48.0108 11.4615 47.6362 11.8941 46.8637 11.8941H45.5177V9.81084H46.8637C47.6362 9.81084 48.0108 10.232 48.0108 10.8582ZM54.5092 15.5597V12.3153C54.5092 11.0972 53.7015 10.3573 52.3087 10.3573C51.1149 10.3573 50.2604 11.0631 50.1083 11.9852H51.4894C51.6065 11.6892 51.8522 11.507 52.2619 11.507C52.8471 11.507 53.1163 11.8599 53.1163 12.2925V12.6682C52.9056 12.5202 52.3789 12.3722 51.9225 12.3722C50.7871 12.3722 49.8976 13.0325 49.8976 14.0001C49.8976 15.0588 50.7871 15.6508 51.8405 15.6508C52.4141 15.6508 52.9408 15.4572 53.1163 15.2865V15.5597H54.5092ZM53.1163 14.1709C52.9876 14.4441 52.5896 14.6148 52.1683 14.6148C51.7118 14.6148 51.2436 14.4327 51.2436 13.9887C51.2436 13.5561 51.7118 13.3626 52.1683 13.3626C52.5896 13.3626 52.9876 13.5334 53.1163 13.8066V14.1709ZM57.7288 17.438L60.4559 10.4711H58.9929L57.799 13.8521L56.5935 10.4711H55.0602L57.0616 15.5825L56.3008 17.438H57.7288ZM68.5232 13.0211C68.5232 11.4501 67.4815 10.3573 65.9599 10.3573C64.4383 10.3573 63.3966 11.4501 63.3966 13.0211C63.3966 14.5807 64.4383 15.6735 65.9599 15.6735C67.4815 15.6735 68.5232 14.5807 68.5232 13.0211ZM67.0835 13.0211C67.0835 13.8635 66.6856 14.4782 65.9599 14.4782C65.2342 14.4782 64.8363 13.8635 64.8363 13.0211C64.8363 12.1673 65.2342 11.5526 65.9599 11.5526C66.6856 11.5526 67.0835 12.1673 67.0835 13.0211ZM72.1929 15.5597L74.1826 10.4711H72.7196L71.5374 13.8521L70.3319 10.4711H68.8103L70.7884 15.5597H72.1929ZM77.9949 13.8976C77.8778 14.3302 77.515 14.5351 77.0234 14.5351C76.3796 14.5351 75.9349 14.0798 75.8881 13.3171H79.376V12.8845C79.376 11.3932 78.5333 10.3573 77 10.3573C75.5369 10.3573 74.4835 11.4843 74.4835 13.0211C74.4835 14.5921 75.5018 15.6735 77.0234 15.6735C78.3343 15.6735 79.1536 14.9791 79.3409 13.8976H77.9949ZM77.0117 11.507C77.6086 11.507 77.9363 11.9282 77.948 12.4633H75.9232C76.0519 11.8372 76.4499 11.507 77.0117 11.507ZM83.4698 10.4483C83.3879 10.4028 83.1655 10.3573 82.9197 10.3573C82.4047 10.3573 81.9716 10.6077 81.7492 10.972V10.4711H80.2979V15.5597H81.7492V12.4064C81.8546 11.9396 82.2525 11.6892 82.7441 11.6892C83.0133 11.6892 83.2708 11.7461 83.4698 11.8599V10.4483ZM87.1973 14.0229C87.1973 15.1499 87.8645 15.6621 88.9296 15.6621C89.3158 15.6621 89.667 15.6052 89.8659 15.5028V14.2505C89.7021 14.353 89.4563 14.4213 89.2339 14.4213C88.8594 14.4213 88.637 14.2392 88.637 13.8407V11.6095H89.784V10.4711H88.637V9.09366H87.1973V10.4711H86.4014V11.6095H87.1973V14.0229ZM92.3679 10.4711H90.9166V15.5597H92.3679V10.4711ZM92.4967 9.00259C92.4967 8.53585 92.0987 8.19434 91.6423 8.19434C91.1741 8.19434 90.7761 8.53585 90.7761 9.00259C90.7761 9.48071 91.1741 9.81084 91.6423 9.81084C92.0987 9.81084 92.4967 9.48071 92.4967 9.00259ZM97.8153 11.0061C97.5227 10.6305 97.0311 10.3573 96.4108 10.3573C95.8256 10.3573 95.3457 10.5736 95.0882 10.8923V10.4711H93.6369V15.5597H95.0882V12.2811C95.1818 11.8486 95.533 11.6209 95.9075 11.6209C96.4108 11.6209 96.6449 11.9852 96.6449 12.5316V15.5597H98.108V12.2811C98.2016 11.8486 98.541 11.6209 98.9156 11.6209C99.4189 11.6209 99.6647 11.9852 99.6647 12.5316V15.5597H101.116V12.2356C101.116 11.0858 100.472 10.3573 99.3954 10.3573C98.6581 10.3573 98.1548 10.6419 97.8153 11.0061ZM105.507 13.8976C105.39 14.3302 105.027 14.5351 104.536 14.5351C103.892 14.5351 103.447 14.0798 103.4 13.3171H106.888V12.8845C106.888 11.3932 106.046 10.3573 104.512 10.3573C103.049 10.3573 101.996 11.4843 101.996 13.0211C101.996 14.5921 103.014 15.6735 104.536 15.6735C105.847 15.6735 106.666 14.9791 106.853 13.8976H105.507ZM104.524 11.507C105.121 11.507 105.449 11.9282 105.46 12.4633H103.436C103.564 11.8372 103.962 11.507 104.524 11.507Z" fill="#202223"/>
<path id="Vector_2" fill-rule="evenodd" clip-rule="evenodd" d="M3.01049 14.3154C2.55396 14.3154 2.32527 14.0892 2.32527 13.7178C2.32527 13.0295 3.09427 12.7934 4.49775 12.6444C4.49775 13.5665 3.87602 14.3154 3.01049 14.3154ZM3.61562 9.13C2.61273 9.13 1.45895 9.6035 0.832649 10.1043L1.40466 11.3108C1.90721 10.8502 2.71917 10.456 3.45183 10.456C4.14838 10.456 4.53245 10.6898 4.53245 11.1595C4.53245 11.4757 4.27811 11.6361 3.79672 11.6989C1.99697 11.9326 0.585938 12.4303 0.585938 13.8207C0.585938 14.9228 1.36918 15.5893 2.59165 15.5893C3.46394 15.5893 4.24113 15.1028 4.61017 14.4614V15.4099H6.23708V11.4363C6.23708 9.79569 5.09911 9.13 3.61562 9.13Z" fill="#060809"/>
<path id="Vector_3" fill-rule="evenodd" clip-rule="evenodd" d="M19.9453 9.30926V15.4099H21.6861V12.4704C21.6861 11.0733 22.5298 10.6633 23.1183 10.6633C23.3477 10.6633 23.6579 10.7299 23.8624 10.8834L24.1794 9.2707C23.9107 9.15571 23.6292 9.13 23.3991 9.13C22.5042 9.13 21.942 9.52716 21.5707 10.3342V9.30926H19.9453Z" fill="#060809"/>
<path id="Vector_4" fill-rule="evenodd" clip-rule="evenodd" d="M32.2519 9.1297C31.3313 9.1297 30.6431 9.67582 30.2855 10.2008C29.9527 9.52228 29.2486 9.1297 28.4042 9.1297C27.4836 9.1297 26.8467 9.64254 26.5525 10.2318V9.30895H24.875V15.4104H26.6166V12.2697C26.6166 11.1418 27.2059 10.601 27.7553 10.601C28.2526 10.601 28.7106 10.924 28.7106 11.7576V15.4104H30.4492V12.2697C30.4492 11.1297 31.025 10.601 31.5999 10.601C32.0603 10.601 32.5455 10.9376 32.5455 11.7447V15.4104H34.2848V11.194C34.2848 9.82188 33.3642 9.1297 32.2519 9.1297Z" fill="#060809"/>
<path id="Vector_5" fill-rule="evenodd" clip-rule="evenodd" d="M15.7058 9.3091H14.1287V8.68884C14.1287 7.88168 14.589 7.65101 14.9844 7.65101C15.4228 7.65101 15.7638 7.8454 15.7638 7.8454L16.3011 6.61467C16.3011 6.61467 15.7571 6.25916 14.767 6.25916C13.6555 6.25916 12.3893 6.88698 12.3893 8.86052V9.3091H9.7497V8.68884C9.7497 7.88168 10.2093 7.65101 10.6054 7.65101C10.831 7.65101 11.1337 7.70321 11.3849 7.8454L11.9214 6.61467C11.6015 6.42705 11.0861 6.25916 10.3881 6.25916C9.27586 6.25916 8.01037 6.88698 8.01037 8.86052V9.3091H7V10.6548H8.01037V15.4098H9.7497V10.6548H12.3893V15.4098H14.1287V10.6548H15.7058V9.3091Z" fill="#060809"/>
<path id="Vector_6" fill-rule="evenodd" clip-rule="evenodd" d="M16.75 15.4098H18.4878V9.30914H16.75V15.4098Z" fill="#060809"/>
<path id="Vector_7" fill-rule="evenodd" clip-rule="evenodd" d="M26.8863 0.799377C22.1874 0.799377 18.001 4.0687 16.8125 8.27225H18.5149C19.5079 5.14211 22.8779 2.39395 26.8863 2.39395C31.7595 2.39395 35.9709 6.11259 35.9709 11.9032C35.9709 13.202 35.8026 14.3744 35.485 15.41H37.1367L37.1526 15.3525C37.4243 14.2844 37.5616 13.124 37.5616 11.9032C37.5616 5.44691 32.8688 0.799377 26.8863 0.799377Z" fill="#0FA0EA"/>
</g>
</svg>
