<svg width="60" height="36" viewBox="0 0 60 36" fill="none" xmlns="http://www.w3.org/2000/svg">
<g id="Group 1000003106">
<rect id="Rectangle" width="60" height="36" rx="4" fill="white"/>
<path id="EXPRESS" fill-rule="evenodd" clip-rule="evenodd" d="M50.6452 20.7993H48.5254C48.3138 20.7993 48.1732 20.8072 48.0547 20.887C47.932 20.9655 47.8848 21.0822 47.8848 21.2361C47.8848 21.4192 47.9884 21.5437 48.1391 21.5975C48.2618 21.6401 48.3936 21.6526 48.5874 21.6526L49.2177 21.6694C49.8539 21.6851 50.2785 21.7941 50.5374 22.06C50.5845 22.097 50.6128 22.1385 50.6452 22.1801V20.7993ZM50.6447 23.9985C50.3622 24.4104 49.8116 24.6192 49.0663 24.6192H46.8201V23.5787H49.0572C49.2791 23.5787 49.4344 23.5495 49.5279 23.4585C49.6089 23.3835 49.6654 23.2744 49.6654 23.142C49.6654 23.0007 49.6089 22.8884 49.5234 22.8211C49.439 22.7471 49.3161 22.7134 49.1136 22.7134C48.0215 22.6764 46.659 22.7471 46.659 21.2115C46.659 20.5076 47.1072 19.7668 48.3278 19.7668H50.6446V18.8013H48.492C47.8424 18.8013 47.3705 18.9564 47.0363 19.1975V18.8013H43.8524C43.3432 18.8013 42.7456 18.9271 42.4629 19.1975V18.8013H36.7773V19.1975C36.3248 18.8721 35.5613 18.8013 35.2089 18.8013H31.4585V19.1975C31.1006 18.8519 30.3045 18.8013 29.8193 18.8013H25.622L24.6615 19.8376L23.762 18.8013H17.4922V25.5723H23.644L24.6337 24.5196L25.566 25.5723L29.358 25.5756V23.9828H29.7308C30.2339 23.9906 30.8273 23.9704 31.3508 23.7447V25.5721H34.4785V23.8074H34.6294C34.822 23.8074 34.8409 23.8153 34.8409 24.0071V25.572H44.3423C44.9456 25.572 45.5761 25.418 45.9253 25.1387V25.572H48.9391C49.5662 25.572 50.1787 25.4843 50.6447 25.2599V23.9985ZM46.005 22.0602C46.2315 22.2939 46.3529 22.5889 46.3529 23.0883C46.3529 24.1323 45.6987 24.6196 44.5257 24.6196H42.2603V23.579H44.5166C44.7372 23.579 44.8937 23.5499 44.9917 23.4589C45.0717 23.3838 45.1291 23.2748 45.1291 23.1423C45.1291 23.001 45.067 22.8888 44.9872 22.8214C44.8982 22.7474 44.7755 22.7137 44.573 22.7137C43.4852 22.6767 42.123 22.7474 42.123 21.2118C42.123 20.508 42.5666 19.7671 43.786 19.7671H46.1177V20.7999H43.9841C43.7726 20.7999 43.6351 20.8078 43.5181 20.8875C43.3907 20.9661 43.3435 21.0827 43.3435 21.2367C43.3435 21.4197 43.4516 21.5443 43.598 21.5981C43.7207 21.6407 43.8525 21.6531 44.0506 21.6531L44.6767 21.67C45.3081 21.6853 45.7416 21.7942 46.005 22.0602ZM35.5088 21.7604C35.3532 21.8525 35.1608 21.8604 34.9345 21.8604H33.5215V20.7705H34.9537C35.1608 20.7705 35.368 20.7749 35.5088 20.8582C35.6595 20.9367 35.7496 21.087 35.7496 21.2947C35.7496 21.5023 35.6595 21.6696 35.5088 21.7604ZM36.2119 22.3641C36.4708 22.4594 36.6824 22.6301 36.7816 22.7715C36.9459 23.0084 36.9696 23.2295 36.9743 23.6572V24.6192H35.8066V24.0121C35.8066 23.7202 35.8348 23.2879 35.6186 23.0623C35.4486 22.8884 35.1896 22.8469 34.7653 22.8469H33.5223V24.6192H32.3535V19.7666H35.0389C35.6277 19.7666 36.0566 19.7925 36.4383 19.9956C36.8054 20.2167 37.0363 20.5196 37.0363 21.0732C37.0361 21.8477 36.518 22.2429 36.2119 22.3641ZM37.6816 19.7666H41.5636V20.7701H38.84V21.6524H41.4971V22.6424H38.84V23.6079L41.5636 23.6123V24.6192H37.6816V19.7666ZM29.8332 22.0063H28.3301V20.7705H29.8467C30.2666 20.7705 30.5581 20.9411 30.5581 21.3655C30.5581 21.7852 30.2801 22.0063 29.8332 22.0063ZM27.1725 24.1781L25.3867 22.2015L27.1725 20.2876V24.1781ZM22.5609 23.6078H19.7012V22.6423H22.2547V21.6522H19.7012V20.77H22.6172L23.8895 22.1842L22.5609 23.6078ZM31.8082 21.3653C31.8082 22.7133 30.7994 22.9916 29.7827 22.9916H28.3315V24.6192H26.0707L24.6385 23.0128L23.1501 24.6192H18.543V19.7666H23.221L24.652 21.3572L26.1315 19.7666H29.8481C30.7711 19.7666 31.8082 20.0214 31.8082 21.3653Z" fill="#0072CE"/>
<path id="AMERICAN" fill-rule="evenodd" clip-rule="evenodd" d="M12.9958 14.1748L12.1997 12.2407L11.4082 14.1748H12.9958ZM30.5332 13.4044C30.3734 13.5011 30.1844 13.5043 29.9579 13.5043H28.5449V12.4268H29.9771C30.1798 12.4268 30.3913 12.4358 30.5287 12.5143C30.6796 12.5849 30.7729 12.7354 30.7729 12.9432C30.7729 13.1552 30.6841 13.3258 30.5332 13.4044ZM40.6132 14.1748L39.8083 12.2407L39.0078 14.1748H40.6132ZM21.8239 16.2679H20.6315L20.6271 12.4683L18.9405 16.2679H17.9193L16.2284 12.465V16.2679H13.8627L13.4158 15.1858H10.994L10.5426 16.2679H9.2793L11.3621 11.4165H13.0902L15.0684 16.0098V11.4165H16.9668L18.4889 14.7076L19.8872 11.4165H21.8237V16.2679H21.8239ZM26.5769 16.2679H22.6914V11.4165H26.5769V12.4268H23.8546V13.3012H26.5116V14.2957H23.8546V15.2646H26.5769V16.2679ZM32.055 12.7231C32.055 13.4966 31.5372 13.8962 31.2354 14.0162C31.4899 14.1128 31.7073 14.2834 31.8108 14.4248C31.975 14.6661 32.0033 14.8816 32.0033 15.3149V16.2679H30.8302L30.8258 15.6561C30.8258 15.3642 30.8538 14.9444 30.6422 14.711C30.4722 14.5404 30.2132 14.5033 29.7944 14.5033H28.5458V16.2679H27.3828V11.4165H30.058C30.6524 11.4165 31.0904 11.4322 31.4664 11.6489C31.8344 11.8656 32.055 12.182 32.055 12.7231ZM33.9153 16.2679H32.7285V11.4165H33.9153V16.2679ZM47.6849 16.2679H46.0367L43.832 12.6267V16.2679H41.4633L41.0106 15.1858H38.5945L38.1553 16.2679H36.7943C36.2289 16.2679 35.5131 16.1433 35.1078 15.7313C34.699 15.3194 34.4863 14.7615 34.4863 13.8792C34.4863 13.1597 34.6134 12.502 35.1133 11.9822C35.4894 11.595 36.0782 11.4165 36.8797 11.4165H38.0058V12.456H36.9034C36.4789 12.456 36.2392 12.519 36.0084 12.7434C35.8101 12.9477 35.674 13.3339 35.674 13.8424C35.674 14.3621 35.7776 14.7369 35.9938 14.9817C36.1729 15.1737 36.4983 15.2319 36.8044 15.2319H37.3268L38.9661 11.4167H40.7089L42.6781 16.0054V11.4167H44.4491L46.4936 14.7954V11.4167H47.6849V16.2679ZM9.26577 17.2209H11.2531L11.7012 16.1433H12.7043L13.1513 17.2209H17.0614V16.3971L17.4104 17.2244H19.4403L19.7893 16.3848V17.2209H29.5068L29.5022 15.4521H29.6902C29.8219 15.4566 29.8603 15.4687 29.8603 15.6855V17.2209H34.8862V16.8091C35.2916 17.0257 35.9222 17.2209 36.7519 17.2209H38.8663L39.3188 16.1433H40.3219L40.7645 17.2209H44.839V16.1973L45.456 17.2209H48.7211V10.4546H45.4898V11.2537L45.0373 10.4546H41.7216V11.2537L41.306 10.4546H36.8273C36.0776 10.4546 35.4186 10.5589 34.8862 10.8497V10.4546H31.7955V10.8497C31.4568 10.55 30.9952 10.4546 30.4819 10.4546H19.1903L18.4327 12.2022L17.6547 10.4546H14.0981V11.2537L13.7074 10.4546H10.6742L9.26562 13.6717V17.2209H9.26577Z" fill="#0072CE"/>
</g>
</svg>
