<svg width="140" height="36" viewBox="0 0 140 36" fill="none" xmlns="http://www.w3.org/2000/svg">
<g id="Group 1000003118">
<g id="Group 1000003117">
<rect id="Rectangle" x="80" width="60" height="36" rx="4" fill="white"/>
<path id="path3005" fill-rule="evenodd" clip-rule="evenodd" d="M117.686 14.8768C118.484 14.8768 119.131 14.2303 119.131 13.4328C119.131 12.6352 118.484 11.9881 117.686 11.9881C116.889 11.9881 116.242 12.6352 116.242 13.4328C116.242 14.2303 116.889 14.8768 117.686 14.8768ZM106.619 15.6561C106.554 15.8201 106.085 17.1456 104.95 18.5194V12.6453L101.926 13.2429V23.8908H104.95V20.5995C105.826 21.9128 106.258 23.8908 106.258 23.8908H109.88C109.522 22.4013 107.955 19.6547 107.955 19.6547C109.361 17.8715 109.979 15.9713 110.077 15.6561H106.619ZM114.568 15.5452C111.86 15.6323 110.484 16.8474 110.484 19.2631V23.8909H113.44V20.1169C113.44 18.6707 113.629 18.0504 115.345 17.9914V15.5877C115.056 15.5262 114.568 15.5452 114.568 15.5452ZM96.8538 16.8291C96.4833 16.805 95.6258 16.7495 95.6258 15.9774C95.6258 15.0458 96.8604 15.0458 97.3235 15.0458C98.1376 15.0458 99.1921 15.2861 99.9452 15.5116C99.9452 15.5116 100.365 15.6597 100.723 15.8113L100.756 15.8204V15.7866V13.269L100.711 13.2556C99.8217 12.9447 98.7882 12.6456 96.8723 12.6456C93.5688 12.6456 92.3984 14.57 92.3984 16.2185C92.3984 17.1688 92.8056 19.4057 96.5891 19.6637C96.9097 19.6833 97.7608 19.7324 97.7608 20.5301C97.7608 21.1889 97.064 21.5771 95.8921 21.5771C94.6079 21.5771 93.3615 21.2498 92.6049 20.9391V23.5667C93.738 23.8635 95.0148 24.012 96.5118 24.012C99.7418 24.012 101.188 22.1912 101.188 20.3867C101.188 18.3407 99.5696 17.011 96.8538 16.8291ZM116.221 23.8909H119.152V15.6657H116.221V23.8909ZM124.67 13.1695V23.8909H127.602V12.6454L124.67 13.1695ZM120.393 13.1695L123.321 12.6454V23.8909H120.393V13.1695Z" fill="#862165"/>
</g>
<g id="Group 1000003116">
<rect id="Rectangle_2" width="60" height="36" rx="4" fill="white"/>
<g id="Group 1000003119">
<path id="Fill 1" fill-rule="evenodd" clip-rule="evenodd" d="M52.402 13.8474H50.0752L48.7218 19.5991H48.7242L48.5382 20.3902C48.4083 20.4271 48.2791 20.4602 48.1508 20.4861C47.9099 20.5348 47.661 20.5592 47.404 20.5592C47.1041 20.5592 46.8685 20.516 46.6973 20.4293C46.5259 20.3429 46.4056 20.2213 46.336 20.0643C46.2662 19.9077 46.2396 19.7211 46.2557 19.5046C46.2718 19.2884 46.3119 19.056 46.3762 18.807L47.0827 15.8221L47.5485 13.8429L47.5486 13.8423H45.1716L44.0956 18.434C43.9672 18.9856 43.8921 19.5102 43.8708 20.0076C43.8492 20.5051 43.9242 20.946 44.0956 21.3297C44.2668 21.7137 44.5558 22.0167 44.9629 22.2383C45.3696 22.4597 45.9425 22.5708 46.6812 22.5708C47.1952 22.5708 47.6394 22.5275 48.0143 22.4409C48.0295 22.4375 48.044 22.4338 48.0588 22.43L48.0577 22.4344C47.9536 22.9081 47.7426 23.2922 47.4041 23.5921C47.0652 23.8922 46.5624 24.0423 45.8956 24.0423C45.611 24.0423 45.3523 24.0252 45.118 23.9924L44.66 25.9387C44.9698 25.9793 45.3131 26.0002 45.6924 26.0002C46.4009 26.0002 47.0212 25.9184 47.5527 25.7553C48.0841 25.5921 48.5399 25.3448 48.9203 25.0132C49.3006 24.6816 49.6184 24.2656 49.8739 23.766C50.1291 23.2658 50.3349 22.674 50.4913 21.9896L52.1013 15.1526C52.0993 15.1516 52.0974 15.1509 52.0955 15.1501L52.402 13.8474Z" fill="#002855"/>
<path id="Fill 2" fill-rule="evenodd" clip-rule="evenodd" d="M40.9875 15.8243C39.9025 15.8243 39.6954 15.8243 39.2508 16.0572C38.9352 16.2225 38.674 16.4709 38.4446 16.7608C38.2149 17.0507 38.035 17.3853 37.9047 17.7646C37.774 18.1443 37.7089 18.5394 37.7089 18.9505C37.7089 19.4564 37.7924 19.8572 37.9595 20.1522C38.1262 20.4474 38.4341 20.5948 38.8829 20.5948C39.1228 20.5948 39.3393 20.5474 39.5325 20.4525C39.7254 20.3577 39.9316 20.1995 40.1507 19.9782C40.1716 19.7149 40.2055 19.4382 40.2525 19.1482C40.2994 18.8584 40.3589 18.5898 40.4113 18.3471L40.9875 15.8243ZM42.6377 18.7605C42.4914 19.3615 42.4497 19.9648 42.5124 20.5709C42.5751 21.1772 42.8046 22.106 43.0284 22.571H40.7767C40.5016 22.101 40.5141 21.8807 40.462 21.733C40.1697 21.9756 39.8462 22.1757 39.4916 22.3338C39.1367 22.4919 38.7402 22.571 38.3019 22.571C37.7801 22.571 37.334 22.4786 36.9637 22.2943C36.5931 22.11 36.2906 21.8622 36.0559 21.5512C35.821 21.2405 35.6513 20.8767 35.5472 20.4603C35.4427 20.044 35.3906 19.5986 35.3906 19.1242C35.3906 18.3969 35.5182 17.7118 35.7741 17.0689C36.0297 16.426 36.3846 15.8646 36.8385 15.3849C37.2923 14.9053 38.3878 13.8478 40.1855 13.8478C40.9623 13.8478 42.0065 13.8476 43.7954 13.8476L42.6377 18.7605Z" fill="#002855"/>
<path id="Fill 3" fill-rule="evenodd" clip-rule="evenodd" d="M29.0312 20.5644C29.2099 20.607 29.4304 20.6282 29.6932 20.6282C30.1028 20.6282 30.4756 20.5513 30.812 20.3974C31.148 20.2436 31.4344 20.0288 31.6707 19.7527C31.9071 19.4768 32.0907 19.1454 32.2222 18.7579C32.3534 18.3706 32.4192 17.9436 32.4192 17.4766C32.4192 17.0205 32.3193 16.6329 32.1198 16.3147C31.9201 15.9963 31.5701 15.8271 31.0764 15.825C30.7313 15.8237 30.158 15.8237 30.158 15.8237L29.0312 20.5644ZM34.7492 17.3017C34.7492 18.0765 34.6231 18.7848 34.371 19.4266C34.119 20.0688 33.7696 20.6232 33.3232 21.0899C32.8765 21.5571 32.3407 21.9204 31.7159 22.1804C31.0908 22.4402 30.4105 22.5703 29.6752 22.5703C29.318 22.5703 28.9607 22.5385 28.6037 22.4747L27.8946 25.3557H25.5625L28.2696 13.8477C28.6634 13.8475 30.7468 13.8477 31.3771 13.8477C31.9653 13.8477 32.4722 13.938 32.8977 14.1183C33.3232 14.2989 33.6723 14.5455 33.9456 14.8584C34.2185 15.1716 34.4207 15.5377 34.5522 15.9567C34.6834 16.3761 34.7492 16.8242 34.7492 17.3017Z" fill="#002855"/>
<path id="Fill 4" fill-rule="evenodd" clip-rule="evenodd" d="M24.1306 20.5609C23.8307 20.5609 23.5951 20.5178 23.424 20.4311C23.2525 20.3447 23.1321 20.223 23.0626 20.0661C22.9928 19.9095 22.9663 19.7228 22.9823 19.5064C22.9984 19.2902 23.0385 19.0578 23.1028 18.8089L23.8094 15.8239H26.4593L26.9411 13.8447H24.2751L24.8854 11.3301L22.3961 11.7195L20.8222 18.4357C20.6937 18.9872 20.6187 19.512 20.5974 20.0093C20.5757 20.5069 20.6508 20.9477 20.8222 21.3315C20.9933 21.7155 21.2824 22.0184 21.6895 22.2399C22.0962 22.4615 22.6691 22.5725 23.4079 22.5725C23.9218 22.5725 24.366 22.5292 24.7409 22.4427C24.7796 22.4338 24.8384 22.4194 24.8765 22.4101L25.3611 20.3625C25.1984 20.4186 25.0349 20.4561 24.8773 20.4879C24.6365 20.5366 24.3875 20.5609 24.1306 20.5609Z" fill="#002855"/>
<path id="Fill 5" fill-rule="evenodd" clip-rule="evenodd" d="M18.1948 13.8423L16.1406 22.5723H18.4675L20.5217 13.8423H18.1948Z" fill="#002855"/>
<path id="Fill 6" fill-rule="evenodd" clip-rule="evenodd" d="M20.7644 12.8329L21.1213 11.3164H18.7944L18.4375 12.8329H20.7644Z" fill="#002855"/>
<path id="Fill 7" fill-rule="evenodd" clip-rule="evenodd" d="M11.0024 20.6236C11.3679 20.6236 11.7127 20.5341 12.0366 20.3546C12.3603 20.1752 12.64 19.935 12.8751 19.6343C13.1101 19.3335 13.2954 18.9932 13.4313 18.6133C13.567 18.2335 13.635 17.8377 13.635 17.426C13.635 16.9195 13.5513 16.5238 13.3843 16.239C13.2171 15.9539 12.8697 15.8237 12.4207 15.8237C12.2743 15.8237 12.1229 15.8379 11.8878 15.8907C11.6527 15.9436 11.45 16.0532 11.262 16.2219L10.2402 20.5641C10.5424 20.6175 10.6471 20.6236 10.7203 20.6236C10.7933 20.6236 10.8874 20.6236 11.0024 20.6236ZM13.0393 13.8486C13.5408 13.8486 13.9741 13.9384 14.34 14.1178C14.7055 14.2972 15.0084 14.5398 15.2489 14.8458C15.489 15.152 15.6666 15.5106 15.7816 15.9223C15.8964 16.3338 15.9541 16.7771 15.9541 17.2519C15.9541 17.98 15.8209 18.6686 15.5545 19.3176C15.288 19.9666 14.925 20.5312 14.4654 21.0114C14.0055 21.4917 13.4624 21.8716 12.8356 22.151C12.2088 22.4305 11.5296 22.5706 10.7984 22.5706C10.7045 22.5706 10.5399 22.5678 10.3049 22.5627C10.0698 22.5572 9.8006 22.5335 9.4977 22.4914C9.19468 22.4491 8.87343 22.3858 8.53407 22.3014C8.19435 22.2171 7.87322 22.1011 7.57031 21.9532L10.2813 10.4453L12.7103 10.0654L11.7506 14.144C11.9594 14.049 12.1564 13.9808 12.3655 13.9278C12.5743 13.8751 12.7989 13.8486 13.0393 13.8486Z" fill="#002855"/>
</g>
</g>
</g>
</svg>
