<svg width="60" height="36" viewBox="0 0 60 36" fill="none" xmlns="http://www.w3.org/2000/svg">
<g id="Group 1000003104">
<rect id="Rectangle" width="60" height="36" rx="4" fill="white"/>
<g id="Group 1000002741">
<path id="Fill 333" fill-rule="evenodd" clip-rule="evenodd" d="M33.6759 18.2912C33.6759 24.7581 28.4339 29.9999 21.9671 29.9999C15.5002 29.9999 10.2578 24.7581 10.2578 18.2912C10.2578 11.8244 15.5002 6.58203 21.9671 6.58203C28.4339 6.58203 33.6759 11.8244 33.6759 18.2912Z" fill="#CC0000"/>
<path id="Fill 334" fill-rule="evenodd" clip-rule="evenodd" d="M37.6884 6.58203C34.6622 6.58203 31.9059 7.72983 29.8275 9.6128C29.4047 9.99657 29.01 10.4111 28.6457 10.8524H31.0114C31.3345 11.2458 31.6322 11.6593 31.904 12.0925H27.7529C27.5045 12.4905 27.2788 12.9041 27.0782 13.3327H32.5783C32.7663 13.734 32.9317 14.1474 33.0742 14.5722H26.5823C26.4472 14.976 26.3332 15.3897 26.2422 15.8116H33.414C33.5857 16.611 33.6771 17.4403 33.6771 18.2912C33.6771 19.5911 33.4652 20.8423 33.0742 22.0108H26.5823C26.7248 22.4353 26.8902 22.8492 27.0778 23.2511H32.5783C32.3774 23.6786 32.1527 24.0925 31.9029 24.4911H27.7529C28.0236 24.923 28.3218 25.3371 28.6457 25.7299H31.0107C30.6471 26.1716 30.252 26.5861 29.8279 26.9699C31.9061 28.8529 34.6622 29.9999 37.6884 29.9999C44.155 29.9999 49.3971 24.7581 49.3971 18.2912C49.3971 11.8249 44.155 6.58203 37.6884 6.58203Z" fill="#FF9900"/>
<path id="Fill 336" fill-rule="evenodd" clip-rule="evenodd" d="M19.2301 19.5732C19.0967 19.558 19.0378 19.5532 18.9462 19.5532C18.2257 19.5532 17.8613 19.8004 17.8613 20.2888C17.8613 20.5894 18.0392 20.7806 18.3167 20.7806C18.8346 20.7806 19.2079 20.2876 19.2301 19.5732ZM20.1556 21.7251C19.9861 21.7251 19.102 21.7251 19.102 21.7251L19.1262 21.2245C18.805 21.6198 18.3763 21.8085 17.7939 21.8085C17.1052 21.8085 16.6328 21.2708 16.6328 20.4894C16.6328 19.3131 17.4542 18.6271 18.8644 18.6271C19.0089 18.6271 19.1936 18.6405 19.3827 18.6643C19.4219 18.5048 19.4323 18.4371 19.4323 18.3511C19.4323 18.0313 19.211 17.9114 18.6172 17.9114C17.9953 17.9051 17.4823 18.06 17.2716 18.1292C17.2849 18.0489 17.4479 17.0428 17.4479 17.0428C18.0811 16.8567 18.4989 16.7871 18.9691 16.7871C20.0609 16.7871 20.6391 17.2771 20.6378 18.2034C20.64 18.4519 20.5988 18.7574 20.5349 19.1604C20.4246 19.8599 20.1878 21.36 20.1556 21.7251Z" fill="#000066"/>
<path id="Fill 337" fill-rule="evenodd" clip-rule="evenodd" d="M16.1053 21.7254H14.8339L15.5626 17.1601L13.9363 21.7254H13.0701L12.9629 17.1856L12.1976 21.7254H11.0078L12.0017 15.7861H13.8297L13.9401 19.1106L15.0554 15.7861H17.0884L16.1053 21.7254Z" fill="#000066"/>
<path id="Fill 338" fill-rule="evenodd" clip-rule="evenodd" d="M39.2528 19.5732C39.1194 19.558 39.0612 19.5532 38.9698 19.5532C38.2487 19.5532 37.8848 19.8004 37.8848 20.2888C37.8848 20.5894 38.0618 20.7806 38.3401 20.7806C38.8577 20.7806 39.2311 20.2876 39.2528 19.5732ZM40.1789 21.7251C40.009 21.7251 39.1256 21.7251 39.1256 21.7251L39.1495 21.2245C38.8282 21.6198 38.3997 21.8085 37.8177 21.8085C37.1281 21.8085 36.6562 21.2708 36.6562 20.4894C36.6562 19.3131 37.478 18.6271 38.8878 18.6271C39.0322 18.6271 39.2165 18.6405 39.4058 18.6643C39.4452 18.5048 39.4553 18.4371 39.4553 18.3511C39.4553 18.0313 39.234 17.9114 38.6402 17.9114C38.0183 17.9051 37.5056 18.06 37.2941 18.1292C37.3081 18.0489 37.4715 17.0428 37.4715 17.0428C38.1044 16.8567 38.5226 16.7871 38.992 16.7871C40.0845 16.7871 40.662 17.2771 40.6609 18.2034C40.6631 18.4519 40.6222 18.7574 40.558 19.1604C40.4481 19.8599 40.2107 21.36 40.1789 21.7251Z" fill="#000066"/>
<path id="Fill 339" fill-rule="evenodd" clip-rule="evenodd" d="M25.8089 21.6518C25.4609 21.7613 25.1898 21.8087 24.8956 21.8087C24.2459 21.8087 23.8912 21.4353 23.8912 20.7475C23.8821 20.534 23.9846 19.9724 24.0653 19.4602C24.139 19.0089 24.6167 16.1641 24.6167 16.1641H25.88L25.7325 16.8952H26.4958L26.3235 18.0561H25.5577C25.4109 18.9744 25.2016 20.1187 25.1992 20.2705C25.1992 20.5195 25.3321 20.6283 25.6346 20.6283C25.7795 20.6283 25.8917 20.6135 25.9773 20.5828L25.8089 21.6518Z" fill="#000066"/>
<path id="Fill 340" fill-rule="evenodd" clip-rule="evenodd" d="M29.6828 21.6126C29.2487 21.7452 28.8303 21.81 28.3864 21.8085C26.9718 21.8067 26.2344 21.0684 26.2344 19.6537C26.2344 18.0028 27.1723 16.7871 28.446 16.7871C29.4876 16.7871 30.1531 17.4677 30.1531 18.5346C30.1531 18.8893 30.1076 19.235 29.9972 19.7228H27.481C27.3961 20.4235 27.8442 20.7153 28.5798 20.7153C29.0314 20.7153 29.4396 20.6221 29.8932 20.4117L29.6828 21.6126ZM28.9733 18.749C28.9805 18.6482 29.1071 17.8867 28.3849 17.8867C27.983 17.8867 27.6949 18.1935 27.5781 18.749H28.9733Z" fill="#000066"/>
<path id="Fill 341" fill-rule="evenodd" clip-rule="evenodd" d="M20.9188 18.4221C20.9188 19.0326 21.2149 19.4539 21.8865 19.7705C22.4011 20.0127 22.4813 20.0843 22.4813 20.3036C22.4813 20.6043 22.254 20.7409 21.7513 20.7409C21.3718 20.7409 21.0191 20.6813 20.6122 20.5497C20.6122 20.5497 20.4455 21.6148 20.4375 21.6657C20.7263 21.7282 20.9839 21.7865 21.7603 21.8085C23.1015 21.8085 23.721 21.2978 23.721 20.1941C23.721 19.5305 23.462 19.141 22.8251 18.8479C22.2923 18.6035 22.2307 18.5487 22.2307 18.3233C22.2307 18.0622 22.4422 17.9288 22.8528 17.9288C23.1024 17.9288 23.4431 17.9555 23.7664 18.0012L23.9471 16.8809C23.6181 16.8286 23.1189 16.7871 22.8284 16.7871C21.4066 16.7871 20.9142 17.5297 20.9188 18.4221Z" fill="#000066"/>
<path id="Fill 342" fill-rule="evenodd" clip-rule="evenodd" d="M35.8609 16.9149C36.214 16.9149 36.5437 17.0067 36.9969 17.2356L37.2051 15.9466C37.0182 15.8733 36.363 15.4438 35.8078 15.4438C34.9574 15.4438 34.2376 15.8665 33.7322 16.5624C32.9943 16.3182 32.6907 16.8118 32.3191 17.3041L31.9888 17.381C32.0138 17.2191 32.0365 17.0583 32.0293 16.8953H30.8614C30.7022 18.3906 30.4197 19.9046 30.1985 21.4005L30.1406 21.7254H31.4124C31.6246 20.3461 31.7407 19.4633 31.8113 18.8652L32.2902 18.5999C32.3622 18.3332 32.5856 18.2437 33.0348 18.2546C32.9762 18.5695 32.9443 18.9013 32.9443 19.2446C32.9443 20.825 33.7981 21.8088 35.1659 21.8088C35.5184 21.8088 35.8212 21.7626 36.2899 21.6349L36.5127 20.2815C36.0911 20.4886 35.746 20.5861 35.4331 20.5861C34.6941 20.5861 34.2468 20.0404 34.2468 19.1391C34.2468 17.831 34.9115 16.9149 35.8609 16.9149Z" fill="#000066"/>
<path id="Fill 343" fill-rule="evenodd" clip-rule="evenodd" d="M46.6282 15.7864L46.3456 17.5023C45.9987 17.0451 45.6252 16.7139 45.1323 16.7139C44.491 16.7139 43.9072 17.2001 43.5249 17.9162C42.9925 17.8058 42.4424 17.618 42.4424 17.618L42.442 17.6226C42.4844 17.2223 42.5023 16.9788 42.4981 16.8956H41.3303C41.1717 18.3909 40.8888 19.9049 40.6678 21.4007L40.6094 21.7257H41.8815C42.0532 20.611 42.1844 19.6843 42.2812 18.9504C42.7161 18.5574 42.9337 18.2156 43.372 18.2378C43.1775 18.7082 43.0641 19.2496 43.0641 19.8051C43.0641 21.0121 43.6744 21.8091 44.5988 21.8091C45.0648 21.8091 45.4223 21.6483 45.7709 21.276L45.7109 21.7253H46.9137L47.882 15.7864H46.6282ZM45.0384 20.6101C44.6058 20.6101 44.3867 20.2892 44.3867 19.6579C44.3867 18.7085 44.7962 18.0355 45.3726 18.0355C45.8095 18.0355 46.0463 18.3678 46.0463 18.9814C46.0463 19.939 45.63 20.6101 45.0384 20.6101Z" fill="#000066"/>
<path id="Fill 344" fill-rule="evenodd" clip-rule="evenodd" d="M16.4723 21.3727H15.2013L15.9298 16.8074L14.3038 21.3727H13.4373L13.3303 16.8339L12.5648 21.3727H11.375L12.3688 15.4341H14.1969L14.2479 19.1105L15.4814 15.4341H17.4556L16.4723 21.3727Z" fill="white"/>
<path id="Fill 345" fill-rule="evenodd" clip-rule="evenodd" d="M19.5973 19.221C19.464 19.2054 19.4052 19.2012 19.3136 19.2012C18.593 19.2012 18.2285 19.448 18.2285 19.936C18.2285 20.2363 18.4065 20.4285 18.6843 20.4285C19.202 20.4285 19.5752 19.9356 19.5973 19.221ZM20.5224 21.3725C20.3531 21.3725 19.4694 21.3725 19.4694 21.3725L19.4934 20.8724C19.1722 21.2674 18.7434 21.4564 18.1611 21.4564C17.4722 21.4564 17 20.9179 17 20.1367C17 18.9602 17.8216 18.2752 19.2318 18.2752C19.3759 18.2752 19.5606 18.2883 19.7499 18.3127C19.7891 18.1528 19.7995 18.0849 19.7995 17.9985C19.7995 17.679 19.5782 17.56 18.9844 17.56C18.3623 17.5526 17.8495 17.7075 17.6386 17.7765C17.6521 17.6965 17.8149 16.6905 17.8149 16.6905C18.4483 16.5047 18.8661 16.4346 19.3363 16.4346C20.4279 16.4346 21.0059 16.9251 21.005 17.851C21.007 18.0992 20.9661 18.4062 20.9021 18.8081C20.7916 19.507 20.5548 21.008 20.5224 21.3725Z" fill="white"/>
<path id="Fill 346" fill-rule="evenodd" clip-rule="evenodd" d="M37.5727 15.5941L37.3645 16.8829C36.9106 16.6548 36.5818 16.5624 36.2291 16.5624C35.28 16.5624 34.6143 17.4797 34.6143 18.7879C34.6143 19.6892 35.0617 20.2338 35.8007 20.2338C36.1138 20.2338 36.4597 20.137 36.8803 19.9292L36.6569 21.2826C36.1889 21.4101 35.886 21.4567 35.5337 21.4567C34.165 21.4567 33.3125 20.4727 33.3125 18.8926C33.3125 16.7695 34.491 15.2856 36.1756 15.2856C36.7307 15.2856 37.3863 15.5208 37.5727 15.5941Z" fill="white"/>
<path id="Fill 347" fill-rule="evenodd" clip-rule="evenodd" d="M39.6198 19.221C39.4873 19.2054 39.4283 19.2012 39.3368 19.2012C38.6167 19.2012 38.252 19.448 38.252 19.936C38.252 20.2363 38.4298 20.4285 38.7073 20.4285C39.2249 20.4285 39.5985 19.9356 39.6198 19.221ZM40.5457 21.3725C40.3765 21.3725 39.4926 21.3725 39.4926 21.3725L39.5165 20.8724C39.1952 21.2674 38.7665 21.4564 38.1847 21.4564C37.4951 21.4564 37.0234 20.9179 37.0234 20.1367C37.0234 18.9602 37.8443 18.2752 39.2548 18.2752C39.399 18.2752 39.5833 18.2883 39.7724 18.3127C39.8118 18.1528 39.8222 18.0849 39.8222 17.9985C39.8222 17.679 39.6014 17.56 39.0072 17.56C38.3857 17.5526 37.8731 17.7075 37.6618 17.7765C37.6751 17.6965 37.8382 16.6905 37.8382 16.6905C38.4716 16.5047 38.889 16.4346 39.3592 16.4346C40.4507 16.4346 41.0294 16.9251 41.0279 17.851C41.0305 18.0992 40.9892 18.4062 40.9252 18.8081C40.8151 19.507 40.5782 21.008 40.5457 21.3725Z" fill="white"/>
<path id="Fill 348" fill-rule="evenodd" clip-rule="evenodd" d="M26.1683 21.2994C25.8206 21.4089 25.5491 21.4565 25.2553 21.4565C24.6054 21.4565 24.2505 21.0829 24.2505 20.3958C24.2417 20.1815 24.3444 19.6209 24.4252 19.1081C24.4983 18.6564 24.9763 15.812 24.9763 15.812H26.2399L26.0921 16.5429H26.7408L26.568 17.7035H25.9172C25.7705 18.6228 25.5612 19.7663 25.5586 19.918C25.5586 20.1678 25.692 20.2759 25.9942 20.2759C26.1391 20.2759 26.251 20.2617 26.337 20.2302L26.1683 21.2994Z" fill="white"/>
<path id="Fill 349" fill-rule="evenodd" clip-rule="evenodd" d="M30.0423 21.261C29.608 21.394 29.1887 21.4567 28.7454 21.4564C27.3306 21.4554 26.5938 20.7162 26.5938 19.3018C26.5938 17.6503 27.5315 16.4346 28.8042 16.4346C29.8469 16.4346 30.5122 17.1151 30.5122 18.1834C30.5122 18.5374 30.4659 18.8828 30.3567 19.3708H27.8402C27.7549 20.0715 28.2036 20.3639 28.9384 20.3639C29.3904 20.3639 29.7985 20.2703 30.2525 20.0593L30.0423 21.261ZM29.3331 18.3968C29.3399 18.2957 29.467 17.5347 28.745 17.5347C28.3427 17.5347 28.0546 17.842 27.9375 18.3968H29.3331Z" fill="white"/>
<path id="Fill 350" fill-rule="evenodd" clip-rule="evenodd" d="M21.2856 18.0699C21.2856 18.6814 21.582 19.1019 22.2539 19.4188C22.7685 19.6609 22.8483 19.7325 22.8483 19.9519C22.8483 20.253 22.6212 20.3888 22.1181 20.3888C21.739 20.3888 21.3861 20.33 20.979 20.1988C20.979 20.1988 20.8125 21.2631 20.8047 21.3133C21.0933 21.3765 21.3511 21.4343 22.1272 21.4567C23.4687 21.4567 24.0882 20.9461 24.0882 19.8424C24.0882 19.1785 23.8288 18.7891 23.1921 18.4968C22.6592 18.2516 22.5979 18.1974 22.5979 17.9716C22.5979 17.7105 22.8092 17.5762 23.2202 17.5762C23.4693 17.5762 23.8103 17.604 24.1334 17.6495L24.3143 16.5294C23.9852 16.4774 23.4863 16.4349 23.1956 16.4349C21.7734 16.4349 21.2813 17.1776 21.2856 18.0699Z" fill="white"/>
<path id="Fill 351" fill-rule="evenodd" clip-rule="evenodd" d="M47.2716 21.3727H46.0692L46.1288 20.9233C45.78 21.2958 45.4227 21.4566 44.9568 21.4566C44.0331 21.4566 43.4219 20.6605 43.4219 19.4522C43.4219 17.8457 44.3695 16.4916 45.4902 16.4916C45.9832 16.4916 46.3564 16.6929 46.7041 17.1503L46.9861 15.4341H48.2398L47.2716 21.3727ZM45.3957 20.2568C45.988 20.2568 46.4036 19.586 46.4036 18.6293C46.4036 18.0156 46.1669 17.6821 45.73 17.6821C45.1534 17.6821 44.7441 18.3553 44.7441 19.3051C44.7441 19.9372 44.9634 20.2568 45.3957 20.2568Z" fill="white"/>
<path id="Fill 352" fill-rule="evenodd" clip-rule="evenodd" d="M41.6895 16.543C41.5305 18.0379 41.2478 19.5519 41.0267 21.0479L40.9688 21.3727H42.2402C42.695 18.4191 42.8043 17.8427 43.5179 17.9147C43.6313 17.3101 43.8428 16.7807 44.0003 16.5139C43.4679 16.4029 43.1705 16.7038 42.7808 17.2755C42.8119 17.0281 42.868 16.7882 42.8575 16.543H41.6895Z" fill="white"/>
<path id="Fill 353" fill-rule="evenodd" clip-rule="evenodd" d="M31.2291 16.543C31.0694 18.0379 30.7863 19.5519 30.5655 21.0479L30.5078 21.3727H31.7796C32.2346 18.4191 32.3436 17.8427 33.056 17.9147C33.1702 17.3101 33.382 16.7807 33.5391 16.5139C33.0073 16.4029 32.7094 16.7038 32.3205 17.2755C32.3512 17.0281 32.4076 16.7882 32.3965 16.543H31.2291Z" fill="white"/>
</g>
</g>
</svg>
