<svg width="60" height="36" viewBox="0 0 60 36" fill="none" xmlns="http://www.w3.org/2000/svg">
<g id="Group 1000003105">
<rect id="Rectangle" width="60" height="36" rx="4" fill="white"/>
<path id="Fill 356" fill-rule="evenodd" clip-rule="evenodd" d="M50.192 17.9902C50.192 24.6234 44.8365 30 38.2286 30C31.6219 30 26.2656 24.6234 26.2656 17.9902C26.2656 11.3568 31.6219 5.98007 38.2286 5.98007C44.8365 5.98007 50.192 11.3568 50.192 17.9902Z" fill="#CC0000"/>
<path id="Fill 357" fill-rule="evenodd" clip-rule="evenodd" d="M28.9909 25.617C28.6606 25.2148 28.3564 24.7899 28.0797 24.345H32.3197C32.5742 23.9373 32.8039 23.5125 33.0091 23.0732H27.3907C27.1992 22.6617 27.029 22.2373 26.8842 21.8017H33.5147C33.914 20.6041 34.1297 19.323 34.1297 17.9902C34.1297 17.1175 34.0371 16.2665 33.8612 15.4469H26.5385C26.6312 15.0136 26.748 14.5896 26.8857 14.1751H33.5139C33.3685 13.7395 33.1993 13.3153 33.0079 12.9039H27.3919C27.597 12.4645 27.8273 12.0405 28.0811 11.6318H32.3183C32.0419 11.1881 31.7369 10.7639 31.4072 10.3611H28.9924C29.364 9.90848 29.7677 9.48353 30.1999 9.09008C28.0765 7.15738 25.2583 5.98007 22.167 5.98007C15.5594 5.98007 10.2031 11.3568 10.2031 17.9902C10.2031 24.6234 15.5594 30 22.167 30C25.2585 30 28.0769 28.8227 30.1999 26.8907C30.6327 26.4965 31.0369 26.0706 31.4085 25.617H28.9909Z" fill="#0066CC"/>
<path id="Fill 359" fill-rule="evenodd" clip-rule="evenodd" d="M30.0252 21.2356C29.5139 21.3715 29.0195 21.438 28.4969 21.4368C26.8294 21.4353 25.9609 20.6729 25.9609 19.2149C25.9609 17.5115 27.0665 16.2586 28.5672 16.2586C29.7947 16.2586 30.5783 16.961 30.5783 18.0617C30.5783 18.4268 30.5253 18.7827 30.3954 19.2857H27.4301C27.3246 19.9978 27.8425 20.3104 28.7242 20.3104C29.2523 20.3104 29.7297 20.2151 30.2587 20.0016L30.0252 21.2356ZM29.2284 18.2809C29.2284 18.1735 29.3933 17.409 28.5351 17.3925C28.0612 17.3925 27.7214 17.7087 27.584 18.2809H29.2284Z" fill="#000066"/>
<path id="Fill 360" fill-rule="evenodd" clip-rule="evenodd" d="M31.0346 17.9469C31.0346 18.5761 31.3874 19.0109 32.1897 19.3346C32.8029 19.5866 32.8993 19.6597 32.8993 19.885C32.8993 20.1972 32.6286 20.3403 32.0269 20.3365C31.5752 20.3333 31.1628 20.278 30.6763 20.1427L30.4609 21.2904C30.8936 21.3912 31.4999 21.4242 32.0375 21.4367C33.6388 21.4367 34.3781 20.9104 34.3781 19.7728C34.3781 19.0888 34.0697 18.6866 33.3092 18.3867C32.6736 18.1316 32.5991 18.0768 32.5991 17.8458C32.5991 17.5748 32.8509 17.4377 33.342 17.4377C33.6398 17.4377 34.0472 17.4651 34.4341 17.5121L34.651 16.3582C34.2569 16.3033 33.6592 16.2593 33.313 16.2593C31.6166 16.2593 31.0295 17.0259 31.0346 17.9469Z" fill="#000066"/>
<path id="Fill 361" fill-rule="evenodd" clip-rule="evenodd" d="M25.152 21.3543H23.9081L23.9377 20.8313C23.5584 21.2439 23.053 21.4361 22.3674 21.4361C21.5559 21.4361 21 20.8791 21 20.078C21 18.8602 21.9664 18.1578 23.628 18.1578C23.7988 18.1578 24.016 18.1707 24.2391 18.1959C24.2853 18.0329 24.2978 17.9627 24.2978 17.8742C24.2978 17.5409 24.0363 17.4181 23.337 17.4181C22.6476 17.4208 22.1825 17.5235 21.7508 17.6398L21.9634 16.5227C22.7099 16.3321 23.1984 16.2583 23.7515 16.2583C25.0382 16.2583 25.7177 16.7651 25.7177 17.7167C25.7285 17.9708 25.6406 18.4806 25.5962 18.7038C25.5459 19.0282 25.1893 20.9102 25.152 21.3543ZM24.0599 19.1327C23.9024 19.1171 23.8338 19.1124 23.7258 19.1124C22.8774 19.1124 22.4473 19.366 22.4473 19.8665C22.4473 20.1808 22.6571 20.3772 22.9844 20.3772C23.594 20.3772 24.0342 19.8653 24.0599 19.1327Z" fill="#000066"/>
<path id="Fill 362" fill-rule="evenodd" clip-rule="evenodd" d="M37.0005 21.2757C36.5924 21.3879 36.2742 21.4369 35.9303 21.4369C35.1683 21.4369 34.7521 21.0459 34.7521 20.3497C34.7281 20.1584 34.9144 19.2747 34.9567 19.0286C34.9987 18.7816 35.6588 15.1819 35.6588 15.1819H37.1393L36.9154 16.3731H37.6747L37.4685 17.5884H36.7057C36.7057 17.5884 36.2873 19.6983 36.2873 19.8597C36.2873 20.1153 36.4416 20.2266 36.7961 20.2266C36.9655 20.2266 37.0965 20.2106 37.1977 20.1802L37.0005 21.2757Z" fill="#000066"/>
<path id="Fill 363" fill-rule="evenodd" clip-rule="evenodd" d="M43.6097 16.2589C42.5246 16.2589 41.6767 16.7077 41.1842 17.4563L41.6117 16.3456C40.824 16.0554 40.3161 16.4697 39.8572 17.0585C39.8572 17.0585 39.7803 17.1562 39.7035 17.2456V16.3727H38.3134C38.125 17.9133 37.7921 19.4757 37.5317 21.0197L37.4688 21.3555H38.9642C39.1062 20.572 39.2227 19.9362 39.3388 19.429C39.6564 18.0378 40.1911 17.6127 40.9938 17.801C40.8085 18.2005 40.7069 18.6636 40.7069 19.1758C40.7069 20.4196 41.3793 21.4371 43.0498 21.4371C44.7353 21.4371 45.9558 20.5333 45.9558 18.4723C45.9558 17.2293 45.1424 16.2589 43.6097 16.2589ZM43.1746 20.2284C42.6465 20.2366 42.3262 19.7917 42.3262 19.1259C42.3262 18.3371 42.7934 17.4456 43.5442 17.4456C44.15 17.4456 44.3575 17.9279 44.3575 18.4416C44.3575 19.5637 43.8993 20.2284 43.1746 20.2284Z" fill="#000066"/>
<path id="Fill 364" fill-rule="evenodd" clip-rule="evenodd" d="M20.2993 21.3552H18.8099L19.695 16.674L17.6573 21.3552H16.2997L16.0516 16.7015L15.1637 21.3552H13.8125L14.9632 15.2661H17.2906L17.4844 18.6606L18.9589 15.2661H21.4731L20.2993 21.3552Z" fill="#000066"/>
<path id="Fill 366" fill-rule="evenodd" clip-rule="evenodd" d="M30.3998 20.8601C29.8889 20.9962 29.3943 21.0627 28.8719 21.0615C27.2044 21.06 26.3359 20.2974 26.3359 18.8396C26.3359 17.1361 27.4413 15.8833 28.9418 15.8833C30.1695 15.8833 30.9533 16.5857 30.9533 17.6862C30.9533 18.0513 30.9001 18.4065 30.7704 18.9104H27.8053C27.6996 19.6217 28.2171 19.9349 29.0988 19.9349C29.6269 19.9349 30.1047 19.8396 30.6335 19.6257L30.3998 20.8601ZM29.6015 17.9057C29.6015 17.7981 29.7663 17.0338 28.9085 17.0171C28.4346 17.0171 28.0949 17.3333 27.957 17.9057H29.6015Z" fill="white"/>
<path id="Fill 367" fill-rule="evenodd" clip-rule="evenodd" d="M31.4022 17.5717C31.4022 18.201 31.7548 18.6355 32.5569 18.9595C33.1705 19.2117 33.2667 19.2846 33.2667 19.5093C33.2667 19.8221 32.9957 19.9652 32.3947 19.9616C31.9424 19.9582 31.53 19.9029 31.0439 19.7676L30.8281 20.9149C31.2609 21.0161 31.8677 21.0491 32.4047 21.0618C34.006 21.0618 34.7457 20.5353 34.7457 19.3973C34.7457 18.7137 34.4371 18.3111 33.6766 18.0116C33.0409 17.7567 32.9662 17.7011 32.9662 17.4709C32.9662 17.1999 33.2185 17.0623 33.7093 17.0623C34.0071 17.0623 34.4144 17.0902 34.8015 17.1372L35.0183 15.9833C34.6243 15.9276 34.0266 15.8842 33.6808 15.8842C31.984 15.8842 31.3969 16.6504 31.4022 17.5717Z" fill="white"/>
<path id="Fill 368" fill-rule="evenodd" clip-rule="evenodd" d="M25.5274 20.9791H24.2831L24.3131 20.4561C23.9336 20.8683 23.4286 21.0604 22.7428 21.0604C21.9315 21.0604 21.375 20.5035 21.375 19.7024C21.375 18.485 22.3416 17.7826 24.0032 17.7826C24.174 17.7826 24.391 17.7957 24.6145 17.82C24.6607 17.6573 24.6729 17.5877 24.6729 17.499C24.6729 17.165 24.4116 17.0428 23.7126 17.0428C23.023 17.0456 22.5579 17.1483 22.1264 17.2648L22.3384 16.1475C23.085 15.9569 23.5734 15.8833 24.1269 15.8833C25.4136 15.8833 26.0929 16.3895 26.0929 17.3415C26.1041 17.5958 26.0156 18.1047 25.9717 18.3286C25.9209 18.653 25.5645 20.535 25.5274 20.9791ZM24.4349 18.7576C24.2776 18.7413 24.2088 18.7371 24.1006 18.7371C23.2526 18.7371 22.8223 18.9903 22.8223 19.4904C22.8223 19.8053 23.0325 20.0021 23.3593 20.0021C23.9692 20.0021 24.4094 19.4897 24.4349 18.7576Z" fill="white"/>
<path id="Fill 369" fill-rule="evenodd" clip-rule="evenodd" d="M37.3675 20.9004C36.9593 21.0128 36.6413 21.0618 36.2971 21.0618C35.5351 21.0618 35.1193 20.6706 35.1193 19.9744C35.0951 19.7831 35.2814 18.8994 35.3236 18.6532C35.3659 18.4063 36.026 14.8066 36.026 14.8066H37.5063L37.2826 15.9974H38.042L37.8355 17.2131H37.0729C37.0729 17.2131 36.6541 19.323 36.6541 19.4836C36.6541 19.7402 36.8086 19.8507 37.1631 19.8507C37.3325 19.8507 37.4634 19.8355 37.5651 19.8047L37.3675 20.9004Z" fill="white"/>
<path id="Fill 370" fill-rule="evenodd" clip-rule="evenodd" d="M44.7289 18.0651C44.7289 19.1881 44.2702 19.8528 43.5455 19.8528C43.0174 19.8604 42.6973 19.4161 42.6973 18.7503C42.6973 17.9615 43.1645 17.0698 43.9151 17.0698C44.5211 17.0698 44.7289 17.5521 44.7289 18.0651ZM46.327 18.0965C46.327 16.8537 45.5134 15.8833 43.9811 15.8833C42.2183 15.8833 41.0781 17.0627 41.0781 18.8003C41.0781 20.0438 41.7505 21.0615 43.4212 21.0615C45.1067 21.0615 46.327 20.1577 46.327 18.0965Z" fill="white"/>
<path id="Fill 371" fill-rule="evenodd" clip-rule="evenodd" d="M38.688 15.997C38.4999 17.538 38.1667 19.1002 37.9065 20.644L37.8438 20.9803H39.339C39.8779 17.9984 40.0588 17.1491 41.1882 17.448L41.7314 16.0373C40.9435 15.7471 40.4366 16.1616 39.9777 16.7507C40.0191 16.4856 40.097 16.2295 40.0783 15.997H38.688Z" fill="white"/>
<path id="Fill 372" fill-rule="evenodd" clip-rule="evenodd" d="M20.6743 20.9804H19.1853L20.0702 16.2992L18.0323 20.9804H16.6747L16.4264 16.3265L15.5385 20.9804H14.1875L15.3381 14.8911H17.6656L17.7885 18.6609L19.4269 14.8911H21.8481L20.6743 20.9804Z" fill="white"/>
</g>
</svg>
