<svg width="81" height="22" viewBox="0 0 81 22" fill="none" xmlns="http://www.w3.org/2000/svg">
<g id=".Payment Methods">
<path id="Shape" fill-rule="evenodd" clip-rule="evenodd" d="M25.2386 5.77313H29.5211C30.9544 5.77313 32.0339 6.16936 32.6426 6.91852C33.1968 7.60076 33.3802 8.57493 33.1886 9.81477C32.7634 12.6487 31.1354 14.0788 28.3144 14.0788H26.9587C26.6663 14.0788 26.4164 14.3018 26.3713 14.6056L25.9042 17.7085C25.8585 18.0122 25.6093 18.2352 25.3162 18.2352H23.2717C23.0519 18.2352 22.8841 18.0306 22.9186 17.8036L24.6506 6.29925C24.6963 5.99617 24.9455 5.77313 25.2386 5.77313ZM27.4715 11.5845C28.6068 11.5845 29.7809 11.5845 30.0151 9.9747C30.1008 9.40922 30.032 8.99987 29.8072 8.72435C29.4302 8.26253 28.7007 8.26253 27.9274 8.26253H27.6312C27.4558 8.26253 27.3056 8.39635 27.2786 8.57806L26.8253 11.5845H27.4715Z" fill="#253B80"/>
<path id="Shape_2" fill-rule="evenodd" clip-rule="evenodd" d="M40.2738 9.92318H42.3246C42.5438 9.92318 42.711 10.1285 42.6759 10.3548L41.5675 17.708C41.5212 18.0117 41.2732 18.2348 40.9796 18.2348H39.1323C38.9138 18.2348 38.7459 18.0301 38.7804 17.8018L38.8718 17.2048C38.8718 17.2048 37.8593 18.4348 36.0333 18.4348C34.9694 18.4348 34.0752 18.1134 33.4503 17.3419C32.769 16.5029 32.4904 15.2998 32.6863 14.0416C33.0633 11.5192 34.9989 9.72113 37.265 9.72113C38.2531 9.72113 39.2431 9.9468 39.6871 10.6218L39.8305 10.8396L39.9213 10.2387C39.9482 10.057 40.0991 9.92318 40.2738 9.92318ZM37.1523 16.1557C38.3383 16.1557 39.2682 15.3318 39.4661 14.1044C39.5556 13.5101 39.4316 12.9708 39.1192 12.5845C38.8073 12.202 38.3339 11.9993 37.7516 11.9993C36.5837 11.9993 35.6382 12.8501 35.4535 14.067C35.357 14.664 35.4723 15.1999 35.7753 15.5765C36.0809 15.9557 36.5568 16.1557 37.1523 16.1557Z" fill="#253B80"/>
<path id="Shape_3" d="M53.2422 9.9231H51.1815C50.9848 9.9231 50.8001 10.0254 50.6886 10.1966L47.8464 14.5827L46.6416 10.3679C46.5658 10.1042 46.3335 9.9231 46.0705 9.9231H44.0454C43.7993 9.9231 43.6284 10.175 43.7067 10.4177L45.9766 17.3963L43.8426 20.5523C43.6747 20.801 43.8438 21.1427 44.1337 21.1427H46.192C46.3874 21.1427 46.5702 21.043 46.6811 20.8751L53.5353 10.5102C53.6993 10.2622 53.5309 9.9231 53.2422 9.9231Z" fill="#253B80"/>
<path id="Shape_4" fill-rule="evenodd" clip-rule="evenodd" d="M55.7848 5.77313H60.0679C61.5013 5.77313 62.5802 6.16936 63.1882 6.91852C63.7424 7.60076 63.9271 8.57493 63.7349 9.81477C63.3091 12.6487 61.6816 14.0788 58.86 14.0788H57.505C57.2125 14.0788 56.9627 14.3018 56.9176 14.6056L56.426 17.8666C56.3941 18.0791 56.2194 18.2352 56.0153 18.2352H53.8174C53.5988 18.2352 53.431 18.0306 53.4654 17.8036L55.1975 6.29925C55.2432 5.99617 55.4924 5.77313 55.7848 5.77313ZM58.0183 11.5845C59.1542 11.5845 60.3283 11.5845 60.5619 9.9747C60.6477 9.40922 60.5794 8.99987 60.3546 8.72435C59.9776 8.26253 59.2475 8.26253 58.4748 8.26253H58.1786C58.0027 8.26253 57.8536 8.39635 57.8267 8.57806L57.3727 11.5845H58.0183Z" fill="#179BD7"/>
<path id="Shape_5" fill-rule="evenodd" clip-rule="evenodd" d="M70.8193 9.92318H72.8688C73.0886 9.92318 73.2564 10.1285 73.2226 10.3548L72.1136 17.708C72.0679 18.0117 71.8187 18.2348 71.5263 18.2348H69.6796C69.4598 18.2348 69.292 18.0301 69.3265 17.8018L69.4179 17.2048C69.4179 17.2048 68.4053 18.4348 66.5794 18.4348C65.5155 18.4348 64.6226 18.1134 63.9964 17.3419C63.3151 16.5029 63.0377 15.2998 63.233 14.0416C63.61 11.5192 65.5449 9.72113 67.8111 9.72113C68.7992 9.72113 69.7886 9.9468 70.2326 10.6218L70.3766 10.8396L70.4674 10.2387C70.4937 10.057 70.6433 9.92318 70.8193 9.92318ZM67.6965 16.1557C68.8825 16.1557 69.8136 15.3318 70.0102 14.1044C70.101 13.5101 69.977 12.9708 69.6633 12.5845C69.3515 12.202 68.8781 11.9993 68.2957 11.9993C67.1279 11.9993 66.1836 12.8501 65.9976 14.067C65.9025 14.664 66.0164 15.1999 66.3195 15.5765C66.6251 15.9557 67.1022 16.1557 67.6965 16.1557Z" fill="#179BD7"/>
<path id="Shape_6" d="M75.2856 6.08872L73.5279 17.8036C73.4935 18.0306 73.6613 18.2353 73.8799 18.2353H75.6469C75.9406 18.2353 76.1898 18.0122 76.2349 17.7085L77.9682 6.20483C78.0027 5.97785 77.8348 5.77252 77.6163 5.77252H75.6376C75.4628 5.77318 75.3126 5.907 75.2856 6.08872Z" fill="#179BD7"/>
<path id="Shape_7" d="M5.13548 20.4711L5.46298 18.2918L4.73347 18.2741H1.25L3.67083 2.19351C3.67835 2.14496 3.70277 2.0997 3.73846 2.06756C3.77415 2.03541 3.81987 2.0177 3.86746 2.0177H9.74108C11.691 2.0177 13.0367 2.44279 13.7393 3.28182C14.0686 3.67542 14.2784 4.08674 14.3799 4.53938C14.4863 5.01433 14.4882 5.58177 14.3842 6.27385L14.3767 6.32437V6.76783L14.7061 6.96332C14.9835 7.11748 15.2039 7.29394 15.373 7.49599C15.6548 7.83252 15.837 8.26023 15.914 8.76733C15.9935 9.28885 15.9672 9.90943 15.837 10.612C15.6867 11.4202 15.4438 12.1241 15.1156 12.7001C14.8138 13.2308 14.4293 13.671 13.9728 14.0121C13.537 14.3361 13.0192 14.5821 12.4337 14.7396C11.8664 14.8944 11.2195 14.9725 10.51 14.9725H10.0529C9.72605 14.9725 9.40857 15.0958 9.15935 15.3169C8.9095 15.5425 8.74419 15.8509 8.69347 16.188L8.65903 16.3842L8.08043 20.2251L8.05413 20.3661C8.04725 20.4107 8.03535 20.433 8.01782 20.4481C8.00216 20.4619 7.97962 20.4711 7.9577 20.4711H5.13548Z" fill="#253B80"/>
<path id="Shape_8" d="M15.0182 6.37549C15.0007 6.49291 14.9806 6.61296 14.9581 6.73629C14.1835 10.9026 11.5335 12.3418 8.14896 12.3418H6.4257C6.01179 12.3418 5.66301 12.6567 5.59851 13.0844L4.71621 18.9465L4.46636 20.6082C4.42441 20.8889 4.63105 21.1421 4.90156 21.1421H7.95798C8.31991 21.1421 8.62737 20.8666 8.68435 20.4927L8.71441 20.33L9.28987 16.5042L9.32682 16.2943C9.38317 15.919 9.69126 15.6435 10.0532 15.6435H10.5103C13.4715 15.6435 15.7897 14.384 16.4672 10.7392C16.7502 9.21664 16.6037 7.94531 15.8548 7.05117C15.6281 6.78155 15.347 6.55786 15.0182 6.37549Z" fill="#179BD7"/>
<path id="Shape_9" d="M14.211 6.03687C14.0926 6.00079 13.9705 5.96799 13.8453 5.93847C13.7194 5.90961 13.5904 5.88402 13.4577 5.86172C12.9931 5.783 12.484 5.74561 11.9386 5.74561H7.33484C7.2215 5.74561 7.1138 5.7725 7.01737 5.82105C6.80509 5.92797 6.64729 6.13855 6.6091 6.39636L5.62974 12.8947L5.60156 13.0843C5.66606 12.6566 6.01485 12.3417 6.42875 12.3417H8.15202C11.5366 12.3417 14.1866 10.9018 14.9612 6.73617C14.9843 6.61284 15.0037 6.49279 15.0213 6.37537C14.8253 6.26647 14.613 6.17332 14.3844 6.09394C14.3281 6.07426 14.2699 6.05524 14.211 6.03687Z" fill="#222D65"/>
<path id="Shape_10" d="M6.60608 6.3964C6.64428 6.13859 6.80208 5.92801 7.01435 5.82174C7.11141 5.7732 7.21849 5.7463 7.33183 5.7463H11.9355C12.481 5.7463 12.99 5.78369 13.4547 5.86241C13.5874 5.88472 13.7164 5.9103 13.8423 5.93917C13.9675 5.96869 14.0896 6.00149 14.208 6.03757C14.2668 6.05593 14.3251 6.07496 14.3821 6.09398C14.6106 6.17336 14.8229 6.26717 15.0189 6.37541C15.2493 4.83577 15.017 3.78747 14.2224 2.83823C13.3463 1.79322 11.7652 1.34583 9.74202 1.34583H3.8684C3.45511 1.34583 3.10257 1.66071 3.0387 2.08908L0.592192 18.335C0.543976 18.6565 0.780674 18.9464 1.09001 18.9464H4.71625L5.62673 12.8948L6.60608 6.3964Z" fill="#253B80"/>
</g>
</svg>
