<svg width="60" height="36" viewBox="0 0 60 36" fill="none" xmlns="http://www.w3.org/2000/svg">
<g id="Group 1000003103">
<rect id="Rectangle" width="60" height="36" rx="4" fill="white"/>
<path id="Fill 1" fill-rule="evenodd" clip-rule="evenodd" d="M24.8906 23.7281L26.7355 12.2837H29.6844L27.8397 23.7281H24.8906Z" fill="#26337A"/>
<path id="Fill 2" fill-rule="evenodd" clip-rule="evenodd" d="M38.5361 12.5646C37.953 12.335 37.036 12.0845 35.8936 12.0845C32.9781 12.0845 30.9258 13.6375 30.9088 15.8614C30.8902 17.5064 32.3733 18.4239 33.4914 18.9706C34.6405 19.5311 35.0265 19.8897 35.022 20.3908C35.0141 21.1573 34.1048 21.5085 33.2569 21.5085C32.0763 21.5085 31.449 21.3356 30.4792 20.9084L30.0999 20.7262L29.6875 23.2879C30.3751 23.6067 31.6499 23.8833 32.9729 23.8979C36.0714 23.8979 38.0848 22.3636 38.1084 19.9888C38.119 18.6843 37.3332 17.6956 35.6314 16.8792C34.6008 16.3485 33.9684 15.997 33.9756 15.4599C33.9763 14.9842 34.5099 14.475 35.6649 14.475C36.6295 14.4595 37.3278 14.6822 37.8719 14.9148L38.1367 15.0456L38.5361 12.5646Z" fill="#26337A"/>
<path id="Fill 3" fill-rule="evenodd" clip-rule="evenodd" d="M42.4648 19.6706C42.7092 19.0128 43.6396 16.4717 43.6396 16.4717C43.6224 16.502 43.8826 15.8088 44.0316 15.3799L44.2306 16.3669C44.2306 16.3669 44.7964 19.0985 44.913 19.6706C44.4539 19.6706 43.0407 19.6706 42.4648 19.6706ZM46.1024 12.2954H43.8234C43.1166 12.2954 42.5875 12.4979 42.2778 13.2441L37.8984 23.7323H40.9958C40.9958 23.7323 41.5011 22.3213 41.6158 22.0117C41.9536 22.0117 44.9632 22.0176 45.3928 22.0176C45.4812 22.417 45.7519 23.7323 45.7519 23.7323H48.489L46.1024 12.2954Z" fill="#26337A"/>
<path id="Fill 4" fill-rule="evenodd" clip-rule="evenodd" d="M22.4212 12.2935L19.5348 20.0958L19.2257 18.5098C18.6878 16.6824 17.0135 14.7017 15.1406 13.7093L17.7812 23.7183L20.9022 23.7164L25.5462 12.2935H22.4212Z" fill="#26337A"/>
<path id="Fill 5" fill-rule="evenodd" clip-rule="evenodd" d="M16.8571 12.2852H12.1016L12.0625 12.5223C15.7628 13.4703 18.2111 15.7586 19.2273 18.5093L18.1939 13.2507C18.0156 12.5255 17.4975 12.3105 16.8571 12.2852Z" fill="#EC982D"/>
</g>
</svg>
