<svg xmlns="http://www.w3.org/2000/svg" width="16" height="16" viewBox="0 0 16 16" fill="none">
  <path d="M10.1679 3.23285C10.4465 2.92787 10.659 2.57361 10.793 2.19044C10.9271 1.80726 10.9801 1.4027 10.9491 1C10.0938 1.06558 9.29984 1.44766 8.7383 2.06393C8.46939 2.35929 8.26561 2.7029 8.13903 3.07441C8.01245 3.44592 7.96564 3.83778 8.00137 4.22679C8.41858 4.23009 8.83099 4.14216 9.20669 3.9698C9.58239 3.79745 9.9113 3.54529 10.1679 3.23285ZM12.025 8.44051C12.03 7.90416 12.1787 7.37785 12.4572 6.91125C12.7357 6.44465 13.1348 6.05314 13.6168 5.77368C13.3126 5.35738 12.9105 5.01412 12.4423 4.77112C11.9741 4.52813 11.4528 4.39208 10.9196 4.37378C9.77001 4.26178 8.70882 5.01073 8.09717 5.01073C7.48551 5.01073 6.6233 4.38777 5.66529 4.40177C5.03899 4.42137 4.42873 4.59481 3.89403 4.90517C3.35933 5.21553 2.91845 5.65223 2.61439 6.17266C1.31739 8.31451 2.28277 11.4993 3.57977 13.2282C4.16932 14.0751 4.90625 15.0341 5.879 14.9991C6.85175 14.9641 7.16863 14.4251 8.29614 14.4251C9.42365 14.4251 9.77001 14.9991 10.728 14.9781C11.686 14.9571 12.364 14.1101 12.983 13.2632C13.4215 12.6483 13.7641 11.9764 14 11.2683C13.416 11.0317 12.9177 10.6379 12.5667 10.1353C12.2157 9.63276 12.0274 9.04357 12.025 8.44051Z" fill="#0038FF"/>
</svg>