<svg width="25" height="24" viewBox="0 0 25 24" fill="none" xmlns="http://www.w3.org/2000/svg">
<path d="M11.6603 12C11.6603 12.2984 11.7788 12.5845 11.9898 12.7955C12.2008 13.0065 12.4869 13.125 12.7853 13.125C13.0837 13.125 13.3698 13.0065 13.5808 12.7955C13.7918 12.5845 13.9103 12.2984 13.9103 12C13.9103 11.7016 13.7918 11.4155 13.5808 11.2045C13.3698 10.9935 13.0837 10.875 12.7853 10.875C12.4869 10.875 12.2008 10.9935 11.9898 11.2045C11.7788 11.4155 11.6603 11.7016 11.6603 12ZM16.3478 12C16.3478 12.2984 16.4663 12.5845 16.6773 12.7955C16.8883 13.0065 17.1744 13.125 17.4728 13.125C17.7712 13.125 18.0573 13.0065 18.2683 12.7955C18.4793 12.5845 18.5978 12.2984 18.5978 12C18.5978 11.7016 18.4793 11.4155 18.2683 11.2045C18.0573 10.9935 17.7712 10.875 17.4728 10.875C17.1744 10.875 16.8883 10.9935 16.6773 11.2045C16.4663 11.4155 16.3478 11.7016 16.3478 12ZM6.97279 12C6.97279 12.2984 7.09132 12.5845 7.30229 12.7955C7.51327 13.0065 7.79942 13.125 8.09779 13.125C8.39616 13.125 8.68231 13.0065 8.89328 12.7955C9.10426 12.5845 9.22279 12.2984 9.22279 12C9.22279 11.7016 9.10426 11.4155 8.89328 11.2045C8.68231 10.9935 8.39616 10.875 8.09779 10.875C7.79942 10.875 7.51327 10.9935 7.30229 11.2045C7.09132 11.4155 6.97279 11.7016 6.97279 12ZM22.4697 7.93125C21.94 6.67266 21.1806 5.54297 20.2126 4.57266C19.2514 3.60796 18.1104 2.84114 16.854 2.31563C15.565 1.77422 14.1962 1.5 12.7853 1.5H12.7384C11.3181 1.50703 9.94232 1.78828 8.64857 2.34141C7.403 2.87232 6.27263 3.64049 5.32045 4.60312C4.36185 5.57109 3.60951 6.69609 3.0892 7.95C2.55013 9.24844 2.27826 10.6289 2.28529 12.0492C2.29324 13.6769 2.67832 15.2806 3.41029 16.7344V20.2969C3.41029 20.5828 3.52388 20.857 3.72606 21.0592C3.92825 21.2614 4.20248 21.375 4.48841 21.375H8.05326C9.50707 22.107 11.1107 22.492 12.7384 22.5H12.7876C14.1915 22.5 15.5533 22.2281 16.8353 21.6961C18.0853 21.1768 19.2221 20.419 20.1822 19.4648C21.1501 18.5063 21.9119 17.3859 22.4439 16.1367C22.997 14.843 23.2783 13.4672 23.2853 12.0469C23.2923 10.6195 23.0158 9.23438 22.4697 7.93125ZM18.9283 18.1969C17.2853 19.8234 15.1056 20.7188 12.7853 20.7188H12.7454C11.3322 20.7117 9.92826 20.3602 8.68841 19.6992L8.49154 19.5938H5.19154V16.2938L5.08607 16.0969C4.42513 14.857 4.07357 13.4531 4.06654 12.0398C4.05716 9.70312 4.95013 7.50937 6.58841 5.85703C8.22435 4.20469 10.4111 3.29062 12.7478 3.28125H12.7876C13.9595 3.28125 15.0962 3.50859 16.1673 3.95859C17.2126 4.39687 18.1501 5.02734 18.9564 5.83359C19.7603 6.6375 20.3931 7.57734 20.8314 8.62266C21.2861 9.70547 21.5134 10.8539 21.5087 12.0398C21.4947 14.3742 20.5783 16.5609 18.9283 18.1969Z" fill="#000"/>
</svg>
