<svg xmlns="http://www.w3.org/2000/svg" width="16" height="16" viewBox="0 0 16 16" fill="none">
<path d="M14.8421 6.85401L11.6114 9.8539C11.5361 9.9239 11.4401 9.97158 11.3356 9.99091C11.2311 10.0102 11.1228 10.0003 11.0243 9.96246C10.9259 9.92458 10.8418 9.86044 10.7826 9.77814C10.7235 9.69585 10.6919 9.59911 10.692 9.50016V7.00025H10.4901C9.17674 6.99991 7.9005 7.40493 6.86209 8.15161C5.82367 8.89829 5.08198 9.94428 4.75364 11.1251C4.71794 11.2536 4.62874 11.3636 4.50567 11.431C4.38261 11.4984 4.23575 11.5176 4.09741 11.4845C3.95906 11.4513 3.84057 11.3685 3.76799 11.2542C3.69542 11.1399 3.6747 11.0036 3.7104 10.8751C4.09782 9.47924 4.97424 8.24268 6.20164 7.36013C7.42905 6.47758 8.93772 5.99919 10.4901 6.00029H10.692V3.50038C10.6919 3.40143 10.7235 3.30469 10.7826 3.22239C10.8418 3.1401 10.9259 3.07596 11.0243 3.03808C11.1228 3.00021 11.2311 2.9903 11.3356 3.00963C11.4401 3.02895 11.5361 3.07664 11.6114 3.14664L14.8421 6.14653C14.8921 6.19297 14.9319 6.24811 14.959 6.30881C14.9861 6.3695 15 6.43456 15 6.50027C15 6.56597 14.9861 6.63103 14.959 6.69173C14.9319 6.75243 14.8921 6.80757 14.8421 6.85401ZM12.3074 13H2.07689V5.5003C2.07689 5.3677 2.02016 5.24053 1.91918 5.14676C1.81821 5.053 1.68125 5.00032 1.53845 5.00032C1.39564 5.00032 1.25869 5.053 1.15771 5.14676C1.05673 5.24053 1 5.3677 1 5.5003V13C1 13.2652 1.11346 13.5196 1.31541 13.7071C1.51737 13.8946 1.79128 14 2.07689 14H12.3074C12.4502 14 12.5871 13.9473 12.6881 13.8536C12.7891 13.7598 12.8458 13.6326 12.8458 13.5C12.8458 13.3674 12.7891 13.2402 12.6881 13.1465C12.5871 13.0527 12.4502 13 12.3074 13Z" fill="#0038FF"/>
</svg>