<svg width="25" height="24" viewBox="0 0 25 24" fill="none" xmlns="http://www.w3.org/2000/svg">
<path d="M6.84668 19V10C6.84668 8.4087 7.47882 6.88258 8.60404 5.75736C9.72926 4.63214 11.2554 4 12.8467 4C14.438 4 15.9641 4.63214 17.0893 5.75736C18.2145 6.88258 18.8467 8.4087 18.8467 10V19M6.84668 19H18.8467M6.84668 19H4.84668M18.8467 19H20.8467M11.8467 22H13.8467" stroke="#000" stroke-width="2" stroke-linecap="round" stroke-linejoin="round"/>
<path d="M12.8467 4C13.399 4 13.8467 3.55228 13.8467 3C13.8467 2.44772 13.399 2 12.8467 2C12.2944 2 11.8467 2.44772 11.8467 3C11.8467 3.55228 12.2944 4 12.8467 4Z" stroke="#000" stroke-width="2"/>
</svg>
