<svg width="25" height="24" viewBox="0 0 25 24" fill="none" xmlns="http://www.w3.org/2000/svg">
<path d="M12.7759 4C13.8367 4 14.8542 4.42143 15.6043 5.17157C16.3545 5.92172 16.7759 6.93913 16.7759 8C16.7759 9.06087 16.3545 10.0783 15.6043 10.8284C14.8542 11.5786 13.8367 12 12.7759 12C11.715 12 10.6976 11.5786 9.94745 10.8284C9.19731 10.0783 8.77588 9.06087 8.77588 8C8.77588 6.93913 9.19731 5.92172 9.94745 5.17157C10.6976 4.42143 11.715 4 12.7759 4ZM12.7759 6C12.2454 6 11.7367 6.21071 11.3617 6.58579C10.9866 6.96086 10.7759 7.46957 10.7759 8C10.7759 8.53043 10.9866 9.03914 11.3617 9.41421C11.7367 9.78929 12.2454 10 12.7759 10C13.3063 10 13.815 9.78929 14.1901 9.41421C14.5652 9.03914 14.7759 8.53043 14.7759 8C14.7759 7.46957 14.5652 6.96086 14.1901 6.58579C13.815 6.21071 13.3063 6 12.7759 6ZM12.7759 13C15.4459 13 20.7759 14.33 20.7759 17V20H4.77588V17C4.77588 14.33 10.1059 13 12.7759 13ZM12.7759 14.9C9.80588 14.9 6.67588 16.36 6.67588 17V18.1H18.8759V17C18.8759 16.36 15.7459 14.9 12.7759 14.9Z" fill="#000"/>
</svg>
