<svg width="25" height="24" viewBox="0 0 25 24" fill="none" xmlns="http://www.w3.org/2000/svg">
<path d="M21.0602 3.98203L13.0961 1.26797C13 1.23516 12.8711 1.21875 12.7422 1.21875C12.6133 1.21875 12.4844 1.23516 12.3883 1.26797L4.42422 3.98203C4.22969 4.04766 4.07031 4.27266 4.07031 4.47891V15.7852C4.07031 15.9914 4.20391 16.2633 4.36563 16.3922L12.4445 22.6875C12.5266 22.7508 12.632 22.7836 12.7398 22.7836C12.8477 22.7836 12.9555 22.7508 13.0352 22.6875L21.1141 16.3922C21.2758 16.2656 21.4094 15.9937 21.4094 15.7852V4.47891C21.4141 4.27266 21.2547 4.05 21.0602 3.98203ZM19.7266 15.3352L12.7422 20.7773L5.75781 15.3352V5.31328L12.7422 2.93203L19.7266 5.31328V15.3352ZM10.2156 10.6242C10.1453 10.5281 10.0328 10.4695 9.91094 10.4695H8.61719C8.46484 10.4695 8.37578 10.643 8.46484 10.7672L11.4273 14.8453C11.4624 14.8933 11.5082 14.9323 11.5612 14.9591C11.6141 14.986 11.6727 15 11.732 15C11.7914 15 11.85 14.986 11.9029 14.9591C11.9558 14.9323 12.0017 14.8933 12.0367 14.8453L17.0195 7.98516C17.1086 7.86094 17.0195 7.6875 16.8672 7.6875H15.5734C15.4539 7.6875 15.3391 7.74609 15.2687 7.84219L11.732 12.7125L10.2156 10.6242Z" fill="#000"/>
</svg>
