<svg width="25" height="24" viewBox="0 0 25 24" fill="none" xmlns="http://www.w3.org/2000/svg">
<path d="M5.92637 5.999H21.9264V7.999H5.92637V5.999ZM7.92637 2H19.9264V4H7.92637V2ZM21.9194 9.991H5.92537C5.66167 9.99166 5.40069 10.0442 5.15732 10.1458C4.91395 10.2473 4.69296 10.3957 4.50696 10.5827C4.32097 10.7696 4.17361 10.9913 4.0733 11.2352C3.973 11.4791 3.92171 11.7403 3.92237 12.004V19.978C3.92171 20.2417 3.973 20.5029 4.0733 20.7468C4.17361 20.9907 4.32097 21.2124 4.50696 21.3993C4.69296 21.5863 4.91395 21.7347 5.15732 21.8362C5.40069 21.9378 5.66167 21.9903 5.92537 21.991H21.9194C22.1831 21.9903 22.444 21.9378 22.6874 21.8362C22.9308 21.7347 23.1518 21.5863 23.3378 21.3993C23.5238 21.2124 23.6711 20.9907 23.7714 20.7468C23.8717 20.5029 23.923 20.2417 23.9224 19.978V12.004C23.923 11.7403 23.8717 11.4791 23.7714 11.2352C23.6711 10.9913 23.5238 10.7696 23.3378 10.5827C23.1518 10.3957 22.9308 10.2473 22.6874 10.1458C22.444 10.0442 22.1831 9.99166 21.9194 9.991ZM21.9224 20H5.92237V12H21.9224V20Z" fill="#000"/>
<path d="M12.9263 18.991H14.9263V17.002H16.9263V14.998H14.9263V12.991H12.9263V15.001H10.9263V17.002H12.9263V18.991Z" fill="#000"/>
</svg>
