<svg xmlns="http://www.w3.org/2000/svg" width="16" height="16" viewBox="0 0 16 16" fill="none">
<path d="M5.026 14.9997C11.064 14.9997 14.367 9.99672 14.367 5.66572C14.367 5.52572 14.367 5.38372 14.361 5.24372C15.0041 4.7782 15.5591 4.20187 16 3.54172C15.3993 3.80657 14.7628 3.98112 14.111 4.05972C14.7975 3.64935 15.3117 3.00369 15.558 2.24272C14.913 2.62484 14.207 2.89309 13.471 3.03572C12.9762 2.50874 12.3214 2.15963 11.6081 2.04247C10.8948 1.92531 10.1627 2.04664 9.52534 2.38765C8.88796 2.72867 8.38081 3.27035 8.08245 3.92878C7.78409 4.58721 7.71118 5.32565 7.875 6.02972C6.56974 5.96427 5.29282 5.62518 4.12704 5.03446C2.96127 4.44373 1.93268 3.61456 1.108 2.60072C0.68934 3.3238 0.561574 4.17912 0.750646 4.99298C0.939718 5.80685 1.43145 6.51825 2.126 6.98272C1.60554 6.96503 1.09652 6.82528 0.64 6.57472V6.61972C0.640897 7.3772 0.903307 8.11114 1.38287 8.69748C1.86244 9.28382 2.52975 9.68659 3.272 9.83772C2.99026 9.91533 2.69923 9.95402 2.407 9.95272C2.20098 9.95334 1.99538 9.93425 1.793 9.89572C2.00279 10.5478 2.41127 11.1179 2.96125 11.5262C3.51122 11.9345 4.17513 12.1606 4.86 12.1727C3.69656 13.0865 2.2594 13.5821 0.78 13.5797C0.519321 13.5808 0.258823 13.5658 0 13.5347C1.50151 14.492 3.2453 15.0003 5.026 14.9997Z" fill="#0038FF"/>
</svg>