<svg width="23" height="23" viewBox="0 0 23 23" fill="none" xmlns="http://www.w3.org/2000/svg">
<path d="M19.0157 5.74811H11.5721L9.71119 3.88721H4.12848C3.10498 3.88721 2.27688 4.72461 2.27688 5.74811L2.26758 16.9135C2.26758 17.937 3.10498 18.7744 4.12848 18.7744H19.7321C20.3649 18.7744 20.8766 18.2534 20.8766 17.63V7.60901C20.8766 6.58552 20.0392 5.74811 19.0157 5.74811ZM19.0157 16.9135H4.12848V5.74811H8.93891L10.7998 7.60901H19.0157V16.9135ZM17.1548 11.3308H5.98938V9.46991H17.1548V11.3308ZM13.433 15.0526H5.98938V13.1917H13.433V15.0526Z" fill="url(#paint0_linear_225_12322)"/>
<defs>
<linearGradient id="paint0_linear_225_12322" x1="24.8904" y1="4.23892" x2="0.701341" y2="4.54285" gradientUnits="userSpaceOnUse">
<stop stop-color="#EA4335"/>
<stop offset="1" stop-color="#FBBC05"/>
</linearGradient>
</defs>
</svg>
