<svg width="23" height="23" viewBox="0 0 23 23" fill="none" xmlns="http://www.w3.org/2000/svg">
<path d="M19.2474 6.42043H12.0414L9.7734 3.86547C9.6092 3.68081 9.40764 3.53313 9.18207 3.43223C8.9565 3.33132 8.71206 3.27949 8.46495 3.28016H3.89499C3.43229 3.28016 2.98855 3.46396 2.66137 3.79114C2.3342 4.11831 2.15039 4.56206 2.15039 5.02475V17.9888C2.15108 18.437 2.32941 18.8666 2.64629 19.1835C2.96318 19.5003 3.39276 19.6787 3.8409 19.6794H19.3251C19.767 19.6789 20.1908 19.5031 20.5033 19.1906C20.8158 18.8781 20.9916 18.4544 20.992 18.0124V8.16503C20.992 7.70233 20.8082 7.25859 20.481 6.93141C20.1539 6.60424 19.7101 6.42043 19.2474 6.42043ZM4.24391 5.37367H8.30969L9.24043 6.42043H4.24391V5.37367ZM18.8985 17.5858H4.24391V8.51395H18.8985V17.5858Z" fill="url(#paint0_linear_225_12336)"/>
<defs>
<linearGradient id="paint0_linear_225_12336" x1="25.056" y1="3.66758" x2="0.563975" y2="3.95044" gradientUnits="userSpaceOnUse">
<stop stop-color="#EA4335"/>
<stop offset="1" stop-color="#FBBC05"/>
</linearGradient>
</defs>
</svg>
