<svg xmlns="http://www.w3.org/2000/svg" width="29" height="28" viewBox="0 0 29 28" fill="none">
  <g filter="url(#filter0_d_225_12413)">
    <path d="M15.001 6.52894C16.1436 5.50614 17.6345 4.95981 19.1674 5.00221C20.7003 5.04462 22.1587 5.67254 23.243 6.75694C24.3264 7.84013 24.9543 9.29669 24.9982 10.828C25.0421 12.3594 24.4986 13.8495 23.479 14.9929L14.999 23.4849L6.52102 14.9929C5.50028 13.8489 4.95623 12.3575 5.00056 10.8249C5.04489 9.29235 5.67425 7.83489 6.75942 6.75177C7.84459 5.66865 9.30323 5.04205 10.8359 5.00061C12.3685 4.95917 13.8589 5.50604 15.001 6.52894ZM21.827 8.16994C21.1046 7.44807 20.1333 7.03002 19.1125 7.00157C18.0916 6.97312 17.0985 7.33642 16.337 8.01694L15.002 9.21494L13.666 8.01794C12.9077 7.33983 11.9195 6.97614 10.9025 7.00086C9.88549 7.02559 8.91612 7.43688 8.19164 8.15104C7.46716 8.86519 7.04201 9.82856 7.0027 10.8451C6.96338 11.8616 7.31286 12.855 7.98002 13.6229L15 20.6539L22.02 13.6239C22.6844 12.8593 23.0339 11.8712 22.9981 10.8589C22.9623 9.84665 22.5438 8.88566 21.827 8.16994Z" fill="#BEBEBE"/>
  </g>
  <defs>
    <filter id="filter0_d_225_12413" x="0.998047" y="0.998413" width="28.002" height="26.4866" filterUnits="userSpaceOnUse" color-interpolation-filters="sRGB">
      <feFlood flood-opacity="0" result="BackgroundImageFix"/>
      <feColorMatrix in="SourceAlpha" type="matrix" values="0 0 0 0 0 0 0 0 0 0 0 0 0 0 0 0 0 0 127 0" result="hardAlpha"/>
      <feOffset/>
      <feGaussianBlur stdDeviation="2"/>
      <feComposite in2="hardAlpha" operator="out"/>
      <feColorMatrix type="matrix" values="0 0 0 0 0 0 0 0 0 0 0 0 0 0 0 0 0 0 0.14 0"/>
      <feBlend mode="normal" in2="BackgroundImageFix" result="effect1_dropShadow_225_12413"/>
      <feBlend mode="normal" in="SourceGraphic" in2="effect1_dropShadow_225_12413" result="shape"/>
    </filter>
  </defs>
</svg>