<svg xmlns="http://www.w3.org/2000/svg" width="12" height="12" viewBox="0 0 12 12" fill="none">
<path d="M10.386 6.59358H8.45614V10.4011C8.44883 10.615 8.39766 10.8146 8.30263 11H10.386C10.5541 11 10.6985 10.9412 10.8191 10.8235C10.9397 10.7059 11 10.5651 11 10.4011V7.19251C11 7.02852 10.9397 6.8877 10.8191 6.77005C10.6985 6.65241 10.5541 6.59358 10.386 6.59358ZM9.16886 3.91979L6.28509 1.10695C6.20468 1.03565 6.10965 1 6 1C5.89035 1 5.79532 1.03565 5.71491 1.10695L2.83114 3.91979C2.77997 3.97683 2.74525 4.04456 2.72697 4.12299C2.7087 4.20143 2.71601 4.27629 2.7489 4.34759C2.7818 4.41889 2.83114 4.47594 2.89693 4.51872C2.96272 4.5615 3.03582 4.58289 3.11623 4.58289H4.26754V10.4011C4.26754 10.5651 4.32785 10.7059 4.44846 10.8235C4.56908 10.9412 4.71711 11 4.89254 11H7.08553C7.25365 11 7.39803 10.9412 7.51864 10.8235C7.63925 10.7059 7.69956 10.5651 7.69956 10.4011V4.58289H8.88377C8.96418 4.58289 9.03728 4.5615 9.10307 4.51872C9.16886 4.47594 9.2182 4.41889 9.2511 4.34759C9.28399 4.27629 9.2913 4.20143 9.27303 4.12299C9.25475 4.04456 9.22003 3.97683 9.16886 3.91979ZM3.52193 10.4011V6.59358H1.61404C1.44591 6.59358 1.30154 6.65241 1.18092 6.77005C1.06031 6.8877 1 7.02852 1 7.19251V10.4011C1 10.5651 1.06031 10.7059 1.18092 10.8235C1.30154 10.9412 1.44591 11 1.61404 11H3.67544C3.5731 10.8146 3.52193 10.615 3.52193 10.4011Z" fill="#24A0ED"/>
</svg>