<svg xmlns="http://www.w3.org/2000/svg" width="12" height="12" viewBox="0 0 12 12" fill="none">
<path d="M9.21382 1H3.78618C3.46382 1 3.16612 1.08543 2.89309 1.2563C2.62007 1.42717 2.40296 1.65732 2.24178 1.94674C2.08059 2.23617 2 2.55175 2 2.89349V7.07798C2 7.41972 2.08059 7.7353 2.24178 8.02473C2.40296 8.31415 2.62007 8.5443 2.89309 8.71517C3.16612 8.88604 3.46382 8.97147 3.78618 8.97147H4.96053V10.6243C4.96053 10.7011 4.97862 10.7708 5.0148 10.8336C5.05099 10.8963 5.10197 10.9417 5.16776 10.9696C5.23355 10.9975 5.30099 11.0062 5.37007 10.9957C5.43914 10.9853 5.5 10.9556 5.55263 10.9068L7.60526 8.97147H9.21382C9.53618 8.97147 9.83388 8.88604 10.1069 8.71517C10.3799 8.5443 10.597 8.31415 10.7582 8.02473C10.9194 7.7353 11 7.41972 11 7.07798V2.89349C11 2.55175 10.9194 2.23617 10.7582 1.94674C10.597 1.65732 10.3799 1.42717 10.1069 1.2563C9.83388 1.08543 9.53618 1 9.21382 1Z" fill="#24A0ED"/>
</svg>