<svg xmlns="http://www.w3.org/2000/svg" width="12" height="12" viewBox="0 0 12 12" fill="none">
<path d="M10.6218 2.5H7.12395C7.04692 2.5 6.97689 2.52147 6.91387 2.56442C6.85084 2.60736 6.80357 2.66462 6.77206 2.7362C6.74055 2.80777 6.73354 2.88292 6.75105 2.96166C6.76856 3.04039 6.80182 3.10838 6.85084 3.16564L7.58613 3.90644L6.47269 5.04448L5.4958 4.04601C5.33473 3.87423 5.13515 3.78834 4.89706 3.78834C4.65896 3.78834 4.45588 3.87423 4.28782 4.04601L1.17857 7.23466C1.05952 7.34918 1 7.49054 1 7.65874C1 7.82694 1.05952 7.97188 1.17857 8.09356L2.37605 9.31748C2.4951 9.43916 2.63515 9.5 2.79622 9.5C2.95728 9.5 3.09734 9.43916 3.21639 9.31748L4.89706 7.59969L5.87395 8.59816C6.03501 8.76994 6.23459 8.85583 6.47269 8.85583C6.71078 8.85583 6.91387 8.76994 7.08193 8.59816L9.62395 5.98926L10.3487 6.73006C10.4048 6.78732 10.4713 6.8249 10.5483 6.84279C10.6253 6.86069 10.6989 6.85353 10.7689 6.82132C10.8389 6.78911 10.895 6.7408 10.937 6.67638C10.979 6.61196 11 6.54039 11 6.46166V2.8865C11 2.77914 10.9632 2.68788 10.8897 2.61273C10.8162 2.53758 10.7269 2.5 10.6218 2.5Z" fill="#24A0ED"/>
</svg>