<svg xmlns="http://www.w3.org/2000/svg" width="24" height="24" viewBox="0 0 24 24" fill="none">
<path d="M3.4 20.4004L20.85 12.9204C21.0304 12.8435 21.1842 12.7154 21.2923 12.5518C21.4004 12.3882 21.4581 12.1965 21.4581 12.0004C21.4581 11.8043 21.4004 11.6126 21.2923 11.449C21.1842 11.2854 21.0304 11.1572 20.85 11.0804L3.4 3.60039C3.2489 3.53449 3.08377 3.50723 2.91951 3.52109C2.75525 3.53495 2.59702 3.58949 2.4591 3.67978C2.32118 3.77008 2.20791 3.89328 2.1295 4.03829C2.0511 4.1833 2.01003 4.34555 2.01 4.51039L2 9.12039C2 9.62039 2.37 10.0504 2.87 10.1104L17 12.0004L2.87 13.8804C2.37 13.9504 2 14.3804 2 14.8804L2.01 19.4904C2.01 20.2004 2.74 20.6904 3.4 20.4004Z" fill="white"/>
</svg>