<svg width="60" height="36" viewBox="0 0 60 36" fill="none" xmlns="http://www.w3.org/2000/svg">
<g id="Group 1000003106">
<rect id="Rectangle" width="60" height="36" rx="4" fill="#ECECEC"/>
<path id="EXPRESS" fill-rule="evenodd" clip-rule="evenodd" d="M50.6433 20.7988H48.5235C48.3118 20.7988 48.1712 20.8067 48.0528 20.8865C47.9301 20.9651 47.8828 21.0817 47.8828 21.2356C47.8828 21.4187 47.9864 21.5432 48.1372 21.5971C48.2599 21.6396 48.3917 21.6521 48.5854 21.6521L49.2158 21.6689C49.8519 21.6846 50.2765 21.7936 50.5354 22.0595C50.5825 22.0965 50.6109 22.138 50.6433 22.1796V20.7988ZM50.6427 23.998C50.3602 24.4099 49.8097 24.6187 49.0644 24.6187H46.8182V23.5782H49.0553C49.2772 23.5782 49.4325 23.5491 49.526 23.458C49.607 23.383 49.6635 23.274 49.6635 23.1415C49.6635 23.0002 49.607 22.8879 49.5214 22.8206C49.437 22.7466 49.3142 22.7129 49.1116 22.7129C48.0195 22.6759 46.657 22.7466 46.657 21.211C46.657 20.5071 47.1053 19.7663 48.3258 19.7663H50.6426V18.8008H48.49C47.8404 18.8008 47.3686 18.9559 47.0344 19.197V18.8008H43.8504C43.3413 18.8008 42.7436 18.9266 42.461 19.197V18.8008H36.7753V19.197C36.3228 18.8716 35.5593 18.8008 35.2069 18.8008H31.4566V19.197C31.0986 18.8514 30.3025 18.8008 29.8173 18.8008H25.6201L24.6596 19.8371L23.76 18.8008H17.4902V25.5718H23.642L24.6317 24.5191L25.564 25.5718L29.356 25.5751V23.9823H29.7288C30.2319 23.9901 30.8253 23.9699 31.3489 23.7443V25.5716H34.4766V23.8069H34.6275C34.82 23.8069 34.839 23.8148 34.839 24.0066V25.5715H44.3404C44.9436 25.5715 45.5741 25.4175 45.9233 25.1382V25.5715H48.9371C49.5643 25.5715 50.1767 25.4838 50.6427 25.2594V23.998ZM46.0031 22.0588C46.2295 22.2925 46.3509 22.5875 46.3509 23.0869C46.3509 24.1308 45.6967 24.6181 44.5237 24.6181H42.2583V23.5775H44.5146C44.7352 23.5775 44.8917 23.5484 44.9897 23.4574C45.0697 23.3823 45.1271 23.2733 45.1271 23.1409C45.1271 22.9995 45.065 22.8873 44.9852 22.82C44.8963 22.7459 44.7736 22.7123 44.571 22.7123C43.4833 22.6753 42.1211 22.7459 42.1211 21.2103C42.1211 20.5065 42.5646 19.7656 43.784 19.7656H46.1158V20.7984H43.9822C43.7707 20.7984 43.6331 20.8063 43.5162 20.8861C43.3888 20.9647 43.3415 21.0813 43.3415 21.2352C43.3415 21.4183 43.4497 21.5428 43.596 21.5967C43.7187 21.6392 43.8505 21.6517 44.0486 21.6517L44.6748 21.6685C45.3062 21.6839 45.7396 21.7927 46.0031 22.0588ZM35.5068 21.7595C35.3512 21.8515 35.1588 21.8594 34.9325 21.8594H33.5195V20.7695H34.9517C35.1588 20.7695 35.3661 20.7739 35.5068 20.8572C35.6576 20.9358 35.7477 21.086 35.7477 21.2937C35.7477 21.5013 35.6576 21.6686 35.5068 21.7595ZM36.2099 22.3631C36.4688 22.4584 36.6804 22.6292 36.7797 22.7705C36.9439 23.0074 36.9677 23.2285 36.9724 23.6563V24.6182H35.8047V24.0111C35.8047 23.7192 35.8328 23.2869 35.6166 23.0613C35.4467 22.8874 35.1876 22.8459 34.7633 22.8459H33.5203V24.6182H32.3516V19.7656H35.0369C35.6257 19.7656 36.0546 19.7915 36.4364 19.9946C36.8034 20.2157 37.0343 20.5186 37.0343 21.0722C37.0342 21.8467 36.5161 22.242 36.2099 22.3631ZM37.6797 19.7656H41.5617V20.7692H38.838V21.6514H41.4952V22.6415H38.838V23.6069L41.5617 23.6113V24.6182H37.6797V19.7656ZM29.8312 22.0053H28.3281V20.7695H29.8447C30.2646 20.7695 30.5561 20.9402 30.5561 21.3645C30.5561 21.7842 30.2781 22.0053 29.8312 22.0053ZM27.1705 24.1776L25.3848 22.201L27.1705 20.2871V24.1776ZM22.5589 23.6073H19.6992V22.6418H22.2528V21.6518H19.6992V20.7695H22.6153L23.8875 22.1837L22.5589 23.6073ZM31.8062 21.3643C31.8062 22.7123 30.7975 22.9906 29.7808 22.9906H28.3295V24.6182H26.0688L24.6366 23.0118L23.1482 24.6182H18.541V19.7656H23.2191L24.6501 21.3562L26.1296 19.7656H29.8461C30.7692 19.7656 31.8062 20.0204 31.8062 21.3643Z" fill="#0072CE"/>
<path id="AMERICAN" fill-rule="evenodd" clip-rule="evenodd" d="M12.9939 14.1762L12.1978 12.2422L11.4062 14.1762H12.9939ZM30.5313 13.4054C30.3715 13.5021 30.1824 13.5053 29.9559 13.5053H28.543V12.4277H29.9752C30.1779 12.4277 30.3894 12.4368 30.5267 12.5152C30.6776 12.5859 30.771 12.7363 30.771 12.9441C30.771 13.1562 30.6822 13.3268 30.5313 13.4054ZM40.6112 14.1762L39.8064 12.2422L39.0059 14.1762H40.6112ZM21.8219 16.2694H20.6296L20.6251 12.4698L18.9386 16.2694H17.9174L16.2264 12.4664V16.2694H13.8607L13.4138 15.1873H10.9921L10.5406 16.2694H9.27734L11.3602 11.418H13.0883L15.0665 16.0113V11.418H16.9648L18.487 14.7091L19.8853 11.418H21.8218V16.2694H21.8219ZM26.5749 16.2694H22.6895V11.418H26.5749V12.4282H23.8526V13.3027H26.5096V14.2972H23.8526V15.266H26.5749V16.2694ZM32.053 12.7246C32.053 13.4981 31.5352 13.8977 31.2335 14.0177C31.488 14.1143 31.7053 14.2849 31.8088 14.4262C31.9731 14.6675 32.0014 14.8831 32.0014 15.3164V16.2694H30.8282L30.8238 15.6576C30.8238 15.3657 30.8519 14.9458 30.6402 14.7125C30.4703 14.5418 30.2112 14.5048 29.7925 14.5048H28.5439V16.2694H27.3809V11.418H30.0561C30.6505 11.418 31.0885 11.4336 31.4645 11.6503C31.8324 11.8671 32.053 12.1834 32.053 12.7246ZM33.9134 16.2694H32.7266V11.418H33.9134V16.2694ZM47.683 16.2694H46.0347L43.8301 12.6281V16.2694H41.4613L41.0087 15.1873H38.5925L38.1534 16.2694H36.7924C36.227 16.2694 35.5112 16.1447 35.1058 15.7328C34.697 15.3209 34.4844 14.7629 34.4844 13.8807C34.4844 13.1612 34.6115 12.5034 35.1114 11.9837C35.4874 11.5965 36.0763 11.418 36.8778 11.418H38.0038V12.4575H36.9014C36.4769 12.4575 36.2373 12.5204 36.0064 12.7449C35.8081 12.9492 35.6721 13.3353 35.6721 13.8438C35.6721 14.3636 35.7757 14.7384 35.9919 14.9832C36.1709 15.1751 36.4963 15.2334 36.8025 15.2334H37.3248L38.9641 11.4181H40.7069L42.6761 16.0069V11.4181H44.4471L46.4916 14.7969V11.4181H47.683V16.2694ZM9.26382 17.2214H11.2511L11.6992 16.1438H12.7024L13.1493 17.2214H17.0595V16.3976L17.4085 17.2249H19.4383L19.7874 16.3853V17.2214H29.5048L29.5003 15.4526H29.6883C29.8199 15.4571 29.8584 15.4692 29.8584 15.6859V17.2214H34.8843V16.8096C35.2897 17.0262 35.9202 17.2214 36.7499 17.2214H38.8643L39.3168 16.1438H40.32L40.7625 17.2214H44.837V16.1978L45.4541 17.2214H48.7192V10.4551H45.4878V11.2542L45.0353 10.4551H41.7196V11.2542L41.3041 10.4551H36.8254C36.0756 10.4551 35.4166 10.5594 34.8843 10.8502V10.4551H31.7936V10.8502C31.4548 10.5505 30.9932 10.4551 30.48 10.4551H19.1884L18.4307 12.2027L17.6527 10.4551H14.0961V11.2542L13.7054 10.4551H10.6722L9.26367 13.6722V17.2214H9.26382Z" fill="#0072CE"/>
</g>
</svg>
