<svg width="16" height="16" viewBox="0 0 16 16" fill="none" xmlns="http://www.w3.org/2000/svg">
<g id="bx:calendar">
<path id="Vector" d="M4.5 7H5.9V8.66667H4.5V7ZM4.5 10.3333H5.9V12H4.5V10.3333ZM7.3 7H8.7V8.66667H7.3V7ZM7.3 10.3333H8.7V12H7.3V10.3333ZM10.1 7H11.5V8.66667H10.1V7ZM10.1 10.3333H11.5V12H10.1V10.3333Z" fill="#FF0000"/>
<path id="Vector_2" d="M3.33333 15H12.6667C13.402 15 14 14.3721 14 13.6V3.8C14 3.0279 13.402 2.4 12.6667 2.4H11.3333V1H10V2.4H6V1H4.66667V2.4H3.33333C2.598 2.4 2 3.0279 2 3.8V13.6C2 14.3721 2.598 15 3.33333 15ZM12.6667 5.2L12.6673 13.6H3.33333V5.2H12.6667Z" fill="#FF0000"/>
</g>
</svg>
