<svg width="11" height="19" viewBox="0 0 11 19" fill="none" xmlns="http://www.w3.org/2000/svg">
<g clip-path="url(#clip0_43_24609)">
<path d="M10.0953 7.19549C10.0953 7.19549 10.1263 7.22648 10.1883 7.28848C10.2503 7.35047 10.2813 7.46629 10.2813 7.63595C10.2813 7.80561 10.2193 7.95244 10.0953 8.07642L5.71027 12.4615C5.58629 12.5855 5.43947 12.6475 5.26981 12.6475C5.10015 12.6475 4.95333 12.5855 4.82934 12.4615L0.444275 8.07642C0.320292 7.95244 0.258301 7.80561 0.258301 7.63595C0.258301 7.46629 0.320292 7.31947 0.444275 7.19549C0.568257 7.07151 0.715079 7.00951 0.884739 7.00951H9.65488C9.82454 7.00951 9.97136 7.07151 10.0953 7.19549Z" fill="#212121"/>
</g>
<defs>
<clipPath id="clip0_43_24609">
<rect width="10.0308" height="17.5403" fill="white" transform="matrix(1 0 0 -1 0.254395 18.2852)"/>
</clipPath>
</defs>
</svg>
