<svg width="16" height="16" viewBox="0 0 16 16" fill="none" xmlns="http://www.w3.org/2000/svg">
<g id="ic:baseline-add-shopping-cart">
<path id="Vector" d="M7.33366 6.00033H8.66699V4.00033H10.667V2.66699H8.66699V0.666992H7.33366V2.66699H5.33366V4.00033H7.33366V6.00033ZM4.66699 12.0003C3.93366 12.0003 3.34033 12.6003 3.34033 13.3337C3.34033 14.067 3.93366 14.667 4.66699 14.667C5.40033 14.667 6.00033 14.067 6.00033 13.3337C6.00033 12.6003 5.40033 12.0003 4.66699 12.0003ZM11.3337 12.0003C10.6003 12.0003 10.007 12.6003 10.007 13.3337C10.007 14.067 10.6003 14.667 11.3337 14.667C12.067 14.667 12.667 14.067 12.667 13.3337C12.667 12.6003 12.067 12.0003 11.3337 12.0003ZM4.78033 9.83366L4.80032 9.75366L5.40033 8.66699H10.367C10.867 8.66699 11.307 8.39366 11.5337 7.98033L14.107 3.30699L12.947 2.66699H12.9403L12.207 4.00033L10.367 7.33366H5.68699L5.60033 7.15366L4.10699 4.00033L3.47366 2.66699L2.84699 1.33366H0.666992V2.66699H2.00033L4.40033 7.72699L3.50033 9.36033C3.39366 9.54699 3.33366 9.76699 3.33366 10.0003C3.33366 10.7337 3.93366 11.3337 4.66699 11.3337H12.667V10.0003H4.94699C4.86033 10.0003 4.78033 9.92699 4.78033 9.83366Z" fill="white"/>
</g>
</svg>
