<svg width="36" height="24" viewBox="0 0 36 24" fill="none" xmlns="http://www.w3.org/2000/svg">
<g id="Icons">
<g id="Group">
<path id="Vector" d="M32.7581 23.0307H3.24178C2.00364 23.0307 1 22.0269 1 20.7889V3.24192C1 2.00379 2.00375 1 3.24189 1H32.7581C33.9962 1 35 2.00378 35 3.24192V20.7888C35 22.0269 33.9962 23.0307 32.7581 23.0307Z" fill="#0097EC"/>
<path id="Vector_2" d="M9.39726 5.85742H5.40885C4.85301 5.85742 4.40234 6.30809 4.40234 6.86394V10.0556C4.40234 10.6115 4.85301 11.062 5.40885 11.062H9.39726C9.9531 11.062 10.4038 10.6115 10.4038 10.0556V6.86394C10.4038 6.30809 9.9531 5.85742 9.39726 5.85742Z" fill="#FFC601"/>
<path id="Vector_3" d="M32.7581 23.0307H3.24178C2.00364 23.0307 1 22.0269 1 20.7889V3.24192C1 2.00379 2.00375 1 3.24189 1H32.7581C33.9962 1 35 2.00378 35 3.24192V20.7888C35 22.0269 33.9962 23.0307 32.7581 23.0307Z" stroke="#303030" stroke-width="0.8" stroke-miterlimit="10" stroke-linecap="round" stroke-linejoin="round"/>
<path id="Vector_4" d="M9.39726 5.85742H5.40885C4.85301 5.85742 4.40234 6.30809 4.40234 6.86394V10.0556C4.40234 10.6115 4.85301 11.062 5.40885 11.062H9.39726C9.9531 11.062 10.4038 10.6115 10.4038 10.0556V6.86394C10.4038 6.30809 9.9531 5.85742 9.39726 5.85742Z" stroke="#303030" stroke-width="0.5" stroke-miterlimit="10" stroke-linecap="round" stroke-linejoin="round"/>
<path id="Vector_5" d="M6.54073 5.85742C6.42685 6.10185 6.29387 6.46248 6.21332 6.91095C6.13508 7.34749 6.10893 7.87189 6.20151 8.45806C6.27733 8.93036 6.42917 9.44051 6.69975 9.98146" stroke="#303030" stroke-width="0.5" stroke-miterlimit="10" stroke-linecap="round" stroke-linejoin="round"/>
<path id="Vector_6" d="M4.40234 9.98047H10.4038" stroke="#303030" stroke-width="0.5" stroke-miterlimit="10" stroke-linecap="round" stroke-linejoin="round"/>
<path id="Vector_7" d="M6.21334 6.91211H4.40039" stroke="#303030" stroke-width="0.5" stroke-miterlimit="10" stroke-linecap="round" stroke-linejoin="round"/>
<path id="Vector_8" d="M6.20154 8.45898H4.40039" stroke="#303030" stroke-width="0.5" stroke-miterlimit="10" stroke-linecap="round" stroke-linejoin="round"/>
<path id="Vector_9" d="M8.39169 5.85742C8.50326 6.10185 8.63612 6.46248 8.7169 6.91095C8.79514 7.34749 8.82129 7.87189 8.7287 8.45806C8.65279 8.93036 8.50083 9.44051 8.23047 9.98146" stroke="#303030" stroke-width="0.5" stroke-miterlimit="10" stroke-linecap="round" stroke-linejoin="round"/>
<path id="Vector_10" d="M10.3996 6.91211H8.71484" stroke="#303030" stroke-width="0.5" stroke-miterlimit="10" stroke-linecap="round" stroke-linejoin="round"/>
<path id="Vector_11" d="M10.3995 8.45898H8.72656" stroke="#303030" stroke-width="0.5" stroke-miterlimit="10" stroke-linecap="round" stroke-linejoin="round"/>
<path id="Vector_12" d="M20.6211 4.95312H31.1681" stroke="#303030" stroke-width="0.8" stroke-miterlimit="10" stroke-linecap="round" stroke-linejoin="round"/>
<path id="Vector_13" d="M4.29102 19.4238H15.9875" stroke="#303030" stroke-width="0.8" stroke-miterlimit="10" stroke-linecap="round" stroke-linejoin="round"/>
<path id="Vector_14" d="M3.83789 15.0148C3.83789 14.9473 3.85379 14.8866 3.88512 14.8337C3.91657 14.781 3.95884 14.7359 4.01169 14.6977C4.06454 14.6595 4.12579 14.6314 4.19487 14.6112C4.26406 14.592 4.33656 14.582 4.41182 14.582C4.48773 14.582 4.55969 14.592 4.62943 14.6112C4.6985 14.6314 4.75931 14.6595 4.81217 14.6977C4.86558 14.7359 4.90718 14.781 4.93918 14.8337C4.97008 14.8866 4.98587 14.9473 4.98587 15.0148V16.1998C4.98587 16.2684 4.97008 16.3291 4.93918 16.382C4.90718 16.4348 4.86558 16.4798 4.81217 16.518C4.75931 16.5551 4.6985 16.5843 4.62943 16.6046C4.55968 16.6237 4.48773 16.6339 4.41182 16.6339C4.33656 16.6339 4.26406 16.6237 4.19487 16.6046C4.12578 16.5843 4.06454 16.5551 4.01169 16.518C3.95884 16.4798 3.91657 16.4348 3.88512 16.382C3.85379 16.3291 3.83789 16.2684 3.83789 16.1998V15.0148ZM4.22357 16.1998C4.22357 16.2415 4.24101 16.2763 4.27633 16.3033C4.31131 16.3314 4.35688 16.3449 4.41184 16.3449C4.46757 16.3449 4.51303 16.3314 4.54801 16.3033C4.58332 16.2762 4.60076 16.2415 4.60076 16.1998V15.0148C4.60076 14.9743 4.58332 14.9395 4.54801 14.9114C4.51303 14.8843 4.46757 14.8708 4.41184 14.8708C4.35688 14.8708 4.31131 14.8843 4.27633 14.9114C4.24101 14.9395 4.22357 14.9743 4.22357 15.0148V16.1998Z" fill="#303030"/>
<path id="Vector_15" d="M5.24219 15.0148C5.24219 14.9473 5.25797 14.8866 5.28942 14.8337C5.32098 14.781 5.36302 14.7359 5.41588 14.6977C5.46874 14.6595 5.52999 14.6314 5.59918 14.6112C5.66826 14.592 5.74087 14.582 5.81612 14.582C5.89194 14.582 5.96389 14.592 6.03373 14.6112C6.10292 14.6314 6.16362 14.6595 6.21636 14.6977C6.26989 14.7359 6.31137 14.781 6.34338 14.8337C6.37439 14.8866 6.39016 14.9473 6.39016 15.0148V16.1998C6.39016 16.2684 6.37438 16.3291 6.34338 16.382C6.31137 16.4348 6.26989 16.4798 6.21636 16.518C6.16362 16.5551 6.10292 16.5843 6.03373 16.6046C5.96388 16.6237 5.89193 16.6339 5.81612 16.6339C5.74087 16.6339 5.66825 16.6237 5.59918 16.6046C5.52999 16.5843 5.46874 16.5551 5.41588 16.518C5.36303 16.4798 5.32099 16.4348 5.28942 16.382C5.25797 16.3291 5.24219 16.2684 5.24219 16.1998V15.0148ZM5.62787 16.1998C5.62787 16.2415 5.64531 16.2763 5.68072 16.3033C5.71548 16.3314 5.76106 16.3449 5.81612 16.3449C5.87185 16.3449 5.91732 16.3314 5.95218 16.3033C5.98761 16.2762 6.00504 16.2415 6.00504 16.1998V15.0148C6.00504 14.9743 5.9876 14.9395 5.95218 14.9114C5.91732 14.8843 5.87185 14.8708 5.81612 14.8708C5.76106 14.8708 5.71548 14.8843 5.68072 14.9114C5.6453 14.9395 5.62787 14.9743 5.62787 15.0148V16.1998Z" fill="#303030"/>
<path id="Vector_16" d="M6.64648 15.0148C6.64648 14.9473 6.66227 14.8866 6.69372 14.8337C6.72527 14.781 6.76743 14.7359 6.82028 14.6977C6.87314 14.6595 6.93439 14.6314 7.00357 14.6112C7.07265 14.592 7.14515 14.582 7.22041 14.582C7.29644 14.582 7.36839 14.592 7.43802 14.6112C7.50721 14.6314 7.56791 14.6595 7.62076 14.6977C7.67417 14.7359 7.71577 14.781 7.74789 14.8337C7.77868 14.8866 7.79446 14.9473 7.79446 15.0148V16.1998C7.79446 16.2684 7.77868 16.3291 7.74789 16.382C7.71577 16.4348 7.67417 16.4798 7.62076 16.518C7.56791 16.5551 7.50721 16.5843 7.43802 16.6046C7.36839 16.6237 7.29644 16.6339 7.22041 16.6339C7.14515 16.6339 7.07265 16.6237 7.00357 16.6046C6.93439 16.5843 6.87314 16.5551 6.82028 16.518C6.76743 16.4798 6.72527 16.4348 6.69372 16.382C6.66227 16.3291 6.64648 16.2684 6.64648 16.1998V15.0148ZM7.03227 16.1998C7.03227 16.2415 7.0496 16.2763 7.08502 16.3033C7.11978 16.3314 7.16547 16.3449 7.22042 16.3449C7.27615 16.3449 7.32161 16.3314 7.35659 16.3033C7.39202 16.2762 7.40934 16.2415 7.40934 16.1998V15.0148C7.40934 14.9743 7.39202 14.9395 7.35659 14.9114C7.32161 14.8843 7.27615 14.8708 7.22042 14.8708C7.16547 14.8708 7.11978 14.8843 7.08502 14.9114C7.0496 14.9395 7.03227 14.9743 7.03227 15.0148V16.1998Z" fill="#303030"/>
<path id="Vector_17" d="M8.05273 15.0148C8.05273 14.9473 8.06852 14.8866 8.09997 14.8337C8.13152 14.781 8.17357 14.7359 8.22643 14.6977C8.27929 14.6595 8.34054 14.6314 8.40972 14.6112C8.47881 14.592 8.55142 14.582 8.62678 14.582C8.7026 14.582 8.77455 14.592 8.84428 14.6112C8.91347 14.6314 8.97406 14.6595 9.02691 14.6977C9.08032 14.7359 9.12192 14.781 9.15404 14.8337C9.18494 14.8866 9.20072 14.9473 9.20072 15.0148V16.1998C9.20072 16.2684 9.18494 16.3291 9.15404 16.382C9.12192 16.4348 9.08032 16.4798 9.02691 16.518C8.97406 16.5551 8.91347 16.5843 8.84428 16.6046C8.77454 16.6237 8.70259 16.6339 8.62678 16.6339C8.55142 16.6339 8.47881 16.6237 8.40972 16.6046C8.34054 16.5843 8.27929 16.5551 8.22643 16.518C8.17358 16.4798 8.13153 16.4348 8.09997 16.382C8.06852 16.3291 8.05273 16.2684 8.05273 16.1998V15.0148ZM8.43841 16.1998C8.43841 16.2415 8.45585 16.2763 8.49126 16.3033C8.52613 16.3314 8.57159 16.3449 8.62677 16.3449C8.68239 16.3449 8.72796 16.3314 8.76272 16.3033C8.79815 16.2762 8.81557 16.2415 8.81557 16.1998V15.0148C8.81557 14.9743 8.79814 14.9395 8.76272 14.9114C8.72796 14.8843 8.68239 14.8708 8.62677 14.8708C8.57159 14.8708 8.52613 14.8843 8.49126 14.9114C8.45584 14.9395 8.43841 14.9743 8.43841 15.0148V16.1998Z" fill="#303030"/>
<path id="Vector_18" d="M10.8613 15.0148C10.8613 14.9473 10.877 14.8866 10.9084 14.8337C10.9399 14.781 10.982 14.7359 11.0349 14.6977C11.0878 14.6595 11.1491 14.6314 11.2182 14.6112C11.2874 14.592 11.3599 14.582 11.4353 14.582C11.5111 14.582 11.583 14.592 11.6528 14.6112C11.7218 14.6314 11.7826 14.6595 11.8355 14.6977C11.8888 14.7359 11.9305 14.781 11.9625 14.8337C11.9935 14.8866 12.0091 14.9473 12.0091 15.0148V16.1998C12.0091 16.2684 11.9935 16.3291 11.9625 16.382C11.9305 16.4348 11.8888 16.4798 11.8355 16.518C11.7826 16.5551 11.7218 16.5843 11.6528 16.6046C11.583 16.6237 11.5111 16.6339 11.4353 16.6339C11.3599 16.6339 11.2874 16.6237 11.2182 16.6046C11.1491 16.5843 11.0878 16.5551 11.0349 16.518C10.9821 16.4798 10.9399 16.4348 10.9084 16.382C10.877 16.3291 10.8613 16.2684 10.8613 16.1998V15.0148ZM11.2469 16.1998C11.2469 16.2415 11.2643 16.2763 11.2998 16.3033C11.3346 16.3314 11.3802 16.3449 11.4353 16.3449C11.4908 16.3449 11.5365 16.3314 11.5713 16.3033C11.6066 16.2762 11.6242 16.2415 11.6242 16.1998V15.0148C11.6242 14.9743 11.6066 14.9395 11.5713 14.9114C11.5365 14.8843 11.4908 14.8708 11.4353 14.8708C11.3802 14.8708 11.3346 14.8843 11.2998 14.9114C11.2643 14.9395 11.2469 14.9743 11.2469 15.0148V16.1998Z" fill="#303030"/>
<path id="Vector_19" d="M12.2656 15.0148C12.2656 14.9473 12.2814 14.8866 12.3129 14.8337C12.3443 14.781 12.3866 14.7359 12.4394 14.6977C12.4922 14.6595 12.5534 14.6314 12.6225 14.6112C12.6917 14.592 12.7643 14.582 12.8396 14.582C12.9155 14.582 12.9874 14.592 13.0572 14.6112C13.1262 14.6314 13.1871 14.6595 13.2399 14.6977C13.2933 14.7359 13.3348 14.781 13.3668 14.8337C13.3978 14.8866 13.4136 14.9473 13.4136 15.0148V16.1998C13.4136 16.2684 13.3978 16.3291 13.3668 16.382C13.3348 16.4348 13.2933 16.4798 13.2399 16.518C13.1871 16.5551 13.1263 16.5843 13.0572 16.6046C12.9874 16.6237 12.9155 16.6339 12.8396 16.6339C12.7643 16.6339 12.6917 16.6237 12.6225 16.6046C12.5534 16.5843 12.4922 16.5551 12.4394 16.518C12.3866 16.4798 12.3443 16.4348 12.3129 16.382C12.2814 16.3291 12.2656 16.2684 12.2656 16.1998V15.0148ZM12.6512 16.1998C12.6512 16.2415 12.6687 16.2763 12.7041 16.3033C12.7389 16.3314 12.7845 16.3449 12.8396 16.3449C12.8953 16.3449 12.9408 16.3314 12.9756 16.3033C13.0109 16.2762 13.0285 16.2415 13.0285 16.1998V15.0148C13.0285 14.9743 13.0109 14.9395 12.9756 14.9114C12.9408 14.8843 12.8953 14.8708 12.8396 14.8708C12.7845 14.8708 12.7389 14.8843 12.7041 14.9114C12.6687 14.9395 12.6512 14.9743 12.6512 15.0148V16.1998Z" fill="#303030"/>
<path id="Vector_20" d="M13.6719 15.0148C13.6719 14.9473 13.6877 14.8866 13.719 14.8337C13.7506 14.781 13.7927 14.7359 13.8456 14.6977C13.8984 14.6595 13.9597 14.6314 14.0289 14.6112C14.0979 14.592 14.1704 14.582 14.2457 14.582C14.3217 14.582 14.3937 14.592 14.4633 14.6112C14.5325 14.6314 14.5932 14.6595 14.646 14.6977C14.6995 14.7359 14.7411 14.781 14.7731 14.8337C14.804 14.8866 14.8197 14.9473 14.8197 15.0148V16.1998C14.8197 16.2684 14.804 16.3291 14.7731 16.382C14.7411 16.4348 14.6995 16.4798 14.646 16.518C14.5932 16.5551 14.5325 16.5843 14.4633 16.6046C14.3937 16.6237 14.3217 16.6339 14.2457 16.6339C14.1704 16.6339 14.0979 16.6237 14.0289 16.6046C13.9597 16.5843 13.8984 16.5551 13.8456 16.518C13.7927 16.4798 13.7506 16.4348 13.719 16.382C13.6877 16.3291 13.6719 16.2684 13.6719 16.1998V15.0148ZM14.0576 16.1998C14.0576 16.2415 14.0749 16.2763 14.1104 16.3033C14.1452 16.3314 14.1907 16.3449 14.2457 16.3449C14.3014 16.3449 14.347 16.3314 14.3819 16.3033C14.4173 16.2762 14.4347 16.2415 14.4347 16.1998V15.0148C14.4347 14.9743 14.4173 14.9395 14.3819 14.9114C14.347 14.8843 14.3014 14.8708 14.2457 14.8708C14.1907 14.8708 14.1452 14.8843 14.1104 14.9114C14.0749 14.9395 14.0576 14.9743 14.0576 15.0148V16.1998Z" fill="#303030"/>
<path id="Vector_21" d="M15.0762 15.0148C15.0762 14.9473 15.092 14.8866 15.1234 14.8337C15.155 14.781 15.1971 14.7359 15.2499 14.6977C15.3027 14.6595 15.364 14.6314 15.4332 14.6112C15.5022 14.592 15.5749 14.582 15.6501 14.582C15.7261 14.582 15.7981 14.592 15.8677 14.6112C15.9369 14.6314 15.9976 14.6595 16.0505 14.6977C16.1039 14.7359 16.1454 14.781 16.1775 14.8337C16.2084 14.8866 16.2241 14.9473 16.2241 15.0148V16.1998C16.2241 16.2684 16.2084 16.3291 16.1775 16.382C16.1454 16.4348 16.1039 16.4798 16.0505 16.518C15.9976 16.5551 15.9369 16.5843 15.8677 16.6046C15.7981 16.6237 15.7261 16.6339 15.6501 16.6339C15.5749 16.6339 15.5022 16.6237 15.4332 16.6046C15.364 16.5843 15.3027 16.5551 15.2499 16.518C15.1971 16.4798 15.155 16.4348 15.1234 16.382C15.092 16.3291 15.0762 16.2684 15.0762 16.1998V15.0148ZM15.4619 16.1998C15.4619 16.2415 15.4793 16.2763 15.5147 16.3033C15.5495 16.3314 15.595 16.3449 15.6501 16.3449C15.7058 16.3449 15.7513 16.3314 15.7862 16.3033C15.8217 16.2762 15.839 16.2415 15.839 16.1998V15.0148C15.839 14.9743 15.8217 14.9395 15.7862 14.9114C15.7513 14.8843 15.7058 14.8708 15.6501 14.8708C15.595 14.8708 15.5495 14.8843 15.5147 14.9114C15.4793 14.9395 15.4619 14.9743 15.4619 15.0148V16.1998Z" fill="#303030"/>
<path id="Vector_22" d="M17.8867 15.0148C17.8867 14.9473 17.9024 14.8866 17.9339 14.8337C17.9653 14.781 18.0074 14.7359 18.0603 14.6977C18.1132 14.6595 18.1745 14.6314 18.2436 14.6112C18.3128 14.592 18.3853 14.582 18.4607 14.582C18.5365 14.582 18.6084 14.592 18.6783 14.6112C18.7473 14.6314 18.8079 14.6595 18.8608 14.6977C18.9142 14.7359 18.9559 14.781 18.9879 14.8337C19.0189 14.8866 19.0346 14.9473 19.0346 15.0148V16.1998C19.0346 16.2684 19.0189 16.3291 18.9879 16.382C18.9559 16.4348 18.9142 16.4798 18.8608 16.518C18.8079 16.5551 18.7473 16.5843 18.6783 16.6046C18.6084 16.6237 18.5365 16.6339 18.4607 16.6339C18.3853 16.6339 18.3128 16.6237 18.2436 16.6046C18.1745 16.5843 18.1132 16.5551 18.0603 16.518C18.0074 16.4798 17.9653 16.4348 17.9339 16.382C17.9024 16.3291 17.8867 16.2684 17.8867 16.1998V15.0148ZM18.2723 16.1998C18.2723 16.2415 18.2897 16.2763 18.3251 16.3033C18.36 16.3314 18.4055 16.3449 18.4607 16.3449C18.5163 16.3449 18.5618 16.3314 18.5967 16.3033C18.632 16.2762 18.6496 16.2415 18.6496 16.1998V15.0148C18.6496 14.9743 18.632 14.9395 18.5967 14.9114C18.5618 14.8843 18.5163 14.8708 18.4607 14.8708C18.4055 14.8708 18.36 14.8843 18.3251 14.9114C18.2897 14.9395 18.2723 14.9743 18.2723 15.0148V16.1998Z" fill="#303030"/>
<path id="Vector_23" d="M19.2891 15.0148C19.2891 14.9473 19.3047 14.8866 19.3363 14.8337C19.3677 14.781 19.4099 14.7359 19.4628 14.6977C19.5155 14.6595 19.577 14.6314 19.6461 14.6112C19.7152 14.592 19.7877 14.582 19.863 14.582C19.9389 14.582 20.0109 14.592 20.0806 14.6112C20.1497 14.6314 20.2105 14.6595 20.2634 14.6977C20.3167 14.7359 20.3582 14.781 20.3904 14.8337C20.4213 14.8866 20.4369 14.9473 20.4369 15.0148V16.1998C20.4369 16.2684 20.4213 16.3291 20.3904 16.382C20.3582 16.4348 20.3167 16.4798 20.2634 16.518C20.2105 16.5551 20.1497 16.5843 20.0806 16.6046C20.0109 16.6237 19.9389 16.6339 19.863 16.6339C19.7877 16.6339 19.7152 16.6237 19.6461 16.6046C19.577 16.5843 19.5155 16.5551 19.4628 16.518C19.4099 16.4798 19.3677 16.4348 19.3363 16.382C19.3047 16.3291 19.2891 16.2684 19.2891 16.1998V15.0148ZM19.6746 16.1998C19.6746 16.2415 19.6922 16.2763 19.7275 16.3033C19.7624 16.3314 19.8079 16.3449 19.863 16.3449C19.9186 16.3449 19.9642 16.3314 19.9991 16.3033C20.0345 16.2762 20.0519 16.2415 20.0519 16.1998V15.0148C20.0519 14.9743 20.0345 14.9395 19.9991 14.9114C19.9642 14.8843 19.9186 14.8708 19.863 14.8708C19.8079 14.8708 19.7624 14.8843 19.7275 14.9114C19.6922 14.9395 19.6746 14.9743 19.6746 15.0148V16.1998Z" fill="#303030"/>
<path id="Vector_24" d="M20.6953 15.0148C20.6953 14.9473 20.7111 14.8866 20.7424 14.8337C20.7739 14.781 20.8161 14.7359 20.869 14.6977C20.9219 14.6595 20.9831 14.6314 21.0522 14.6112C21.1214 14.592 21.1939 14.582 21.2692 14.582C21.3451 14.582 21.417 14.592 21.4867 14.6112C21.5558 14.6314 21.6166 14.6595 21.6695 14.6977C21.7229 14.7359 21.7645 14.781 21.7965 14.8337C21.8275 14.8866 21.8433 14.9473 21.8433 15.0148V16.1998C21.8433 16.2684 21.8275 16.3291 21.7965 16.382C21.7645 16.4348 21.7229 16.4798 21.6695 16.518C21.6166 16.5551 21.5558 16.5843 21.4867 16.6046C21.417 16.6237 21.345 16.6339 21.2692 16.6339C21.1939 16.6339 21.1214 16.6237 21.0522 16.6046C20.9831 16.5843 20.9219 16.5551 20.869 16.518C20.8161 16.4798 20.7739 16.4348 20.7424 16.382C20.7111 16.3291 20.6953 16.2684 20.6953 16.1998V15.0148ZM21.0809 16.1998C21.0809 16.2415 21.0983 16.2763 21.1337 16.3033C21.1686 16.3314 21.2142 16.3449 21.2692 16.3449C21.325 16.3449 21.3704 16.3314 21.4053 16.3033C21.4406 16.2762 21.4582 16.2415 21.4582 16.1998V15.0148C21.4582 14.9743 21.4406 14.9395 21.4053 14.9114C21.3704 14.8843 21.325 14.8708 21.2692 14.8708C21.2142 14.8708 21.1686 14.8843 21.1337 14.9114C21.0983 14.9395 21.0809 14.9743 21.0809 15.0148V16.1998Z" fill="#303030"/>
<path id="Vector_25" d="M22.0996 15.0148C22.0996 14.9473 22.1154 14.8866 22.1468 14.8337C22.1784 14.781 22.2206 14.7359 22.2734 14.6977C22.3262 14.6595 22.3874 14.6314 22.4567 14.6112C22.5257 14.592 22.5983 14.582 22.6735 14.582C22.7496 14.582 22.8215 14.592 22.8911 14.6112C22.9603 14.6314 23.021 14.6595 23.0739 14.6977C23.1273 14.7359 23.1688 14.781 23.2008 14.8337C23.2318 14.8866 23.2476 14.9473 23.2476 15.0148V16.1998C23.2476 16.2684 23.2318 16.3291 23.2008 16.382C23.1688 16.4348 23.1273 16.4798 23.0739 16.518C23.021 16.5551 22.9603 16.5843 22.8911 16.6046C22.8215 16.6237 22.7496 16.6339 22.6735 16.6339C22.5983 16.6339 22.5257 16.6237 22.4567 16.6046C22.3874 16.5843 22.3262 16.5551 22.2734 16.518C22.2206 16.4798 22.1784 16.4348 22.1468 16.382C22.1154 16.3291 22.0996 16.2684 22.0996 16.1998V15.0148ZM22.4853 16.1998C22.4853 16.2415 22.5027 16.2763 22.5381 16.3033C22.5729 16.3314 22.6185 16.3449 22.6735 16.3449C22.7293 16.3449 22.7747 16.3314 22.8096 16.3033C22.8451 16.2762 22.8625 16.2415 22.8625 16.1998V15.0148C22.8625 14.9743 22.8451 14.9395 22.8096 14.9114C22.7747 14.8843 22.7293 14.8708 22.6735 14.8708C22.6185 14.8708 22.5729 14.8843 22.5381 14.9114C22.5027 14.9395 22.4853 14.9743 22.4853 15.0148V16.1998Z" fill="#303030"/>
<path id="Vector_26" d="M24.9082 15.0148C24.9082 14.9473 24.924 14.8866 24.9555 14.8337C24.987 14.781 25.0291 14.7359 25.0819 14.6977C25.1348 14.6595 25.196 14.6314 25.2652 14.6112C25.3344 14.592 25.4068 14.582 25.4823 14.582C25.5581 14.582 25.6301 14.592 25.6998 14.6112C25.7689 14.6314 25.8296 14.6595 25.8824 14.6977C25.9359 14.7359 25.9775 14.781 26.0095 14.8337C26.0404 14.8866 26.0562 14.9473 26.0562 15.0148V16.1998C26.0562 16.2684 26.0404 16.3291 26.0095 16.382C25.9775 16.4348 25.9359 16.4798 25.8824 16.518C25.8296 16.5551 25.7689 16.5843 25.6998 16.6046C25.6301 16.6237 25.5581 16.6339 25.4823 16.6339C25.4068 16.6339 25.3344 16.6237 25.2652 16.6046C25.196 16.5843 25.1348 16.5551 25.0819 16.518C25.0291 16.4798 24.987 16.4348 24.9555 16.382C24.924 16.3291 24.9082 16.2684 24.9082 16.1998V15.0148ZM25.2939 16.1998C25.2939 16.2415 25.3113 16.2763 25.3467 16.3033C25.3816 16.3314 25.4271 16.3449 25.4822 16.3449C25.5379 16.3449 25.5834 16.3314 25.6182 16.3033C25.6536 16.2762 25.6711 16.2415 25.6711 16.1998V15.0148C25.6711 14.9743 25.6536 14.9395 25.6182 14.9114C25.5834 14.8843 25.5379 14.8708 25.4822 14.8708C25.4271 14.8708 25.3816 14.8843 25.3467 14.9114C25.3113 14.9395 25.2939 14.9743 25.2939 15.0148V16.1998Z" fill="#303030"/>
<path id="Vector_27" d="M26.3125 15.0148C26.3125 14.9473 26.3282 14.8866 26.3597 14.8337C26.3912 14.781 26.4333 14.7359 26.4862 14.6977C26.539 14.6595 26.6004 14.6314 26.6695 14.6112C26.7387 14.592 26.8112 14.582 26.8864 14.582C26.9623 14.582 27.0343 14.592 27.104 14.6112C27.1731 14.6314 27.2338 14.6595 27.2867 14.6977C27.3401 14.7359 27.3818 14.781 27.4138 14.8337C27.4447 14.8866 27.4604 14.9473 27.4604 15.0148V16.1998C27.4604 16.2684 27.4447 16.3291 27.4138 16.382C27.3818 16.4348 27.3401 16.4798 27.2867 16.518C27.2338 16.5551 27.1731 16.5843 27.104 16.6046C27.0343 16.6237 26.9623 16.6339 26.8864 16.6339C26.8112 16.6339 26.7387 16.6237 26.6695 16.6046C26.6004 16.5843 26.539 16.5551 26.4862 16.518C26.4333 16.4798 26.3912 16.4348 26.3597 16.382C26.3282 16.3291 26.3125 16.2684 26.3125 16.1998V15.0148ZM26.6981 16.1998C26.6981 16.2415 26.7156 16.2763 26.7509 16.3033C26.7858 16.3314 26.8314 16.3449 26.8864 16.3449C26.942 16.3449 26.9876 16.3314 27.0226 16.3033C27.0579 16.2762 27.0753 16.2415 27.0753 16.1998V15.0148C27.0753 14.9743 27.0579 14.9395 27.0226 14.9114C26.9876 14.8843 26.9421 14.8708 26.8864 14.8708C26.8314 14.8708 26.7858 14.8843 26.7509 14.9114C26.7156 14.9395 26.6981 14.9743 26.6981 15.0148V16.1998Z" fill="#303030"/>
<path id="Vector_28" d="M27.7188 15.0148C27.7188 14.9473 27.7344 14.8866 27.766 14.8337C27.7973 14.781 27.8395 14.7359 27.8923 14.6977C27.9452 14.6595 28.0066 14.6314 28.0756 14.6112C28.1448 14.592 28.2173 14.582 28.2927 14.582C28.3685 14.582 28.4405 14.592 28.5103 14.6112C28.5794 14.6314 28.6402 14.6595 28.6929 14.6977C28.7464 14.7359 28.7879 14.781 28.82 14.8337C28.851 14.8866 28.8666 14.9473 28.8666 15.0148V16.1998C28.8666 16.2684 28.851 16.3291 28.82 16.382C28.7879 16.4348 28.7464 16.4798 28.6929 16.518C28.6402 16.5551 28.5794 16.5843 28.5103 16.6046C28.4405 16.6237 28.3685 16.6339 28.2927 16.6339C28.2173 16.6339 28.1448 16.6237 28.0756 16.6046C28.0066 16.5843 27.9452 16.5551 27.8923 16.518C27.8395 16.4798 27.7973 16.4348 27.766 16.382C27.7344 16.3291 27.7188 16.2684 27.7188 16.1998V15.0148ZM28.1043 16.1998C28.1043 16.2415 28.1219 16.2763 28.1572 16.3033C28.192 16.3314 28.2376 16.3449 28.2927 16.3449C28.3483 16.3449 28.3939 16.3314 28.4287 16.3033C28.4641 16.2762 28.4816 16.2415 28.4816 16.1998V15.0148C28.4816 14.9743 28.4641 14.9395 28.4287 14.9114C28.3939 14.8843 28.3483 14.8708 28.2927 14.8708C28.2376 14.8708 28.192 14.8843 28.1572 14.9114C28.1219 14.9395 28.1043 14.9743 28.1043 15.0148V16.1998Z" fill="#303030"/>
<path id="Vector_29" d="M29.123 15.0148C29.123 14.9473 29.1388 14.8866 29.1703 14.8337C29.2017 14.781 29.244 14.7359 29.2968 14.6977C29.3497 14.6595 29.4109 14.6314 29.48 14.6112C29.5492 14.592 29.6217 14.582 29.697 14.582C29.7729 14.582 29.8449 14.592 29.9146 14.6112C29.9837 14.6314 30.0445 14.6595 30.0973 14.6977C30.1507 14.7359 30.1923 14.781 30.2243 14.8337C30.2552 14.8866 30.271 14.9473 30.271 15.0148V16.1998C30.271 16.2684 30.2552 16.3291 30.2243 16.382C30.1923 16.4348 30.1507 16.4798 30.0973 16.518C30.0445 16.5551 29.9837 16.5843 29.9146 16.6046C29.8448 16.6237 29.7729 16.6339 29.697 16.6339C29.6217 16.6339 29.5492 16.6237 29.48 16.6046C29.411 16.5843 29.3497 16.5551 29.2968 16.518C29.244 16.4798 29.2017 16.4348 29.1703 16.382C29.1388 16.3291 29.123 16.2684 29.123 16.1998V15.0148ZM29.5086 16.1998C29.5086 16.2415 29.5262 16.2763 29.5615 16.3033C29.5963 16.3314 29.642 16.3449 29.697 16.3449C29.7527 16.3449 29.7982 16.3314 29.833 16.3033C29.8685 16.2762 29.8859 16.2415 29.8859 16.1998V15.0148C29.8859 14.9743 29.8685 14.9395 29.833 14.9114C29.7982 14.8843 29.7527 14.8708 29.697 14.8708C29.642 14.8708 29.5963 14.8843 29.5615 14.9114C29.5262 14.9395 29.5086 14.9743 29.5086 15.0148V16.1998Z" fill="#303030"/>
</g>
<path id="Vector_30" d="M25.6622 19.7887C25.665 19.8036 25.6686 19.8182 25.6806 19.8361C25.8874 19.3134 26.0942 18.7912 26.3008 18.2695C26.5108 18.2695 26.7185 18.2695 26.9314 18.2695C26.92 18.2983 26.9105 18.3237 26.9 18.3487C26.5917 19.0845 26.2832 19.8202 25.9756 20.5563C25.9638 20.5842 25.9498 20.595 25.9183 20.5947C25.7321 20.5932 25.5457 20.5934 25.3594 20.5945C25.3313 20.5948 25.3195 20.5879 25.3119 20.5586C25.1563 19.9528 24.998 19.3475 24.8438 18.7414" fill="white"/>
<path id="Vector_31" d="M24.8449 18.7409C24.8172 18.6322 24.7627 18.5571 24.6589 18.5108C24.4881 18.4348 24.3104 18.3818 24.1289 18.3395C24.1209 18.3376 24.1133 18.3345 24.1055 18.332C24.1055 18.3264 24.1055 18.3209 24.1055 18.3153C24.1111 18.2697 24.1399 18.2654 24.1801 18.2656C24.4961 18.2674 24.8122 18.2666 25.1283 18.2667C25.2852 18.2667 25.3929 18.3542 25.4222 18.5085C25.5032 18.9349 25.583 19.3616 25.6634 19.7883" fill="#FFC601"/>
<path id="Vector_32" d="M29.0912 18.2246C29.1587 18.2358 29.2268 18.2445 29.2937 18.259C29.3596 18.2731 29.4243 18.2927 29.4892 18.3107C29.505 18.3151 29.5199 18.3223 29.5384 18.3294C29.5035 18.4919 29.4691 18.6531 29.4345 18.8144C29.3553 18.7893 29.2795 18.7609 29.2015 18.7419C29.0609 18.7079 28.9174 18.6931 28.7758 18.7311C28.7247 18.7451 28.6731 18.7739 28.633 18.8088C28.5653 18.8681 28.5652 18.9545 28.6306 19.0164C28.6753 19.0586 28.7277 19.0938 28.7807 19.1251C28.8862 19.1875 28.9971 19.2411 29.1012 19.3058C29.2413 19.3925 29.3578 19.5035 29.4044 19.6688C29.4723 19.9088 29.3981 20.2291 29.1307 20.422C28.9769 20.5331 28.8028 20.5912 28.6175 20.615C28.3259 20.6523 28.0398 20.6238 27.761 20.5281C27.7456 20.5228 27.7307 20.516 27.7109 20.5079C27.747 20.3389 27.7827 20.1713 27.8193 20C27.8429 20.0102 27.8632 20.0184 27.8828 20.0277C28.0552 20.1094 28.237 20.1486 28.4275 20.1464C28.5149 20.1454 28.6005 20.1318 28.6794 20.0902C28.8234 20.0141 28.8425 19.8665 28.7156 19.766C28.6536 19.7168 28.5822 19.6782 28.5115 19.6413C28.3938 19.5801 28.2774 19.5179 28.1752 19.432C27.8833 19.1869 27.9205 18.8442 28.0785 18.6135C28.2085 18.4239 28.3995 18.3236 28.6167 18.2687C28.6859 18.2512 28.7578 18.2447 28.8283 18.2329C28.8388 18.231 28.8489 18.2275 28.8592 18.2246C28.9366 18.2246 29.014 18.2246 29.0912 18.2246Z" fill="white"/>
<path id="Vector_33" d="M31.5566 20.5916C31.3683 20.5916 31.1876 20.5916 31.0022 20.5916C30.9846 20.5088 30.9666 20.426 30.9496 20.3429C30.9299 20.2452 30.9304 20.2452 30.8292 20.2452C30.6182 20.2452 30.407 20.2458 30.1958 20.2447C30.1664 20.2444 30.1521 20.2529 30.1425 20.2815C30.1107 20.3754 30.0766 20.4687 30.0413 20.5613C30.0363 20.5744 30.0187 20.5916 30.0067 20.5918C29.8067 20.5937 29.6067 20.5932 29.4023 20.5932C29.4074 20.5785 29.4107 20.567 29.4154 20.5561C29.7096 19.8535 30.0036 19.1509 30.2982 18.4484C30.3481 18.3293 30.4403 18.2678 30.5685 18.2677C30.734 18.2675 30.8995 18.2676 31.0711 18.2676C31.2327 19.0413 31.3943 19.8142 31.5566 20.5916ZM30.8297 19.7705C30.7692 19.4797 30.7098 19.1948 30.6503 18.9098C30.6472 18.9093 30.6441 18.909 30.641 18.9085C30.5375 19.1943 30.434 19.4799 30.3289 19.7705C30.4986 19.7705 30.6594 19.7705 30.8297 19.7705Z" fill="white"/>
<path id="Vector_34" d="M26.6953 20.5939C26.8622 19.8148 27.0276 19.0418 27.1929 18.2695C27.3942 18.2695 27.5913 18.2695 27.7932 18.2695C27.7772 18.3463 27.762 18.4202 27.7464 18.494C27.6006 19.1757 27.4544 19.8573 27.3101 20.5395C27.3009 20.583 27.2854 20.5958 27.2408 20.595C27.0767 20.592 26.9124 20.5939 26.7481 20.5939C26.7329 20.5939 26.718 20.5939 26.6953 20.5939Z" fill="white"/>
</g>
</svg>
