<svg width="60" height="36" viewBox="0 0 60 36" fill="none" xmlns="http://www.w3.org/2000/svg">
<g id="Group 1000003104">
<rect id="Rectangle" width="60" height="36" rx="4" fill="#ECECEC"/>
<g id="Group 1000002741">
<path id="Fill 333" fill-rule="evenodd" clip-rule="evenodd" d="M33.6778 18.2912C33.6778 24.7581 28.4358 29.9999 21.9691 29.9999C15.5021 29.9999 10.2598 24.7581 10.2598 18.2912C10.2598 11.8244 15.5021 6.58203 21.9691 6.58203C28.4358 6.58203 33.6778 11.8244 33.6778 18.2912Z" fill="#CC0000"/>
<path id="Fill 334" fill-rule="evenodd" clip-rule="evenodd" d="M37.6884 6.58203C34.6622 6.58203 31.9059 7.72983 29.8275 9.6128C29.4047 9.99657 29.01 10.4111 28.6457 10.8524H31.0114C31.3345 11.2458 31.6322 11.6593 31.904 12.0925H27.7529C27.5045 12.4905 27.2788 12.9041 27.0782 13.3327H32.5783C32.7663 13.734 32.9317 14.1474 33.0742 14.5722H26.5823C26.4472 14.976 26.3332 15.3897 26.2422 15.8116H33.414C33.5857 16.611 33.6771 17.4403 33.6771 18.2912C33.6771 19.5911 33.4652 20.8423 33.0742 22.0108H26.5823C26.7248 22.4353 26.8902 22.8492 27.0778 23.2511H32.5783C32.3774 23.6786 32.1527 24.0925 31.9029 24.4911H27.7529C28.0236 24.923 28.3218 25.3371 28.6457 25.7299H31.0107C30.6471 26.1716 30.252 26.5861 29.8279 26.9699C31.9061 28.8529 34.6622 29.9999 37.6884 29.9999C44.155 29.9999 49.3971 24.7581 49.3971 18.2912C49.3971 11.8249 44.155 6.58203 37.6884 6.58203Z" fill="#FF9900"/>
<path id="Fill 336" fill-rule="evenodd" clip-rule="evenodd" d="M19.234 19.5727C19.1006 19.5575 19.0417 19.5527 18.9501 19.5527C18.2296 19.5527 17.8652 19.7999 17.8652 20.2883C17.8652 20.589 18.0431 20.7801 18.3206 20.7801C18.8385 20.7801 19.2118 20.2872 19.234 19.5727ZM20.1595 21.7251C19.99 21.7251 19.1059 21.7251 19.1059 21.7251L19.1301 21.2245C18.8089 21.6198 18.3802 21.8085 17.7978 21.8085C17.1091 21.8085 16.6367 21.2708 16.6367 20.4894C16.6367 19.3131 17.4581 18.6271 18.8683 18.6271C19.0128 18.6271 19.1975 18.6405 19.3866 18.6643C19.4258 18.5048 19.4362 18.4371 19.4362 18.3511C19.4362 18.0313 19.2149 17.9114 18.6211 17.9114C17.9992 17.9051 17.4862 18.06 17.2755 18.1292C17.2888 18.0489 17.4518 17.0428 17.4518 17.0428C18.085 16.8567 18.5028 16.7871 18.973 16.7871C20.0648 16.7871 20.643 17.2771 20.6417 18.2034C20.6439 18.4519 20.6027 18.7574 20.5388 19.1604C20.4286 19.8599 20.1917 21.36 20.1595 21.7251Z" fill="#000066"/>
<path id="Fill 337" fill-rule="evenodd" clip-rule="evenodd" d="M16.1053 21.7244H14.8339L15.5626 17.1591L13.9363 21.7244H13.0701L12.9629 17.1846L12.1976 21.7244H11.0078L12.0017 15.7852H13.8297L13.9401 19.1096L15.0554 15.7852H17.0884L16.1053 21.7244Z" fill="#000066"/>
<path id="Fill 338" fill-rule="evenodd" clip-rule="evenodd" d="M39.2586 19.5727C39.1252 19.5575 39.0671 19.5527 38.9757 19.5527C38.2546 19.5527 37.8906 19.7999 37.8906 20.2883C37.8906 20.589 38.0677 20.7801 38.346 20.7801C38.8636 20.7801 39.237 20.2872 39.2586 19.5727ZM40.1847 21.7251C40.0148 21.7251 39.1315 21.7251 39.1315 21.7251L39.1553 21.2245C38.8341 21.6198 38.4056 21.8085 37.8236 21.8085C37.134 21.8085 36.6621 21.2708 36.6621 20.4894C36.6621 19.3131 37.4839 18.6271 38.8937 18.6271C39.038 18.6271 39.2223 18.6405 39.4116 18.6643C39.451 18.5048 39.4612 18.4371 39.4612 18.3511C39.4612 18.0313 39.2399 17.9114 38.6461 17.9114C38.0242 17.9051 37.5114 18.06 37.2999 18.1292C37.314 18.0489 37.4774 17.0428 37.4774 17.0428C38.1102 16.8567 38.5284 16.7871 38.9979 16.7871C40.0903 16.7871 40.6678 17.2771 40.6667 18.2034C40.669 18.4519 40.6281 18.7574 40.5639 19.1604C40.4539 19.8599 40.2165 21.36 40.1847 21.7251Z" fill="#000066"/>
<path id="Fill 339" fill-rule="evenodd" clip-rule="evenodd" d="M25.8089 21.6518C25.4609 21.7613 25.1898 21.8087 24.8956 21.8087C24.2459 21.8087 23.8912 21.4353 23.8912 20.7475C23.8821 20.534 23.9846 19.9724 24.0653 19.4602C24.139 19.0089 24.6167 16.1641 24.6167 16.1641H25.88L25.7325 16.8952H26.4958L26.3235 18.0561H25.5577C25.4109 18.9744 25.2016 20.1187 25.1992 20.2705C25.1992 20.5195 25.3321 20.6283 25.6346 20.6283C25.7795 20.6283 25.8917 20.6135 25.9773 20.5828L25.8089 21.6518Z" fill="#000066"/>
<path id="Fill 340" fill-rule="evenodd" clip-rule="evenodd" d="M29.6828 21.6126C29.2487 21.7452 28.8303 21.81 28.3864 21.8085C26.9718 21.8067 26.2344 21.0684 26.2344 19.6537C26.2344 18.0028 27.1723 16.7871 28.446 16.7871C29.4876 16.7871 30.1531 17.4677 30.1531 18.5346C30.1531 18.8893 30.1076 19.235 29.9972 19.7228H27.481C27.3961 20.4235 27.8442 20.7153 28.5798 20.7153C29.0314 20.7153 29.4396 20.6221 29.8932 20.4117L29.6828 21.6126ZM28.9733 18.749C28.9805 18.6482 29.1071 17.8867 28.3849 17.8867C27.983 17.8867 27.6949 18.1935 27.5781 18.749H28.9733Z" fill="#000066"/>
<path id="Fill 341" fill-rule="evenodd" clip-rule="evenodd" d="M20.9227 18.4221C20.9227 19.0326 21.2188 19.4539 21.8905 19.7705C22.405 20.0127 22.4852 20.0843 22.4852 20.3036C22.4852 20.6043 22.2579 20.7409 21.7552 20.7409C21.3757 20.7409 21.023 20.6813 20.6161 20.5497C20.6161 20.5497 20.4494 21.6148 20.4414 21.6657C20.7303 21.7282 20.9878 21.7865 21.7643 21.8085C23.1054 21.8085 23.7249 21.2978 23.7249 20.1941C23.7249 19.5305 23.4659 19.141 22.829 18.8479C22.2962 18.6035 22.2346 18.5487 22.2346 18.3233C22.2346 18.0622 22.4461 17.9288 22.8567 17.9288C23.1063 17.9288 23.447 17.9555 23.7703 18.0012L23.9511 16.8809C23.6221 16.8286 23.1228 16.7871 22.8323 16.7871C21.4105 16.7871 20.9181 17.5297 20.9227 18.4221Z" fill="#000066"/>
<path id="Fill 342" fill-rule="evenodd" clip-rule="evenodd" d="M35.8648 16.9144C36.2179 16.9144 36.5476 17.0062 37.0008 17.2351L37.209 15.9461C37.0221 15.8728 36.3669 15.4434 35.8117 15.4434C34.9613 15.4434 34.2415 15.866 33.7362 16.5619C32.9982 16.3177 32.6946 16.8114 32.323 17.3036L31.9927 17.3805C32.0177 17.2186 32.0404 17.0578 32.0332 16.8948H30.8653C30.7061 18.3901 30.4236 19.9041 30.2024 21.4L30.1445 21.7249H31.4163C31.6285 20.3456 31.7446 19.4628 31.8153 18.8647L32.2941 18.5994C32.3661 18.3328 32.5895 18.2432 33.0387 18.2541C32.9801 18.5691 32.9483 18.9008 32.9483 19.2441C32.9483 20.8245 33.802 21.8084 35.1698 21.8084C35.5223 21.8084 35.8251 21.7621 36.2938 21.6344L36.5166 20.281C36.095 20.4881 35.7499 20.5856 35.437 20.5856C34.698 20.5856 34.2507 20.0399 34.2507 19.1386C34.2507 17.8306 34.9154 16.9144 35.8648 16.9144Z" fill="#000066"/>
<path id="Fill 343" fill-rule="evenodd" clip-rule="evenodd" d="M46.6282 15.7871L46.3456 17.503C45.9987 17.0457 45.6252 16.7145 45.1323 16.7145C44.491 16.7145 43.9072 17.2008 43.5249 17.9169C42.9925 17.8064 42.4424 17.6186 42.4424 17.6186L42.442 17.6233C42.4844 17.223 42.5023 16.9795 42.4981 16.8962H41.3303C41.1717 18.3915 40.8888 19.9055 40.6678 21.4014L40.6094 21.7263H41.8815C42.0532 20.6116 42.1844 19.685 42.2812 18.9511C42.7161 18.5581 42.9337 18.2163 43.372 18.2385C43.1775 18.7089 43.0641 19.2503 43.0641 19.8058C43.0641 21.0128 43.6744 21.8098 44.5988 21.8098C45.0648 21.8098 45.4223 21.649 45.7709 21.2767L45.7109 21.726H46.9137L47.882 15.7871H46.6282ZM45.0384 20.6098C44.6058 20.6098 44.3867 20.2889 44.3867 19.6576C44.3867 18.7081 44.7962 18.0352 45.3726 18.0352C45.8095 18.0352 46.0463 18.3675 46.0463 18.9811C46.0463 19.9387 45.63 20.6098 45.0384 20.6098Z" fill="#000066"/>
<path id="Fill 344" fill-rule="evenodd" clip-rule="evenodd" d="M16.4703 21.3723H15.1993L15.9278 16.807L14.3019 21.3723H13.4353L13.3284 16.8334L12.5629 21.3723H11.373L12.3669 15.4336H14.1949L14.246 19.11L15.4794 15.4336H17.4536L16.4703 21.3723Z" fill="white"/>
<path id="Fill 345" fill-rule="evenodd" clip-rule="evenodd" d="M19.5992 19.219C19.466 19.2035 19.4071 19.1992 19.3155 19.1992C18.595 19.1992 18.2305 19.4461 18.2305 19.934C18.2305 20.2343 18.4085 20.4266 18.6862 20.4266C19.204 20.4266 19.5772 19.9336 19.5992 19.219ZM20.5244 21.3716C20.3551 21.3716 19.4713 21.3716 19.4713 21.3716L19.4954 20.8714C19.1741 21.2665 18.7454 21.4554 18.1631 21.4554C17.4742 21.4554 17.002 20.9169 17.002 20.1357C17.002 18.9592 17.8235 18.2742 19.2337 18.2742C19.3779 18.2742 19.5625 18.2873 19.7518 18.3117C19.7911 18.1519 19.8014 18.084 19.8014 17.9975C19.8014 17.678 19.5801 17.559 18.9863 17.559C18.3642 17.5516 17.8515 17.7065 17.6405 17.7755C17.654 17.6956 17.8169 16.6895 17.8169 16.6895C18.4503 16.5037 18.8681 16.4336 19.3383 16.4336C20.4298 16.4336 21.0079 16.9241 21.007 17.8501C21.009 18.0982 20.9681 18.4052 20.9041 18.8071C20.7936 19.506 20.5568 21.007 20.5244 21.3716Z" fill="white"/>
<path id="Fill 346" fill-rule="evenodd" clip-rule="evenodd" d="M37.5746 15.5936L37.3665 16.8824C36.9126 16.6543 36.5837 16.5619 36.231 16.5619C35.282 16.5619 34.6162 17.4792 34.6162 18.7874C34.6162 19.6887 35.0636 20.2333 35.8027 20.2333C36.1158 20.2333 36.4616 20.1365 36.8822 19.9287L36.6589 21.2821C36.1909 21.4096 35.888 21.4562 35.5357 21.4562C34.1669 21.4562 33.3145 20.4722 33.3145 18.8921C33.3145 16.769 34.493 15.2852 36.1776 15.2852C36.7327 15.2852 37.3883 15.5203 37.5746 15.5936Z" fill="white"/>
<path id="Fill 347" fill-rule="evenodd" clip-rule="evenodd" d="M39.6237 19.219C39.4912 19.2035 39.4322 19.1992 39.3407 19.1992C38.6206 19.1992 38.2559 19.4461 38.2559 19.934C38.2559 20.2343 38.4337 20.4266 38.7112 20.4266C39.2288 20.4266 39.6024 19.9336 39.6237 19.219ZM40.5496 21.3716C40.3804 21.3716 39.4965 21.3716 39.4965 21.3716L39.5204 20.8714C39.1992 21.2665 38.7704 21.4554 38.1887 21.4554C37.499 21.4554 37.0273 20.9169 37.0273 20.1357C37.0273 18.9592 37.8482 18.2742 39.2587 18.2742C39.4029 18.2742 39.5872 18.2873 39.7763 18.3117C39.8157 18.1519 39.8261 18.084 39.8261 17.9975C39.8261 17.678 39.6053 17.559 39.0112 17.559C38.3896 17.5516 37.877 17.7065 37.6657 17.7755C37.6791 17.6956 37.8421 16.6895 37.8421 16.6895C38.4755 16.5037 38.8929 16.4336 39.3631 16.4336C40.4546 16.4336 41.0333 16.9241 41.0318 17.8501C41.0344 18.0982 40.9931 18.4052 40.9291 18.8071C40.819 19.506 40.5821 21.007 40.5496 21.3716Z" fill="white"/>
<path id="Fill 348" fill-rule="evenodd" clip-rule="evenodd" d="M26.1742 21.2999C25.8265 21.4094 25.555 21.457 25.2612 21.457C24.6113 21.457 24.2564 21.0834 24.2564 20.3963C24.2475 20.182 24.3502 19.6214 24.4311 19.1086C24.5042 18.6569 24.9821 15.8125 24.9821 15.8125H26.2458L26.0979 16.5434H26.7467L26.5738 17.704H25.9231C25.7763 18.6233 25.567 19.7668 25.5644 19.9185C25.5644 20.1683 25.6979 20.2764 26 20.2764C26.1449 20.2764 26.2569 20.2622 26.3429 20.2307L26.1742 21.2999Z" fill="white"/>
<path id="Fill 349" fill-rule="evenodd" clip-rule="evenodd" d="M30.0482 21.26C29.6139 21.393 29.1946 21.4558 28.7513 21.4554C27.3364 21.4545 26.5996 20.7152 26.5996 19.3008C26.5996 17.6493 27.5374 16.4336 28.8101 16.4336C29.8528 16.4336 30.518 17.1142 30.518 18.1824C30.518 18.5364 30.4718 18.8819 30.3626 19.3698H27.846C27.7607 20.0705 28.2095 20.3629 28.9442 20.3629C29.3963 20.3629 29.8043 20.2693 30.2584 20.0583L30.0482 21.26ZM29.3389 18.3953C29.3458 18.2943 29.4729 17.5332 28.7509 17.5332C28.3486 17.5332 28.0605 17.8406 27.9434 18.3953H29.3389Z" fill="white"/>
<path id="Fill 350" fill-rule="evenodd" clip-rule="evenodd" d="M21.2876 18.0706C21.2876 18.6821 21.584 19.1025 22.2559 19.4195C22.7705 19.6615 22.8502 19.7331 22.8502 19.9526C22.8502 20.2537 22.6232 20.3895 22.1201 20.3895C21.7409 20.3895 21.388 20.3306 20.9809 20.1994C20.9809 20.1994 20.8144 21.2638 20.8066 21.3139C21.0953 21.3772 21.3531 21.435 22.1291 21.4573C23.4707 21.4573 24.0902 20.9468 24.0902 19.8431C24.0902 19.1791 23.8307 18.7898 23.194 18.4974C22.6611 18.2523 22.5999 18.1981 22.5999 17.9723C22.5999 17.7112 22.8112 17.5769 23.2221 17.5769C23.4712 17.5769 23.8122 17.6046 24.1353 17.6501L24.3163 16.5301C23.9871 16.4781 23.4882 16.4355 23.1975 16.4355C21.7753 16.4355 21.2833 17.1783 21.2876 18.0706Z" fill="white"/>
<path id="Fill 351" fill-rule="evenodd" clip-rule="evenodd" d="M47.2775 21.3723H46.0751L46.1347 20.9228C45.7859 21.2953 45.4286 21.4561 44.9626 21.4561C44.0389 21.4561 43.4277 20.66 43.4277 19.4517C43.4277 17.8452 44.3753 16.4911 45.4961 16.4911C45.9891 16.4911 46.3623 16.6924 46.71 17.1498L46.992 15.4336H48.2456L47.2775 21.3723ZM45.4015 20.2563C45.9938 20.2563 46.4094 19.5855 46.4094 18.6289C46.4094 18.0151 46.1728 17.6816 45.7359 17.6816C45.1593 17.6816 44.75 18.3548 44.75 19.3046C44.75 19.9367 44.9693 20.2563 45.4015 20.2563Z" fill="white"/>
<path id="Fill 352" fill-rule="evenodd" clip-rule="evenodd" d="M41.6953 16.5421C41.5364 18.037 41.2536 19.551 41.0325 21.0471L40.9746 21.3718H42.246C42.7008 18.4182 42.8102 17.8418 43.5237 17.9138C43.6371 17.3093 43.8486 16.7799 44.0061 16.513C43.4738 16.402 43.1764 16.7029 42.7867 17.2747C42.8178 17.0273 42.8739 16.7873 42.8633 16.5421H41.6953Z" fill="white"/>
<path id="Fill 353" fill-rule="evenodd" clip-rule="evenodd" d="M31.2311 16.5421C31.0714 18.037 30.7883 19.551 30.5675 21.0471L30.5098 21.3718H31.7815C32.2366 18.4182 32.3455 17.8418 33.0579 17.9138C33.1721 17.3093 33.384 16.7799 33.5411 16.513C33.0093 16.402 32.7114 16.7029 32.3224 17.2747C32.3531 17.0273 32.4096 16.7873 32.3985 16.5421H31.2311Z" fill="white"/>
</g>
</g>
</svg>
