<svg width="60" height="36" viewBox="0 0 60 36" fill="none" xmlns="http://www.w3.org/2000/svg">
<g id="Group 1000003105">
<rect id="Rectangle" width="60" height="36" rx="4" fill="#ECECEC"/>
<path id="Fill 356" fill-rule="evenodd" clip-rule="evenodd" d="M50.194 17.9906C50.194 24.6238 44.8385 30.0004 38.2305 30.0004C31.6238 30.0004 26.2676 24.6238 26.2676 17.9906C26.2676 11.3572 31.6238 5.98047 38.2305 5.98047C44.8385 5.98047 50.194 11.3572 50.194 17.9906Z" fill="#CC0000"/>
<path id="Fill 357" fill-rule="evenodd" clip-rule="evenodd" d="M28.989 25.6174C28.6586 25.2152 28.3544 24.7903 28.0778 24.3454H32.3177C32.5722 23.9377 32.802 23.5129 33.0071 23.0736H27.3888C27.1972 22.6621 27.0271 22.2377 26.8822 21.8021H33.5127C33.912 20.6045 34.1278 19.3234 34.1278 17.9906C34.1278 17.1179 34.0351 16.2669 33.8593 15.4473H26.5366C26.6292 15.014 26.7461 14.59 26.8837 14.1755H33.5119C33.3665 13.7399 33.1973 13.3157 33.006 12.9042H27.3899C27.5951 12.4649 27.8254 12.0409 28.0791 11.6322H32.3164C32.04 11.1885 31.735 10.7643 31.4052 10.3615H28.9905C29.362 9.90888 29.7657 9.48392 30.1979 9.09048C28.0746 7.15778 25.2563 5.98047 22.165 5.98047C15.5574 5.98047 10.2012 11.3572 10.2012 17.9906C10.2012 24.6238 15.5574 30.0004 22.165 30.0004C25.2565 30.0004 28.0749 28.8231 30.1979 26.8911C30.6307 26.4969 31.035 26.071 31.4065 25.6174H28.989Z" fill="#0066CC"/>
<path id="Fill 359" fill-rule="evenodd" clip-rule="evenodd" d="M30.0272 21.2348C29.5159 21.3707 29.0215 21.4372 28.4988 21.436C26.8313 21.4345 25.9629 20.6721 25.9629 19.2141C25.9629 17.5107 27.0684 16.2578 28.5692 16.2578C29.7967 16.2578 30.5802 16.9602 30.5802 18.0609C30.5802 18.426 30.5273 18.7819 30.3974 19.2849H27.432C27.3265 19.997 27.8444 20.3096 28.7261 20.3096C29.2542 20.3096 29.7316 20.2143 30.2607 20.0008L30.0272 21.2348ZM29.2304 18.2791C29.2304 18.1716 29.3952 17.4071 28.537 17.3906C28.0632 17.3906 27.7234 17.7068 27.5859 18.2791H29.2304Z" fill="#000066"/>
<path id="Fill 360" fill-rule="evenodd" clip-rule="evenodd" d="M31.0327 17.9474C31.0327 18.5766 31.3855 19.0114 32.1877 19.335C32.8009 19.5871 32.8974 19.6602 32.8974 19.8855C32.8974 20.1977 32.6266 20.3408 32.0249 20.337C31.5732 20.3338 31.1609 20.2785 30.6743 20.1432L30.459 21.2909C30.8916 21.3917 31.498 21.4247 32.0355 21.4372C33.6369 21.4372 34.3762 20.9109 34.3762 19.7733C34.3762 19.0893 34.0678 18.6871 33.3073 18.3872C32.6716 18.1321 32.5971 18.0773 32.5971 17.8463C32.5971 17.5752 32.849 17.4382 33.34 17.4382C33.6378 17.4382 34.0453 17.4655 34.4321 17.5126L34.649 16.3586C34.255 16.3038 33.6573 16.2598 33.3111 16.2598C31.6146 16.2598 31.0275 17.0264 31.0327 17.9474Z" fill="#000066"/>
<path id="Fill 361" fill-rule="evenodd" clip-rule="evenodd" d="M25.1501 21.3539H23.9061L23.9358 20.8308C23.5565 21.2434 23.0511 21.4357 22.3655 21.4357C21.5539 21.4357 20.998 20.8786 20.998 20.0775C20.998 18.8597 21.9644 18.1573 23.6261 18.1573C23.7968 18.1573 24.0141 18.1702 24.2372 18.1954C24.2833 18.0324 24.2958 17.9622 24.2958 17.8737C24.2958 17.5405 24.0343 17.4177 23.3351 17.4177C22.6457 17.4203 22.1806 17.523 21.7489 17.6393L21.9614 16.5222C22.7079 16.3316 23.1965 16.2578 23.7495 16.2578C25.0362 16.2578 25.7158 16.7646 25.7158 17.7162C25.7266 17.9703 25.6386 18.4801 25.5942 18.7033C25.5439 19.0277 25.1873 20.9097 25.1501 21.3539ZM24.058 19.1316C23.9005 19.1161 23.8318 19.1113 23.7239 19.1113C22.8755 19.1113 22.4453 19.3649 22.4453 19.8654C22.4453 20.1797 22.6552 20.3761 22.9825 20.3761C23.5921 20.3761 24.0323 19.8643 24.058 19.1316Z" fill="#000066"/>
<path id="Fill 362" fill-rule="evenodd" clip-rule="evenodd" d="M36.9966 21.2754C36.5885 21.3876 36.2703 21.4366 35.9264 21.4366C35.1644 21.4366 34.7482 21.0456 34.7482 20.3494C34.7242 20.1581 34.9105 19.2744 34.9528 19.0282C34.9948 18.7813 35.6549 15.1816 35.6549 15.1816H37.1354L36.9115 16.3728H37.6708L37.4646 17.5881H36.7018C36.7018 17.5881 36.2834 19.698 36.2834 19.8594C36.2834 20.115 36.4377 20.2262 36.7922 20.2262C36.9616 20.2262 37.0926 20.2103 37.1938 20.1799L36.9966 21.2754Z" fill="#000066"/>
<path id="Fill 363" fill-rule="evenodd" clip-rule="evenodd" d="M43.6117 16.2582C42.5265 16.2582 41.6787 16.7071 41.1861 17.4556L41.6136 16.3449C40.8259 16.0547 40.3181 16.469 39.8592 17.0578C39.8592 17.0578 39.7822 17.1555 39.7054 17.2449V16.3721H38.3153C38.127 17.9126 37.794 19.475 37.5337 21.019L37.4707 21.3548H38.9661C39.1081 20.5713 39.2246 19.9355 39.3407 19.4284C39.6584 18.0371 40.1931 17.612 40.9957 17.8003C40.8104 18.1998 40.7089 18.6629 40.7089 19.1752C40.7089 20.4189 41.3813 21.4364 43.0518 21.4364C44.7373 21.4364 45.9578 20.5326 45.9578 18.4716C45.9578 17.2286 45.1443 16.2582 43.6117 16.2582ZM43.1765 20.2281C42.6484 20.2363 42.3281 19.7914 42.3281 19.1256C42.3281 18.3368 42.7953 17.4453 43.5462 17.4453C44.152 17.4453 44.3594 17.9276 44.3594 18.4414C44.3594 19.5634 43.9013 20.2281 43.1765 20.2281Z" fill="#000066"/>
<path id="Fill 364" fill-rule="evenodd" clip-rule="evenodd" d="M20.3012 21.3547H18.8118L19.6969 16.6735L17.6592 21.3547H16.3016L16.0535 16.7011L15.1656 21.3547H13.8145L14.9652 15.2656H17.2926L17.4864 18.6601L18.9608 15.2656H21.475L20.3012 21.3547Z" fill="#000066"/>
<path id="Fill 366" fill-rule="evenodd" clip-rule="evenodd" d="M30.4018 20.8597C29.8909 20.9957 29.3963 21.0622 28.8738 21.061C27.2063 21.0595 26.3379 20.2969 26.3379 18.8391C26.3379 17.1357 27.4433 15.8828 28.9438 15.8828C30.1715 15.8828 30.9552 16.5852 30.9552 17.6857C30.9552 18.0509 30.9021 18.406 30.7724 18.9099H27.8072C27.7015 19.6212 28.2191 19.9344 29.1007 19.9344C29.6288 19.9344 30.1066 19.8391 30.6355 19.6252L30.4018 20.8597ZM29.6034 17.9043C29.6034 17.7966 29.7683 17.0323 28.9104 17.0156C28.4366 17.0156 28.0968 17.3318 27.959 17.9043H29.6034Z" fill="white"/>
<path id="Fill 367" fill-rule="evenodd" clip-rule="evenodd" d="M31.4061 17.5722C31.4061 18.2016 31.7587 18.6361 32.5608 18.96C33.1744 19.2123 33.2706 19.2852 33.2706 19.5099C33.2706 19.8227 32.9996 19.9658 32.3986 19.9622C31.9463 19.9587 31.5339 19.9035 31.0478 19.7682L30.832 20.9155C31.2648 21.0167 31.8716 21.0497 32.4086 21.0624C34.0099 21.0624 34.7496 20.5359 34.7496 19.3979C34.7496 18.7143 34.441 18.3117 33.6805 18.0122C33.0448 17.7573 32.9702 17.7017 32.9702 17.4715C32.9702 17.2004 33.2224 17.0628 33.7132 17.0628C34.011 17.0628 34.4183 17.0907 34.8054 17.1378L35.0222 15.9838C34.6282 15.9282 34.0305 15.8848 33.6847 15.8848C31.9879 15.8848 31.4008 16.651 31.4061 17.5722Z" fill="white"/>
<path id="Fill 368" fill-rule="evenodd" clip-rule="evenodd" d="M25.5235 20.9787H24.2792L24.3092 20.4556C23.9297 20.8678 23.4247 21.0599 22.7389 21.0599C21.9276 21.0599 21.3711 20.503 21.3711 19.7019C21.3711 18.4845 22.3377 17.7821 23.9993 17.7821C24.1701 17.7821 24.3871 17.7952 24.6106 17.8195C24.6567 17.6568 24.669 17.5872 24.669 17.4986C24.669 17.1645 24.4077 17.0423 23.7087 17.0423C23.0191 17.0451 22.554 17.1478 22.1225 17.2643L22.3345 16.147C23.0811 15.9565 23.5695 15.8828 24.123 15.8828C25.4097 15.8828 26.089 16.389 26.089 17.341C26.1002 17.5953 26.0117 18.1042 25.9678 18.3282C25.917 18.6525 25.5605 20.5345 25.5235 20.9787ZM24.431 18.7568C24.2737 18.7405 24.2049 18.7363 24.0967 18.7363C23.2487 18.7363 22.8184 18.9895 22.8184 19.4896C22.8184 19.8045 23.0286 20.0013 23.3553 20.0013C23.9653 20.0013 24.4055 19.4889 24.431 18.7568Z" fill="white"/>
<path id="Fill 369" fill-rule="evenodd" clip-rule="evenodd" d="M37.3695 20.9004C36.9612 21.0128 36.6432 21.0618 36.2991 21.0618C35.5371 21.0618 35.1213 20.6706 35.1213 19.9744C35.0971 19.7831 35.2833 18.8994 35.3255 18.6532C35.3679 18.4063 36.0279 14.8066 36.0279 14.8066H37.5083L37.2846 15.9974H38.0439L37.8374 17.2131H37.0749C37.0749 17.2131 36.6561 19.323 36.6561 19.4836C36.6561 19.7402 36.8105 19.8507 37.1651 19.8507C37.3345 19.8507 37.4653 19.8355 37.5671 19.8047L37.3695 20.9004Z" fill="white"/>
<path id="Fill 370" fill-rule="evenodd" clip-rule="evenodd" d="M44.7328 18.0656C44.7328 19.1886 44.2741 19.8533 43.5494 19.8533C43.0213 19.8609 42.7012 19.4166 42.7012 18.7508C42.7012 17.962 43.1684 17.0703 43.919 17.0703C44.525 17.0703 44.7328 17.5526 44.7328 18.0656ZM46.3309 18.096C46.3309 16.8532 45.5173 15.8828 43.985 15.8828C42.2222 15.8828 41.082 17.0622 41.082 18.7998C41.082 20.0433 41.7544 21.061 43.4251 21.061C45.1106 21.061 46.3309 20.1572 46.3309 18.096Z" fill="white"/>
<path id="Fill 371" fill-rule="evenodd" clip-rule="evenodd" d="M38.688 15.9961C38.4999 17.537 38.1667 19.0992 37.9065 20.643L37.8438 20.9794H39.339C39.8779 17.9975 40.0588 17.1481 41.1882 17.4471L41.7314 16.0363C40.9435 15.7461 40.4366 16.1606 39.9777 16.7497C40.0191 16.4846 40.097 16.2286 40.0783 15.9961H38.688Z" fill="white"/>
<path id="Fill 372" fill-rule="evenodd" clip-rule="evenodd" d="M20.6743 20.9799H19.1853L20.0702 16.2987L18.0323 20.9799H16.6747L16.4264 16.3261L15.5385 20.9799H14.1875L15.3381 14.8906H17.6656L17.7885 18.6604L19.4269 14.8906H21.8481L20.6743 20.9799Z" fill="white"/>
</g>
</svg>
