<svg width="60" height="36" viewBox="0 0 60 36" fill="none" xmlns="http://www.w3.org/2000/svg">
<g id="Group 1000003108">
<g id="Group 1000003107">
<rect id="Rectangle" width="60" height="36" rx="4" transform="matrix(1 0 0 -1 0 36)" fill="#ECECEC"/>
<g id="Group 1000003115">
<path id="Shape" fill-rule="evenodd" clip-rule="evenodd" d="M38.1441 15.2929C37.9519 16.5549 36.9882 16.5549 36.0558 16.5549H35.5254L35.8976 14.1986C35.9198 14.0563 36.0426 13.9516 36.1868 13.9516H36.4302C37.0648 13.9516 37.6641 13.9516 37.9732 14.3128C38.1582 14.5291 38.2139 14.85 38.1441 15.2929ZM37.7382 11.9994H34.2224C33.9817 11.9994 33.7773 12.1744 33.7397 12.4119L32.3181 21.4272C32.29 21.6049 32.4278 21.7658 32.6073 21.7658H34.4115C34.5796 21.7658 34.7229 21.6434 34.7492 21.4775L35.1526 18.9213C35.1898 18.6838 35.3947 18.5088 35.6349 18.5088H36.7473C39.0633 18.5088 40.4 17.3883 40.7491 15.1666C40.9064 14.1956 40.7554 13.4323 40.3008 12.8978C39.8008 12.3104 38.9146 11.9994 37.7382 11.9994Z" fill="#0079C1"/>
<path id="Shape_2" fill-rule="evenodd" clip-rule="evenodd" d="M13.0699 15.2929C12.8777 16.5549 11.914 16.5549 10.9815 16.5549H10.4512L10.8233 14.1986C10.8455 14.0563 10.9684 13.9516 11.1125 13.9516H11.356C11.9906 13.9516 12.5899 13.9516 12.899 14.3128C13.084 14.5291 13.1397 14.85 13.0699 15.2929ZM12.664 11.9994H9.14822C8.90752 11.9994 8.70308 12.1744 8.66545 12.4119L7.24389 21.4272C7.21579 21.6049 7.35314 21.7658 7.5331 21.7658H9.21214C9.45239 21.7658 9.65683 21.5908 9.69445 21.3538L10.0784 18.9213C10.1156 18.6838 10.3205 18.5088 10.5607 18.5088H11.6731C13.989 18.5088 15.3258 17.3883 15.6749 15.1666C15.8322 14.1956 15.6812 13.4323 15.2266 12.8978C14.7266 12.3104 13.8404 11.9994 12.664 11.9994Z" fill="#00457C"/>
<path id="Shape_3" fill-rule="evenodd" clip-rule="evenodd" d="M20.8277 18.529C20.665 19.4909 19.9016 20.1369 18.9275 20.1369C18.4392 20.1369 18.048 19.9796 17.7969 19.6822C17.548 19.3876 17.4542 18.9674 17.5331 18.5C17.6845 17.5463 18.4605 16.8799 19.4197 16.8799C19.898 16.8799 20.286 17.0386 20.5421 17.3387C20.8 17.641 20.9016 18.0635 20.8277 18.529ZM23.1728 15.2517H21.4893C21.3451 15.2517 21.2223 15.3564 21.1996 15.4992L21.1257 15.9697L21.0083 15.7993C20.6434 15.2703 19.8306 15.093 19.0192 15.093C17.1593 15.093 15.5705 16.5028 15.2613 18.4797C15.1004 19.4661 15.3289 20.4085 15.8883 21.0662C16.4019 21.6705 17.1348 21.9221 18.0084 21.9221C19.5079 21.9221 20.3392 20.9592 20.3392 20.9592L20.264 21.4271C20.2359 21.6047 20.3732 21.7657 20.5537 21.7657H22.0695C22.3102 21.7657 22.5146 21.5911 22.5523 21.3536L23.4625 15.5903C23.4906 15.4126 23.3528 15.2517 23.1728 15.2517Z" fill="#00457C"/>
<path id="Shape_4" fill-rule="evenodd" clip-rule="evenodd" d="M45.9039 18.531C45.7412 19.4929 44.9778 20.1389 44.0037 20.1389C43.5155 20.1389 43.1243 19.9816 42.8731 19.6842C42.6238 19.3895 42.5304 18.9693 42.6093 18.502C42.7607 17.5482 43.5368 16.8819 44.496 16.8819C44.9742 16.8819 45.3622 17.0405 45.6183 17.3406C45.8763 17.643 45.9778 18.0654 45.9039 18.531ZM48.249 15.2537H46.5654C46.4213 15.2537 46.2985 15.3584 46.2758 15.5012L46.2019 15.9717L46.084 15.8012C45.7196 15.2722 44.9068 15.095 44.0954 15.095C42.2355 15.095 40.6467 16.5048 40.3375 18.4816C40.1766 19.468 40.4051 20.4104 40.9644 21.0682C41.478 21.6724 42.211 21.924 43.0845 21.924C44.5841 21.924 45.4154 20.9612 45.4154 20.9612L45.3402 21.429C45.3121 21.6067 45.4494 21.7676 45.6298 21.7676H47.1457C47.3864 21.7676 47.5908 21.5931 47.6284 21.3556L48.5387 15.5923C48.5668 15.4146 48.429 15.2537 48.249 15.2537Z" fill="#0079C1"/>
<path id="Shape_5" fill-rule="evenodd" clip-rule="evenodd" d="M32.488 15.0449H30.6165C30.4376 15.0449 30.2701 15.1271 30.1699 15.2644L27.588 18.7835L26.4941 15.4017C26.4255 15.1902 26.2149 15.0449 25.9763 15.0449H24.1369C23.9148 15.0449 23.7584 15.2472 23.8301 15.4417L25.8905 21.0404L23.9524 23.5716C23.8005 23.7702 23.9539 24.0449 24.2171 24.0449H26.0866C26.2635 24.0449 26.4295 23.9646 26.5307 23.8301L32.7542 15.5159C32.9031 15.3168 32.7497 15.0449 32.488 15.0449Z" fill="#00457C"/>
<path id="Shape_6" fill-rule="evenodd" clip-rule="evenodd" d="M50.3963 12.2983L48.8165 21.6982C48.7857 21.8802 48.9361 22.0449 49.1332 22.0449H50.7224C50.9855 22.0449 51.2098 21.8658 51.2505 21.6226L52.8085 12.3916C52.8393 12.2097 52.6889 12.0449 52.4913 12.0449H50.7135C50.5552 12.0449 50.4206 12.1521 50.3963 12.2983Z" fill="#0079C1"/>
</g>
</g>
</g>
</svg>
