<svg width="24" height="24" viewBox="0 0 24 24" fill="none" xmlns="http://www.w3.org/2000/svg">
<g id="iconamoon:search">
<path id="Vector" d="M21 20.6667L16.657 16.4845M16.657 16.4845C17.3999 15.7691 17.9892 14.9199 18.3912 13.9852C18.7933 13.0505 19.0002 12.0487 19.0002 11.037C19.0002 10.0253 18.7933 9.02356 18.3912 8.08888C17.9892 7.1542 17.3999 6.30492 16.657 5.58955C15.9141 4.87418 15.0322 4.30671 14.0615 3.91955C13.0909 3.5324 12.0506 3.33313 11 3.33313C9.9494 3.33313 8.90908 3.5324 7.93845 3.91955C6.96782 4.30671 6.08589 4.87418 5.343 5.58955C3.84267 7.03431 2.99979 8.99383 2.99979 11.037C2.99979 13.0802 3.84267 15.0398 5.343 16.4845C6.84333 17.9293 8.87821 18.7409 11 18.7409C13.1218 18.7409 15.1567 17.9293 16.657 16.4845Z" stroke="#28292B" stroke-width="2" stroke-linecap="round" stroke-linejoin="round"/>
</g>
</svg>
