<svg width="12" height="11" viewBox="0 0 12 11" fill="none" xmlns="http://www.w3.org/2000/svg">
<g id="image" clip-path="url(#clip0_218_10755)">
<g id="Group">
<path id="Vector" d="M3.23414 9.84371L4.88219 8.19567C4.98817 8.09105 5.06077 7.95737 5.0908 7.8115C5.12083 7.66564 5.10695 7.51415 5.05091 7.37617L5.71675 6.70731C6.33678 7.21821 7.12964 7.47089 7.93095 7.41298C8.73225 7.35506 9.48054 6.99099 10.0207 6.39624C10.5608 5.8015 10.8513 5.02171 10.832 4.21854C10.8126 3.41538 10.485 2.65045 9.91688 2.08237C9.3488 1.51428 8.58387 1.18661 7.78071 1.16729C6.97754 1.14797 6.19775 1.43848 5.603 1.9786C5.00826 2.51871 4.64419 3.267 4.58627 4.0683C4.52836 4.86961 4.78104 5.66247 5.29194 6.2825L4.61103 6.96341C4.47461 6.90995 4.32557 6.89744 4.18215 6.92741C4.03874 6.95738 3.90717 7.02852 3.80358 7.13213L2.1706 8.77716C2.02916 8.91859 1.94971 9.11042 1.94971 9.31044C1.94971 9.51045 2.02916 9.70228 2.1706 9.84371C2.31203 9.98515 2.50386 10.0646 2.70388 10.0646C2.9039 10.0646 3.09572 9.98515 3.23716 9.84371H3.23414ZM5.94573 6.08063C5.59182 5.72668 5.35081 5.27573 5.25317 4.78481C5.15554 4.29389 5.20568 3.78504 5.39724 3.32261C5.58879 2.86018 5.91318 2.46493 6.32936 2.18685C6.74555 1.90878 7.23484 1.76035 7.73538 1.76035C8.23592 1.76035 8.72521 1.90878 9.1414 2.18685C9.55758 2.46493 9.88196 2.86018 10.0735 3.32261C10.2651 3.78504 10.3152 4.29389 10.2176 4.78481C10.12 5.27573 9.87894 5.72668 9.52503 6.08063C9.2894 6.31692 9.00941 6.50434 8.70115 6.63212C8.39289 6.75991 8.06243 6.82554 7.72873 6.82526C7.39503 6.82498 7.06468 6.75879 6.75663 6.63049C6.44858 6.50219 6.16891 6.3143 5.93368 6.07762L5.94573 6.08063Z" fill="#212121"/>
</g>
</g>
<defs>
<clipPath id="clip0_218_10755">
<rect width="10.8464" height="10.8464" fill="white" transform="translate(0.895996 0.145325)"/>
</clipPath>
</defs>
</svg>
