<svg width="20" height="20" viewBox="0 0 20 20" fill="none" xmlns="http://www.w3.org/2000/svg">
<path d="M19.0002 18.3335L14.6572 14.1514M14.6572 14.1514C15.4001 13.436 15.9894 12.5867 16.3914 11.6521C16.7935 10.7174 17.0004 9.71559 17.0004 8.7039C17.0004 7.69221 16.7935 6.69043 16.3914 5.75575C15.9894 4.82107 15.4001 3.97179 14.6572 3.25642C13.9143 2.54105 13.0324 1.97358 12.0618 1.58642C11.0911 1.19927 10.0508 1 9.00021 1C7.9496 1 6.90929 1.19927 5.93866 1.58642C4.96803 1.97358 4.08609 2.54105 3.34321 3.25642C1.84288 4.70118 1 6.6607 1 8.7039C1 10.7471 1.84288 12.7066 3.34321 14.1514C4.84354 15.5961 6.87842 16.4078 9.00021 16.4078C11.122 16.4078 13.1569 15.5961 14.6572 14.1514Z" stroke="black" stroke-width="2" stroke-linecap="round" stroke-linejoin="round"/>
</svg>
