<svg width="18" height="18" viewBox="0 0 18 18" fill="none" xmlns="http://www.w3.org/2000/svg">
<g id="ph:link-bold">
<path id="Vector" d="M9.58862 13.1857C9.66728 13.2641 9.72969 13.3572 9.77227 13.4598C9.81486 13.5624 9.83678 13.6723 9.83678 13.7834C9.83678 13.8944 9.81486 14.0044 9.77227 14.1069C9.72969 14.2095 9.66728 14.3026 9.58862 14.381L9.17096 14.7987C8.37954 15.5901 7.30614 16.0347 6.1869 16.0347C5.06766 16.0347 3.99426 15.5901 3.20284 14.7987C2.41141 14.0072 1.9668 12.9338 1.9668 11.8146C1.9668 10.6954 2.41141 9.62197 3.20284 8.83055L4.89877 7.13531C5.65919 6.37301 6.6823 5.93031 7.75854 5.8979C8.83478 5.86548 9.88268 6.24579 10.6876 6.96094C10.7707 7.03481 10.8384 7.12432 10.887 7.22437C10.9355 7.32441 10.9638 7.43304 10.9703 7.54403C10.9768 7.65503 10.9614 7.76622 10.925 7.87127C10.8886 7.97631 10.8318 8.07315 10.7579 8.15625C10.684 8.23935 10.5945 8.30709 10.4945 8.3556C10.3944 8.40411 10.2858 8.43243 10.1748 8.43896C10.0638 8.44549 9.95263 8.4301 9.84759 8.39365C9.74254 8.35721 9.6457 8.30043 9.5626 8.22656C9.07992 7.79789 8.45169 7.56983 7.80642 7.58904C7.16114 7.60826 6.5476 7.87329 6.09127 8.32992L4.39674 10.023C3.92196 10.4978 3.65524 11.1418 3.65524 11.8132C3.65524 12.4846 3.92196 13.1286 4.39674 13.6034C4.87152 14.0781 5.51546 14.3449 6.1869 14.3449C6.85834 14.3449 7.50228 14.0781 7.97705 13.6034L8.39471 13.1857C8.47307 13.1073 8.56613 13.045 8.66856 13.0026C8.77099 12.9601 8.88078 12.9382 8.99166 12.9382C9.10255 12.9382 9.21234 12.9601 9.31477 13.0026C9.4172 13.045 9.51025 13.1073 9.58862 13.1857ZM14.7974 3.20133C14.0053 2.41112 12.9321 1.96735 11.8133 1.96735C10.6945 1.96735 9.62131 2.41112 8.82924 3.20133L8.41159 3.61898C8.25308 3.77749 8.16403 3.99248 8.16403 4.21664C8.16403 4.44081 8.25308 4.65579 8.41159 4.8143C8.57009 4.97281 8.78508 5.06185 9.00924 5.06185C9.23341 5.06185 9.44839 4.97281 9.6069 4.8143L10.0246 4.39664C10.4993 3.92186 11.1433 3.65513 11.8147 3.65513C12.4861 3.65513 13.1301 3.92186 13.6049 4.39664C14.0796 4.87142 14.3464 5.51536 14.3464 6.1868C14.3464 6.85824 14.0796 7.50217 13.6049 7.97695L11.9096 9.67289C11.4529 10.1293 10.839 10.394 10.1936 10.4127C9.54815 10.4314 8.91997 10.2027 8.4376 9.77344C8.3545 9.69957 8.25766 9.64279 8.15262 9.60635C8.04757 9.5699 7.93638 9.55451 7.82538 9.56104C7.71439 9.56757 7.60577 9.59589 7.50572 9.6444C7.40567 9.69291 7.31616 9.76065 7.24229 9.84375C7.16842 9.92685 7.11164 10.0237 7.0752 10.1287C7.03876 10.2338 7.02336 10.345 7.02989 10.456C7.03642 10.567 7.06474 10.6756 7.11325 10.7756C7.16176 10.8757 7.2295 10.9652 7.3126 11.0391C8.11696 11.754 9.16416 12.1346 10.2399 12.1028C11.3156 12.0711 12.3385 11.6294 13.0993 10.8682L14.7953 9.17297C15.5864 8.38109 16.031 7.30764 16.0313 6.18829C16.0317 5.06893 15.5879 3.99517 14.7974 3.20273V3.20133Z" fill="currentColor"/>
</g>
</svg>
