<svg xmlns="http://www.w3.org/2000/svg" width="16" height="16" viewBox="0 0 16 16" fill="none">
  <path d="M13.7801 4.21995C13.9205 4.36058 13.9994 4.5512 13.9994 4.74995C13.9994 4.9487 13.9205 5.13933 13.7801 5.27995L6.53007 12.53C6.38944 12.6704 6.19882 12.7493 6.00007 12.7493C5.80132 12.7493 5.61069 12.6704 5.47007 12.53L2.22007 9.27995C2.08766 9.13769 2.01555 8.94964 2.01891 8.75532C2.02227 8.561 2.10082 8.37555 2.23807 8.23795C2.37567 8.10071 2.56112 8.02215 2.75544 8.0188C2.94975 8.01544 3.1378 8.08754 3.28007 8.21995L6.00007 10.9399L12.7201 4.21995C12.8607 4.0795 13.0513 4.00061 13.2501 4.00061C13.4488 4.00061 13.6394 4.0795 13.7801 4.21995Z" fill="white"/>
</svg>