<svg width="60" height="36" viewBox="0 0 60 36" fill="none" xmlns="http://www.w3.org/2000/svg">
<g id="Group 1000003103">
<rect id="Rectangle" width="60" height="36" rx="4" fill="#ECECEC"/>
<path id="Fill 1" fill-rule="evenodd" clip-rule="evenodd" d="M24.8945 23.7277L26.7394 12.2832H29.6883L27.8436 23.7277H24.8945Z" fill="#26337A"/>
<path id="Fill 2" fill-rule="evenodd" clip-rule="evenodd" d="M38.54 12.5642C37.9569 12.3345 37.0399 12.084 35.8976 12.084C32.982 12.084 30.9297 13.6371 30.9127 15.8609C30.8941 17.506 32.3772 18.4234 33.4953 18.9701C34.6444 19.5306 35.0305 19.8892 35.0259 20.3904C35.018 21.1568 34.1087 21.508 33.2608 21.508C32.0802 21.508 31.4529 21.3351 30.4831 20.9079L30.1038 20.7257L29.6914 23.2874C30.379 23.6062 31.6538 23.8829 32.9768 23.8974C36.0753 23.8974 38.0887 22.3631 38.1123 19.9883C38.1229 18.6838 37.3371 17.6951 35.6353 16.8787C34.6047 16.348 33.9723 15.9965 33.9795 15.4594C33.9802 14.9838 34.5138 14.4745 35.6688 14.4745C36.6334 14.459 37.3317 14.6817 37.8758 14.9143L38.1406 15.0451L38.54 12.5642Z" fill="#26337A"/>
<path id="Fill 3" fill-rule="evenodd" clip-rule="evenodd" d="M42.4668 19.6697C42.7112 19.0119 43.6415 16.4707 43.6415 16.4707C43.6243 16.501 43.8846 15.8079 44.0335 15.3789L44.2325 16.3659C44.2325 16.3659 44.7984 19.0976 44.9149 19.6697C44.4558 19.6697 43.0426 19.6697 42.4668 19.6697ZM46.1044 12.2949H43.8254C43.1185 12.2949 42.5894 12.4974 42.2797 13.2436L37.9004 23.7318H40.9977C40.9977 23.7318 41.503 22.3208 41.6177 22.0112C41.9556 22.0112 44.9652 22.0171 45.3948 22.0171C45.4832 22.4165 45.7539 23.7318 45.7539 23.7318H48.4909L46.1044 12.2949Z" fill="#26337A"/>
<path id="Fill 4" fill-rule="evenodd" clip-rule="evenodd" d="M22.4192 12.293L19.5329 20.0953L19.2237 18.5093C18.6858 16.6819 17.0115 14.7013 15.1387 13.7088L17.7793 23.7178L20.9002 23.716L25.5442 12.293H22.4192Z" fill="#26337A"/>
<path id="Fill 5" fill-rule="evenodd" clip-rule="evenodd" d="M16.8551 12.2852H12.0997L12.0605 12.5223C15.7609 13.4703 18.2092 15.7586 19.2254 18.5093L18.192 13.2507C18.0137 12.5255 17.4956 12.3105 16.8551 12.2852Z" fill="#EC982D"/>
</g>
</svg>
