<svg width="100" height="60" viewBox="0 0 100 60" fill="none" xmlns="http://www.w3.org/2000/svg">
<g clip-path="url(#clip0_1_490)">
<rect width="100" height="60" rx="4" fill="#F2F1F1"/>
<path fill-rule="evenodd" clip-rule="evenodd" d="M84.4073 34.6656H80.8742C80.5215 34.6656 80.2871 34.6787 80.0897 34.8116C79.8852 34.9426 79.8065 35.137 79.8065 35.3936C79.8065 35.6987 79.9792 35.9062 80.2304 35.9959C80.4349 36.0669 80.6546 36.0876 80.9775 36.0876L82.0281 36.1157C83.0883 36.1418 83.796 36.3235 84.2275 36.7666C84.306 36.8283 84.3532 36.8976 84.4073 36.9669V34.6656ZM84.4073 39.9976C83.9364 40.6841 83.0188 41.0322 81.7766 41.0322H78.033V39.2979H81.7615C82.1313 39.2979 82.3901 39.2494 82.546 39.0977C82.681 38.9726 82.7752 38.7909 82.7752 38.5701C82.7752 38.3346 82.681 38.1475 82.5384 38.0353C82.3977 37.9119 82.193 37.8558 81.8554 37.8558C80.0352 37.7941 77.7644 37.9119 77.7644 35.3526C77.7644 34.1795 78.5114 32.9447 80.5457 32.9447H84.407V31.3356H80.8194C79.7367 31.3356 78.9503 31.5941 78.3933 31.996V31.3356H73.0868C72.2382 31.3356 71.2421 31.5453 70.7709 31.996V31.3356H61.2949V31.996C60.5407 31.4536 59.2682 31.3356 58.6809 31.3356H52.4303V31.996C51.8337 31.42 50.5069 31.3356 49.6982 31.3356H42.7028L41.102 33.0628L39.6027 31.3356H29.1531V42.6206H39.4061L41.0555 40.8661L42.6094 42.6206L48.9293 42.6262V39.9715H49.5507C50.3892 39.9844 51.3782 39.9508 52.2508 39.5747V42.6203H57.4636V39.6791H57.7151C58.036 39.6791 58.0676 39.6923 58.0676 40.012V42.6201H73.9033C74.9087 42.6201 75.9596 42.3635 76.5415 41.8979V42.6201H81.5645C82.6098 42.6201 83.6306 42.474 84.4073 42.0999V39.9976ZM76.6746 36.7666C77.052 37.1561 77.2543 37.6478 77.2543 38.4802C77.2543 40.22 76.1641 41.0322 74.2091 41.0322H70.4334V39.2979H74.1939C74.5616 39.2979 74.8223 39.2494 74.9857 39.0977C75.1191 38.9726 75.2147 38.7909 75.2147 38.5701C75.2147 38.3346 75.1112 38.1475 74.9782 38.0353C74.8299 37.9119 74.6254 37.8558 74.2878 37.8558C72.475 37.7941 70.2046 37.9119 70.2046 35.3526C70.2046 34.1795 70.9439 32.9447 72.9762 32.9447H76.8625V34.666H73.3064C72.9539 34.666 72.7247 34.6792 72.5298 34.8121C72.3174 34.9431 72.2387 35.1375 72.2387 35.394C72.2387 35.6991 72.4189 35.9067 72.6628 35.9964C72.8673 36.0674 73.087 36.0881 73.4172 36.0881L74.4608 36.1162C75.5131 36.1418 76.2355 36.3232 76.6746 36.7666ZM59.1823 36.2671C58.923 36.4206 58.6023 36.4337 58.2251 36.4337H55.8702V34.6173H58.2572C58.6023 34.6173 58.9477 34.6246 59.1823 34.7634C59.4336 34.8943 59.5838 35.1448 59.5838 35.4909C59.5838 35.8369 59.4336 36.1157 59.1823 36.2671ZM60.3531 37.2737C60.7846 37.4324 61.1373 37.717 61.3027 37.9526C61.5764 38.3475 61.6161 38.716 61.6239 39.4289V41.0322H59.6777V40.0203C59.6777 39.5337 59.7247 38.8133 59.3643 38.4372C59.0811 38.1475 58.6493 38.0782 57.9421 38.0782H55.8704V41.0322H53.9225V32.9445H58.3981C59.3795 32.9445 60.0943 32.9876 60.7305 33.3262C61.3423 33.6947 61.7271 34.1995 61.7271 35.1221C61.7269 36.413 60.8634 37.0717 60.3531 37.2737ZM62.802 32.9445H69.2719V34.617H64.7325V36.0874H69.1611V37.7375H64.7325V39.3467L69.2719 39.354V41.0322H62.802V32.9445ZM49.7229 36.6769H47.2177V34.6173H49.7454C50.4453 34.6173 50.9311 34.9016 50.9311 35.6089C50.9311 36.3084 50.4678 36.6769 49.7229 36.6769ZM45.287 40.2966L42.3107 37.0022L45.287 33.8125V40.2966ZM37.6008 39.3467H32.8346V37.7375H37.0905V36.0874H32.8346V34.617H37.6947L39.8151 36.9739L37.6008 39.3467ZM53.0123 35.6089C53.0123 37.8556 51.331 38.3194 49.6365 38.3194H47.2177V41.0322H43.4499L41.0629 38.3548L38.5822 41.0322H30.9036V32.9445H38.7003L41.0854 35.5955L43.5511 32.9445H49.7454C51.2838 32.9445 53.0123 33.3691 53.0123 35.6089Z" fill="#0072CE"/>
<path fill-rule="evenodd" clip-rule="evenodd" d="M21.6548 23.6242L20.3279 20.4008L19.0087 23.6242H21.6548ZM50.8843 22.3406C50.618 22.5019 50.3029 22.5072 49.9254 22.5072H47.5705V20.7113H49.9575C50.2953 20.7113 50.6478 20.7264 50.8768 20.8571C51.1282 20.9749 51.2838 21.2256 51.2838 21.5719C51.2838 21.9253 51.1358 22.2097 50.8843 22.3406ZM67.6843 23.6242L66.3428 20.4008L65.0087 23.6242H67.6843ZM36.3681 27.1132H34.3808L34.3735 20.7805L31.5626 27.1132H29.8605L27.0423 20.7749V27.1132H23.0995L22.3546 25.3097H18.3184L17.5659 27.1132H15.4605L18.9319 19.0275H21.812L25.109 26.683V19.0275H28.2729L30.8099 24.5127L33.1404 19.0275H36.3679V27.1132H36.3681ZM44.2887 27.1132H37.8129V19.0275H44.2887V20.7113H39.7515V22.1687H44.1798V23.8261H39.7515V25.4409H44.2887V27.1132ZM53.4193 21.2051C53.4193 22.4943 52.5563 23.1603 52.0534 23.3603C52.4776 23.5213 52.8398 23.8057 53.0123 24.0413C53.286 24.4434 53.3332 24.8027 53.3332 25.5248V27.1132H51.378L51.3707 26.0935C51.3707 25.607 51.4174 24.9073 51.0646 24.5183C50.7814 24.2339 50.3496 24.1722 49.6517 24.1722H47.5707V27.1132H45.6324V19.0275H50.091C51.0818 19.0275 51.8117 19.0536 52.4384 19.4148C53.0517 19.776 53.4193 20.3032 53.4193 21.2051ZM56.5216 27.1132H54.5436V19.0275H56.5216V27.1132ZM79.4689 27.1132H76.7218L73.0474 21.0444V27.1132H69.0995L68.345 25.3097H64.3181L63.5862 27.1132H61.3179C60.3756 27.1132 59.1826 26.9054 58.5069 26.2189C57.8257 25.5324 57.4712 24.6024 57.4712 23.1321C57.4712 21.9329 57.6831 20.8366 58.5162 19.9703C59.1429 19.325 60.1244 19.0275 61.4602 19.0275H63.337V20.76H61.4996C60.7922 20.76 60.3927 20.8649 60.0079 21.239C59.6774 21.5795 59.4507 22.2231 59.4507 23.0706C59.4507 23.9369 59.6234 24.5615 59.9837 24.9695C60.2821 25.2895 60.8245 25.3865 61.3347 25.3865H62.2053L64.9375 19.0277H67.8421L71.1242 26.6757V19.0277H74.0758L77.4833 24.659V19.0277H79.4689V27.1132ZM15.438 28.7014H18.7501L19.497 26.9054H21.1689L21.9138 28.7014H28.4307V27.3283L29.0124 28.7072H32.3955L32.9772 27.3078V28.7014H49.173L49.1654 25.7533H49.4788C49.6982 25.7609 49.7623 25.7811 49.7623 26.1423V28.7014H58.1388V28.0151C58.8144 28.376 59.8653 28.7014 61.2481 28.7014H64.7721L65.5263 26.9054H67.1983L67.9358 28.7014H74.7267V26.9954L75.7551 28.7014H81.1969V17.4242H75.8113V18.756L75.0572 17.4242H69.531V18.756L68.8384 17.4242H61.3739C60.1244 17.4242 59.026 17.5981 58.1388 18.0827V17.4242H52.9876V18.0827C52.423 17.5832 51.6537 17.4242 50.7982 17.4242H31.9789L30.7162 20.3369L29.4195 17.4242H23.4918V18.756L22.8407 17.4242H17.7854L15.4377 22.786V28.7014H15.438Z" fill="#0072CE"/>
</g>
<defs>
<clipPath id="clip0_1_490">
<rect width="100" height="60" rx="4" fill="white"/>
</clipPath>
</defs>
</svg>
