<svg xmlns="http://www.w3.org/2000/svg" width="49" height="40" viewBox="0 0 49 40" fill="none">
  <path d="M1.77539 6.66672C1.77539 6.28076 2.09496 5.96497 2.48554 5.96497H46.5145C46.9051 5.96497 47.2247 6.28076 47.2247 6.66672V33.3334C47.2247 33.7194 46.9051 34.0351 46.5145 34.0351H2.48554C2.09496 34.0351 1.77539 33.7194 1.77539 33.3334V6.66672Z" fill="#D9D9D9"/>
  <mask id="mask0_1_631" style="mask-type:luminance" maskUnits="userSpaceOnUse" x="1" y="5" width="47" height="30">
    <path d="M1.77539 6.66672C1.77539 6.28076 2.09496 5.96497 2.48554 5.96497H46.5145C46.9051 5.96497 47.2247 6.28076 47.2247 6.66672V33.3334C47.2247 33.7194 46.9051 34.0351 46.5145 34.0351H2.48554C2.09496 34.0351 1.77539 33.7194 1.77539 33.3334V6.66672Z" fill="white"/>
  </mask>
  <g mask="url(#mask0_1_631)">
    <path d="M1.77539 6.66672C1.77539 6.28076 2.09496 5.96497 2.48554 5.96497H46.5145C46.9051 5.96497 47.2247 6.28076 47.2247 6.66672V33.3334C47.2247 33.7194 46.9051 34.0351 46.5145 34.0351H2.48554C2.09496 34.0351 1.77539 33.7194 1.77539 33.3334V6.66672Z" fill="#D9D9D9" stroke="#CBCBCB" stroke-width="2" stroke-miterlimit="10"/>
  </g>
  <mask id="mask1_1_631" style="mask-type:luminance" maskUnits="userSpaceOnUse" x="22" y="9" width="22" height="11">
    <path d="M43.8868 9.71924H22.1208V19.9999H43.8868V9.71924Z" fill="white"/>
  </mask>
  <g mask="url(#mask1_1_631)">
    <path d="M37.1489 11.228H28.8942C26.8594 11.228 25.21 12.8775 25.21 14.9122C25.21 16.947 26.8594 18.5964 28.8942 18.5964H37.1489C39.1837 18.5964 40.8331 16.947 40.8331 14.9122C40.8331 12.8775 39.1837 11.228 37.1489 11.228Z" fill="#FFA800"/>
  </g>
  <mask id="mask2_1_631" style="mask-type:luminance" maskUnits="userSpaceOnUse" x="5" y="23" width="39" height="3">
    <path d="M5.07739 23.9649C5.07739 23.579 5.39696 23.2632 5.78754 23.2632H43.2122C43.6028 23.2632 43.9223 23.579 43.9223 23.9649V24.4211C43.9223 24.807 43.6028 25.1228 43.2122 25.1228H5.78754C5.39696 25.1228 5.07739 24.807 5.07739 24.4211V23.9649Z" fill="white"/>
  </mask>
  <g mask="url(#mask2_1_631)">
    <path d="M45.6621 21.5088H3.302V26.8772H45.6621V21.5088Z" fill="#979797"/>
  </g>
  <mask id="mask3_1_631" style="mask-type:luminance" maskUnits="userSpaceOnUse" x="5" y="27" width="14" height="3">
    <path d="M5.07739 28.6666C5.07739 28.2806 5.39696 27.9648 5.78754 27.9648H17.6115C18.002 27.9648 18.3216 28.2806 18.3216 28.6666V29.1227C18.3216 29.5087 18.002 29.8245 17.6115 29.8245H5.78754C5.39696 29.8245 5.07739 29.5087 5.07739 29.1227V28.6666Z" fill="white"/>
  </mask>
  <g mask="url(#mask3_1_631)">
    <path d="M20.0969 26.2104H3.302V31.5789H20.0969V26.2104Z" fill="#979797"/>
  </g>
  <mask id="mask4_1_631" style="mask-type:luminance" maskUnits="userSpaceOnUse" x="30" y="27" width="14" height="3">
    <path d="M30.6426 28.6666C30.6426 28.2806 30.9621 27.9648 31.3527 27.9648H43.1766C43.5672 27.9648 43.8868 28.2806 43.8868 28.6666V29.1227C43.8868 29.5087 43.5672 29.8245 43.1766 29.8245H31.3527C30.9621 29.8245 30.6426 29.5087 30.6426 29.1227V28.6666Z" fill="white"/>
  </mask>
  <g mask="url(#mask4_1_631)">
    <path d="M45.6621 26.2104H28.8672V31.5789H45.6621V26.2104Z" fill="#979797"/>
  </g>
</svg>