<svg xmlns="http://www.w3.org/2000/svg" width="48" height="29" viewBox="0 0 48 29" fill="none">
  <path fill-rule="evenodd" clip-rule="evenodd" d="M28.2218 14.3078C28.2218 22.1013 21.9045 28.4184 14.1112 28.4184C6.31772 28.4184 0 22.1013 0 14.3078C0 6.5145 6.31772 0.196777 14.1112 0.196777C21.9045 0.196777 28.2218 6.5145 28.2218 14.3078Z" fill="#CC0000"/>
  <path fill-rule="evenodd" clip-rule="evenodd" d="M33.0568 0.196777C29.4099 0.196777 26.0882 1.58003 23.5835 3.84924C23.0739 4.31174 22.5983 4.81125 22.1592 5.3431H25.0102C25.3996 5.81719 25.7584 6.31559 26.086 6.83762H21.0832C20.784 7.31729 20.5119 7.81569 20.2702 8.33215H26.8986C27.1251 8.81583 27.3245 9.314 27.4962 9.826H19.6726C19.5098 10.3126 19.3724 10.8112 19.2627 11.3196H27.9056C28.1125 12.283 28.2227 13.2825 28.2227 14.3078C28.2227 15.8743 27.9674 17.3823 27.4962 18.7905H19.6726C19.8443 19.302 20.0436 19.8009 20.2697 20.2852H26.8986C26.6564 20.8003 26.3857 21.2992 26.0846 21.7795H21.0832C21.4095 22.3 21.769 22.7991 22.1592 23.2725H25.0093C24.5711 23.8048 24.095 24.3043 23.5839 24.7668C26.0884 27.036 29.4099 28.4184 33.0568 28.4184C40.8499 28.4184 47.1674 22.1013 47.1674 14.3078C47.1674 6.51517 40.8499 0.196777 33.0568 0.196777Z" fill="#FF9900"/>
  <path fill-rule="evenodd" clip-rule="evenodd" d="M10.8185 15.8527C10.6577 15.8344 10.5868 15.8286 10.4764 15.8286C9.60803 15.8286 9.16895 16.1265 9.16895 16.715C9.16895 17.0774 9.38325 17.3078 9.71774 17.3078C10.3419 17.3078 10.7917 16.7137 10.8185 15.8527ZM11.9319 18.4465C11.7277 18.4465 10.6622 18.4465 10.6622 18.4465L10.6914 17.8433C10.3043 18.3196 9.7876 18.5471 9.08583 18.5471C8.25583 18.5471 7.68652 17.899 7.68652 16.9573C7.68652 15.5397 8.67641 14.7131 10.3759 14.7131C10.55 14.7131 10.7726 14.7291 11.0005 14.7579C11.0478 14.5657 11.0602 14.4841 11.0602 14.3804C11.0602 13.995 10.7935 13.8505 10.0779 13.8505C9.32845 13.843 8.7103 14.0296 8.45631 14.113C8.47236 14.0162 8.66882 12.8038 8.66882 12.8038C9.43192 12.5795 9.93545 12.4956 10.5021 12.4956C11.8178 12.4956 12.5146 13.0861 12.5131 14.2024C12.5157 14.5019 12.466 14.8701 12.3891 15.3558C12.2562 16.1987 11.9707 18.0065 11.9319 18.4465Z" fill="#000066"/>
  <path fill-rule="evenodd" clip-rule="evenodd" d="M7.04351 18.4465H5.5113L6.38946 12.9447L4.42954 18.4465H3.38569L3.25658 12.9755L2.33426 18.4465H0.900391L2.09811 11.2889H4.30109L4.43422 15.2953L5.77822 11.2889H8.22829L7.04351 18.4465Z" fill="#000066"/>
  <path fill-rule="evenodd" clip-rule="evenodd" d="M34.9513 15.8527C34.7906 15.8344 34.7205 15.8286 34.6104 15.8286C33.7414 15.8286 33.3027 16.1265 33.3027 16.715C33.3027 17.0774 33.5161 17.3078 33.8515 17.3078C34.4753 17.3078 34.9253 16.7137 34.9513 15.8527ZM36.0655 18.4465C35.8608 18.4465 34.7962 18.4465 34.7962 18.4465L34.825 17.8433C34.4378 18.3196 33.9214 18.5471 33.2201 18.5471C32.389 18.5471 31.8203 17.899 31.8203 16.9573C31.8203 15.5397 32.8106 14.7131 34.5097 14.7131C34.6836 14.7131 34.9057 14.7291 35.1338 14.7579C35.1813 14.5657 35.1936 14.4841 35.1936 14.3804C35.1936 13.995 34.9269 13.8505 34.2113 13.8505C33.4618 13.843 32.8439 14.0296 32.589 14.113C32.6059 14.0162 32.8028 12.8038 32.8028 12.8038C33.5655 12.5795 34.0695 12.4956 34.6352 12.4956C35.9518 12.4956 36.6477 13.0861 36.6464 14.2024C36.6491 14.5019 36.5998 14.8701 36.5224 15.3558C36.39 16.1987 36.1039 18.0065 36.0655 18.4465Z" fill="#000066"/>
  <path fill-rule="evenodd" clip-rule="evenodd" d="M18.7396 18.3576C18.3201 18.4896 17.9934 18.5467 17.6388 18.5467C16.8559 18.5467 16.4284 18.0967 16.4284 17.2678C16.4175 17.0104 16.541 16.3336 16.6383 15.7164C16.727 15.1725 17.3028 11.7441 17.3028 11.7441H18.8252L18.6475 12.6252H19.5673L19.3597 14.0243H18.4367C18.2599 15.131 18.0077 16.51 18.0048 16.6929C18.0048 16.993 18.1649 17.1242 18.5295 17.1242C18.7041 17.1242 18.8392 17.1063 18.9425 17.0693L18.7396 18.3576Z" fill="#000066"/>
  <path fill-rule="evenodd" clip-rule="evenodd" d="M23.4067 18.3109C22.8836 18.4708 22.3794 18.5489 21.8444 18.5471C20.1396 18.5448 19.251 17.6551 19.251 15.9503C19.251 13.9607 20.3813 12.4956 21.9162 12.4956C23.1715 12.4956 23.9736 13.3158 23.9736 14.6016C23.9736 15.0291 23.9187 15.4456 23.7856 16.0335H20.7533C20.651 16.8779 21.191 17.2296 22.0775 17.2296C22.6218 17.2296 23.1137 17.1172 23.6603 16.8637L23.4067 18.3109ZM22.5513 14.8601C22.56 14.7386 22.7126 13.8209 21.8422 13.8209C21.3579 13.8209 21.0106 14.1907 20.8699 14.8601H22.5513Z" fill="#000066"/>
  <path fill-rule="evenodd" clip-rule="evenodd" d="M12.8476 14.466C12.8476 15.2017 13.2044 15.7094 14.0139 16.091C14.634 16.3829 14.7306 16.4692 14.7306 16.7334C14.7306 17.0958 14.4567 17.2604 13.8509 17.2604C13.3935 17.2604 12.9685 17.1886 12.4781 17.03C12.4781 17.03 12.2772 18.3136 12.2676 18.3749C12.6157 18.4503 12.9261 18.5205 13.8618 18.5471C15.4781 18.5471 16.2247 17.9316 16.2247 16.6014C16.2247 15.8018 15.9125 15.3323 15.1449 14.9791C14.5029 14.6845 14.4286 14.6185 14.4286 14.3469C14.4286 14.0323 14.6835 13.8715 15.1784 13.8715C15.4792 13.8715 15.8897 13.9036 16.2793 13.9587L16.4972 12.6087C16.1007 12.5456 15.499 12.4956 15.1489 12.4956C13.4354 12.4956 12.842 13.3905 12.8476 14.466Z" fill="#000066"/>
  <path fill-rule="evenodd" clip-rule="evenodd" d="M30.8566 12.649C31.2821 12.649 31.6795 12.7597 32.2256 13.0355L32.4765 11.4821C32.2512 11.3938 31.4616 10.8762 30.7926 10.8762C29.7677 10.8762 28.9003 11.3855 28.2913 12.2242C27.4019 11.9299 27.036 12.5248 26.5882 13.118L26.1902 13.2108C26.2203 13.0157 26.2477 12.8219 26.239 12.6254H24.8315C24.6397 14.4274 24.2992 16.252 24.0327 18.0547L23.9629 18.4463H25.4955C25.7513 16.7841 25.8911 15.7202 25.9763 14.9994L26.5534 14.6797C26.6402 14.3583 26.9093 14.2504 27.4508 14.2635C27.3801 14.6431 27.3417 15.0429 27.3417 15.4566C27.3417 17.3612 28.3706 18.5469 30.019 18.5469C30.4438 18.5469 30.8087 18.4911 31.3735 18.3372L31.642 16.7062C31.134 16.9558 30.7181 17.0733 30.341 17.0733C29.4504 17.0733 28.9114 16.4157 28.9114 15.3295C28.9114 13.7531 29.7124 12.649 30.8566 12.649Z" fill="#000066"/>
  <path fill-rule="evenodd" clip-rule="evenodd" d="M43.8276 11.2889L43.4871 13.3568C43.069 12.8058 42.619 12.4066 42.0249 12.4066C41.252 12.4066 40.5485 12.9926 40.0878 13.8556C39.4462 13.7225 38.7832 13.4962 38.7832 13.4962L38.7828 13.5017C38.8338 13.0194 38.8555 12.7259 38.8503 12.6256H37.443C37.2519 14.4276 36.9109 16.2522 36.6447 18.0549L36.5742 18.4465H38.1073C38.3143 17.1031 38.4724 15.9864 38.589 15.102C39.113 14.6283 39.3753 14.2164 39.9036 14.2432C39.6692 14.8101 39.5325 15.4625 39.5325 16.132C39.5325 17.5866 40.2679 18.547 41.382 18.547C41.9435 18.547 42.3744 18.3533 42.7945 17.9046L42.7222 18.446H44.1717L45.3387 11.2889H43.8276ZM41.9114 17.1024C41.39 17.1024 41.126 16.7157 41.126 15.9549C41.126 14.8107 41.6195 13.9996 42.3141 13.9996C42.8406 13.9996 43.126 14.4001 43.126 15.1396C43.126 16.2936 42.6243 17.1024 41.9114 17.1024Z" fill="#000066"/>
  <path fill-rule="evenodd" clip-rule="evenodd" d="M7.48567 18.0214H5.9539L6.83184 12.5196L4.87237 18.0214H3.82807L3.69918 12.5515L2.77664 18.0214H1.34277L2.54049 10.8645H4.74348L4.80502 15.295L6.29152 10.8645H8.67067L7.48567 18.0214Z" fill="white"/>
  <path fill-rule="evenodd" clip-rule="evenodd" d="M11.257 15.4287C11.0965 15.41 11.0256 15.4048 10.9152 15.4048C10.0468 15.4048 9.60752 15.7023 9.60752 16.2903C9.60752 16.6523 9.82204 16.884 10.1568 16.884C10.7807 16.884 11.2305 16.2899 11.257 15.4287ZM12.3702 18.0216C12.1662 18.0216 11.1011 18.0216 11.1011 18.0216L11.1301 17.4189C10.743 17.895 10.2263 18.1227 9.52455 18.1227C8.69433 18.1227 8.12524 17.4737 8.12524 16.5322C8.12524 15.1144 9.11535 14.2889 10.8148 14.2889C10.9885 14.2889 11.2111 14.3047 11.4392 14.3342C11.4865 14.1415 11.499 14.0596 11.499 13.9555C11.499 13.5704 11.2323 13.427 10.5167 13.427C9.76695 13.4181 9.14902 13.6047 8.89481 13.6879C8.91109 13.5916 9.10732 12.3791 9.10732 12.3791C9.87064 12.1553 10.3742 12.0707 10.9408 12.0707C12.2563 12.0707 12.9529 12.6619 12.9518 13.7778C12.9542 14.0768 12.905 14.4468 12.8278 14.9311C12.6947 15.7734 12.4092 17.5823 12.3702 18.0216Z" fill="white"/>
  <path fill-rule="evenodd" clip-rule="evenodd" d="M32.9202 11.0573L32.6693 12.6105C32.1223 12.3355 31.726 12.2242 31.301 12.2242C30.1573 12.2242 29.3549 13.3296 29.3549 14.9062C29.3549 15.9924 29.8941 16.6487 30.7848 16.6487C31.1621 16.6487 31.5789 16.5321 32.0857 16.2817L31.8166 17.9127C31.2526 18.0663 30.8876 18.1225 30.463 18.1225C28.8135 18.1225 27.7861 16.9366 27.7861 15.0324C27.7861 12.4738 29.2064 10.6855 31.2366 10.6855C31.9056 10.6855 32.6956 10.969 32.9202 11.0573Z" fill="white"/>
  <path fill-rule="evenodd" clip-rule="evenodd" d="M35.3916 15.4282C35.2319 15.4094 35.1608 15.4043 35.0506 15.4043C34.1827 15.4043 33.7432 15.7018 33.7432 16.2898C33.7432 16.6517 33.9575 16.8834 34.292 16.8834C34.9157 16.8834 35.3659 16.2894 35.3916 15.4282ZM36.5055 18.021C36.3017 18.021 35.2364 18.021 35.2364 18.021L35.2652 17.4182C34.8781 17.8943 34.3614 18.122 33.6603 18.122C32.8292 18.122 32.2607 17.4731 32.2607 16.5316C32.2607 15.1138 33.25 14.2882 34.9499 14.2882C35.1236 14.2882 35.3457 14.3041 35.5736 14.3335C35.6211 14.1408 35.6336 14.059 35.6336 13.9548C35.6336 13.5697 35.3675 13.4263 34.6515 13.4263C33.9024 13.4174 33.2847 13.6041 33.0301 13.6872C33.0461 13.5909 33.2426 12.3785 33.2426 12.3785C34.0059 12.1546 34.509 12.0701 35.0756 12.0701C36.3911 12.0701 37.0884 12.6612 37.0866 13.7771C37.0897 14.0761 37.04 14.4461 36.9629 14.9304C36.8302 15.7727 36.5447 17.5817 36.5055 18.021Z" fill="white"/>
  <path fill-rule="evenodd" clip-rule="evenodd" d="M19.1809 17.9333C18.7619 18.0653 18.4348 18.1226 18.0807 18.1226C17.2975 18.1226 16.8698 17.6724 16.8698 16.8444C16.8591 16.5862 16.9828 15.9105 17.0803 15.2926C17.1684 14.7482 17.7444 11.3203 17.7444 11.3203H19.2672L19.0891 12.2011H19.8709L19.6626 13.5998H18.8783C18.7015 14.7076 18.4493 16.0858 18.4462 16.2686C18.4462 16.5697 18.6069 16.6999 18.9711 16.6999C19.1457 16.6999 19.2806 16.6827 19.3843 16.6448L19.1809 17.9333Z" fill="white"/>
  <path fill-rule="evenodd" clip-rule="evenodd" d="M23.8494 17.8874C23.326 18.0477 22.8207 18.1233 22.2864 18.1229C20.5813 18.1218 19.6934 17.2309 19.6934 15.5263C19.6934 13.5361 20.8235 12.071 22.3573 12.071C23.6139 12.071 24.4155 12.8912 24.4155 14.1785C24.4155 14.6051 24.3598 15.0215 24.2282 15.6095H21.1955C21.0927 16.454 21.6334 16.8063 22.519 16.8063C23.0637 16.8063 23.5554 16.6935 24.1027 16.4393L23.8494 17.8874ZM22.9934 14.4354C23.0016 14.3136 23.1548 13.3964 22.2847 13.3964C21.7999 13.3964 21.4527 13.7668 21.3115 14.4354H22.9934Z" fill="white"/>
  <path fill-rule="evenodd" clip-rule="evenodd" d="M13.2895 14.0414C13.2895 14.7784 13.6468 15.285 14.4565 15.667C15.0766 15.9587 15.1727 16.045 15.1727 16.3095C15.1727 16.6723 14.8991 16.836 14.2928 16.836C13.8359 16.836 13.4106 16.7651 12.92 16.607C12.92 16.607 12.7193 17.8896 12.71 17.9501C13.0578 18.0263 13.3685 18.0959 14.3037 18.1229C15.9204 18.1229 16.667 17.5076 16.667 16.1775C16.667 15.3774 16.3544 14.9082 15.5871 14.5558C14.9448 14.2604 14.871 14.195 14.871 13.923C14.871 13.6083 15.1257 13.4464 15.621 13.4464C15.9211 13.4464 16.3321 13.4799 16.7215 13.5347L16.9395 12.1849C16.5428 12.1223 15.9416 12.071 15.5913 12.071C13.8773 12.071 13.2844 12.9661 13.2895 14.0414Z" fill="white"/>
  <path fill-rule="evenodd" clip-rule="evenodd" d="M44.6141 18.0214H43.165L43.2368 17.4797C42.8165 17.9286 42.3859 18.1224 41.8244 18.1224C40.7112 18.1224 39.9746 17.163 39.9746 15.7069C39.9746 13.7708 41.1166 12.1389 42.4673 12.1389C43.0613 12.1389 43.5111 12.3815 43.9301 12.9328L44.27 10.8645H45.7808L44.6141 18.0214ZM42.3555 16.6763C43.0693 16.6763 43.5701 15.8679 43.5701 14.715C43.5701 13.9753 43.2849 13.5735 42.7584 13.5735C42.0636 13.5735 41.5703 14.3847 41.5703 15.5294C41.5703 16.2911 41.8346 16.6763 42.3555 16.6763Z" fill="white"/>
  <path fill-rule="evenodd" clip-rule="evenodd" d="M37.8852 12.2014C37.6936 14.003 37.3529 15.8276 37.0864 17.6305L37.0166 18.0218H38.5488C39.0969 14.4624 39.2287 13.7677 40.0886 13.8545C40.2253 13.126 40.4802 12.488 40.67 12.1664C40.0284 12.0326 39.67 12.3952 39.2004 13.0843C39.2379 12.7861 39.3054 12.4969 39.2927 12.2014H37.8852Z" fill="white"/>
  <path fill-rule="evenodd" clip-rule="evenodd" d="M25.2726 12.2014C25.0801 14.003 24.7389 15.8276 24.4729 17.6305L24.4033 18.0218H25.936C26.4843 14.4624 26.6157 13.7677 27.4742 13.8545C27.6118 13.126 27.8671 12.488 28.0565 12.1664C27.4156 12.0326 27.0565 12.3952 26.5878 13.0843C26.6248 12.7861 26.6928 12.4969 26.6794 12.2014H25.2726Z" fill="white"/>
</svg>