<svg width="102" height="62" viewBox="0 0 102 62" fill="none" xmlns="http://www.w3.org/2000/svg">
<g clip-path="url(#clip0_1_542)">
<rect x="1" y="1" width="100" height="60" rx="4" fill="#FFF4D5"/>
<path fill-rule="evenodd" clip-rule="evenodd" d="M57.1288 31.4854C57.1288 42.2637 48.3921 51 37.6142 51C26.8359 51 18.0986 42.2637 18.0986 31.4854C18.0986 20.7075 26.8359 11.9702 37.6142 11.9702C48.3921 11.9702 57.1288 20.7075 57.1288 31.4854Z" fill="#CC0000"/>
<path fill-rule="evenodd" clip-rule="evenodd" d="M63.8143 11.9702C58.7707 11.9702 54.1768 13.8832 50.7129 17.0215C50.0082 17.6611 49.3503 18.3519 48.7431 19.0875H52.686C53.2245 19.7431 53.7207 20.4324 54.1737 21.1544H47.2551C46.8412 21.8177 46.465 22.507 46.1307 23.2212H55.2975C55.6109 23.8902 55.8866 24.5791 56.124 25.2872H45.3041C45.079 25.9601 44.889 26.6497 44.7373 27.3529H56.6903C56.9764 28.6852 57.1288 30.0674 57.1288 31.4854C57.1288 33.6519 56.7757 35.7373 56.124 37.6849H45.3041C45.5416 38.3923 45.8173 39.0822 46.13 39.7521H55.2975C54.9626 40.4645 54.5882 41.1544 54.1719 41.8187H47.2551C47.7063 42.5385 48.2034 43.2287 48.7431 43.8834H52.6848C52.0788 44.6195 51.4203 45.3104 50.7135 45.95C54.1771 49.0883 58.7707 51 63.8143 51C74.5919 51 83.3289 42.2637 83.3289 31.4854C83.3289 20.7084 74.5919 11.9702 63.8143 11.9702Z" fill="#FF9900"/>
<path fill-rule="evenodd" clip-rule="evenodd" d="M33.0568 33.622C32.8344 33.5967 32.7364 33.5887 32.5837 33.5887C31.3828 33.5887 30.7756 34.0007 30.7756 34.8145C30.7756 35.3157 31.0719 35.6343 31.5345 35.6343C32.3978 35.6343 33.0198 34.8127 33.0568 33.622ZM34.5979 37.209C34.3154 37.209 32.8418 37.209 32.8418 37.209L32.8822 36.3747C32.3469 37.0335 31.6323 37.348 30.6618 37.348C29.5139 37.348 28.7266 36.4518 28.7266 35.1495C28.7266 33.189 30.0955 32.0457 32.4459 32.0457C32.6867 32.0457 32.9945 32.0679 33.3097 32.1077C33.3751 31.8419 33.3923 31.729 33.3923 31.5856C33.3923 31.0527 33.0235 30.8528 32.0338 30.8528C30.9973 30.8424 30.1424 31.1005 29.7912 31.2158C29.8134 31.082 30.0851 29.4052 30.0851 29.4052C31.1404 29.095 31.8368 28.979 32.6204 28.979C34.44 28.979 35.4037 29.7956 35.4016 31.3395C35.4053 31.7537 35.3365 32.2628 35.2301 32.9345C35.0463 34.1003 34.6515 36.6005 34.5979 37.209Z" fill="#000066"/>
<path fill-rule="evenodd" clip-rule="evenodd" d="M27.8395 37.209H25.7205L26.935 29.6002L24.2245 37.209H22.7809L22.6023 29.6427L21.3268 37.209H19.3438L21.0002 27.3103H24.0468L24.231 32.851L26.0897 27.3103H29.4781L27.8395 37.209Z" fill="#000066"/>
<path fill-rule="evenodd" clip-rule="evenodd" d="M66.4315 33.622C66.2092 33.5967 66.1123 33.5887 65.96 33.5887C64.7582 33.5887 64.1515 34.0007 64.1515 34.8145C64.1515 35.3157 64.4467 35.6343 64.9105 35.6343C65.7731 35.6343 66.3955 34.8127 66.4315 33.622ZM67.9735 37.209C67.6904 37.209 66.2181 37.209 66.2181 37.209L66.2579 36.3747C65.7225 37.0335 65.0083 37.348 64.0384 37.348C62.889 37.348 62.1025 36.4518 62.1025 35.1495C62.1025 33.189 63.4721 32.0457 65.8218 32.0457C66.0624 32.0457 66.3696 32.0679 66.685 32.1077C66.7507 31.8419 66.7677 31.729 66.7677 31.5856C66.7677 31.0527 66.3989 30.8528 65.4092 30.8528C64.3727 30.8424 63.5181 31.1005 63.1656 31.2158C63.189 31.082 63.4613 29.4052 63.4613 29.4052C64.5161 29.095 65.2131 28.979 65.9955 28.979C67.8163 28.979 68.7788 29.7956 68.7769 31.3395C68.7806 31.7537 68.7125 32.2628 68.6055 32.9345C68.4223 34.1003 68.0266 36.6005 67.9735 37.209Z" fill="#000066"/>
<path fill-rule="evenodd" clip-rule="evenodd" d="M44.0136 37.0866C43.4335 37.2692 42.9817 37.3482 42.4913 37.3482C41.4085 37.3482 40.8173 36.7258 40.8173 35.5795C40.8022 35.2236 40.9731 34.2876 41.1075 33.434C41.2303 32.6818 42.0266 27.9404 42.0266 27.9404H44.132L43.8862 29.1589H45.1584L44.8713 31.0938H43.5948C43.3502 32.6244 43.0014 34.5315 42.9974 34.7844C42.9974 35.1995 43.2189 35.3809 43.7231 35.3809C43.9646 35.3809 44.1515 35.3562 44.2942 35.305L44.0136 37.0866Z" fill="#000066"/>
<path fill-rule="evenodd" clip-rule="evenodd" d="M50.47 37.0214C49.7465 37.2426 49.0492 37.3505 48.3093 37.348C45.9516 37.345 44.7227 36.1144 44.7227 33.7567C44.7227 31.0052 46.2859 28.979 48.4086 28.979C50.1446 28.979 51.2539 30.1133 51.2539 31.8915C51.2539 32.4827 51.1781 33.0588 50.994 33.8718H46.8003C46.6588 35.0397 47.4057 35.526 48.6316 35.526C49.3844 35.526 50.0648 35.3706 50.8206 35.0199L50.47 37.0214ZM49.2864 32.2493C49.2984 32.0812 49.5093 30.8121 48.3056 30.8121C47.6358 30.8121 47.1556 31.3235 46.961 32.2493H49.2864Z" fill="#000066"/>
<path fill-rule="evenodd" clip-rule="evenodd" d="M35.8686 31.704C35.8686 32.7214 36.362 33.4237 37.4815 33.9513C38.3391 34.355 38.4727 34.4744 38.4727 34.8398C38.4727 35.341 38.094 35.5686 37.256 35.5686C36.6235 35.5686 36.0357 35.4693 35.3575 35.25C35.3575 35.25 35.0797 37.0251 35.0664 37.11C35.5478 37.2142 35.9771 37.3113 37.2712 37.348C39.5064 37.348 40.539 36.4969 40.539 34.6573C40.539 33.5513 40.1072 32.9022 39.0457 32.4136C38.1578 32.0063 38.0551 31.915 38.0551 31.5393C38.0551 31.1042 38.4076 30.8818 39.0919 30.8818C39.508 30.8818 40.0757 30.9262 40.6145 31.0024L40.9158 29.1354C40.3675 29.0481 39.5354 28.979 39.0512 28.979C36.6815 28.979 35.8608 30.2166 35.8686 31.704Z" fill="#000066"/>
<path fill-rule="evenodd" clip-rule="evenodd" d="M60.7741 29.1915C61.3625 29.1915 61.9121 29.3445 62.6674 29.726L63.0143 27.5777C62.7028 27.4555 61.6108 26.7397 60.6856 26.7397C59.2682 26.7397 58.0685 27.4441 57.2263 28.604C55.9964 28.1969 55.4903 29.0197 54.871 29.8401L54.3205 29.9684C54.3622 29.6985 54.4001 29.4305 54.3881 29.1588H52.4415C52.1762 31.651 51.7053 34.1743 51.3368 36.6674L51.2402 37.209H53.3599C53.7136 34.9102 53.907 33.4388 54.0248 32.4421L54.8229 31.9998C54.9429 31.5554 55.3151 31.4061 56.0639 31.4243C55.9661 31.9492 55.9131 32.5022 55.9131 33.0743C55.9131 35.7083 57.3361 37.3481 59.6157 37.3481C60.2033 37.3481 60.7078 37.271 61.489 37.0582L61.8603 34.8025C61.1577 35.1476 60.5826 35.3102 60.0611 35.3102C58.8293 35.3102 58.0839 34.4007 58.0839 32.8985C58.0839 30.7184 59.1917 29.1915 60.7741 29.1915Z" fill="#000066"/>
<path fill-rule="evenodd" clip-rule="evenodd" d="M78.711 27.3103L78.2401 30.1701C77.6618 29.408 77.0395 28.856 76.2179 28.856C75.149 28.856 74.176 29.6665 73.5388 30.86C72.6516 30.6759 71.7347 30.3628 71.7347 30.3628L71.7341 30.3706C71.8047 29.7035 71.8346 29.2976 71.8275 29.1588H69.8812C69.6169 31.651 69.1454 34.1744 68.7771 36.6675L68.6797 37.209H70.7999C71.0861 35.3512 71.3048 33.8067 71.4661 32.5836C72.1908 31.9286 72.5535 31.359 73.2841 31.396C72.96 32.1799 72.7709 33.0823 72.7709 34.0081C72.7709 36.0198 73.788 37.3481 75.3288 37.3481C76.1053 37.3481 76.7012 37.0801 77.2822 36.4596L77.1823 37.2084H79.1869L80.8007 27.3103H78.711ZM76.0615 35.3494C75.3405 35.3494 74.9754 34.8146 74.9754 33.7623C74.9754 32.1799 75.6578 31.0583 76.6185 31.0583C77.3466 31.0583 77.7414 31.6122 77.7414 32.6348C77.7414 34.2308 77.0475 35.3494 76.0615 35.3494Z" fill="#000066"/>
<path fill-rule="evenodd" clip-rule="evenodd" d="M28.4496 36.6214H26.3312L27.5454 29.0126L24.8354 36.6214H23.3912L23.213 29.0567L21.9371 36.6214H19.9541L21.6105 26.7236H24.6572L24.7423 32.8509L26.7981 26.7236H30.0884L28.4496 36.6214Z" fill="white"/>
<path fill-rule="evenodd" clip-rule="evenodd" d="M33.6668 33.0358C33.4448 33.0099 33.3467 33.0028 33.1941 33.0028C31.9932 33.0028 31.3856 33.4142 31.3856 34.2274C31.3856 34.728 31.6823 35.0484 32.1452 35.0484C33.0081 35.0484 33.6301 34.2268 33.6668 33.0358ZM35.2076 36.6216C34.9254 36.6216 33.4525 36.6216 33.4525 36.6216L33.4926 35.7879C32.9572 36.4464 32.2427 36.7613 31.2721 36.7613C30.1239 36.7613 29.3369 35.8638 29.3369 34.5618C29.3369 32.6009 30.7062 31.4593 33.0565 31.4593C33.2968 31.4593 33.6045 31.4811 33.92 31.5219C33.9854 31.2554 34.0027 31.1422 34.0027 30.9982C34.0027 30.4656 33.6338 30.2673 32.6442 30.2673C31.6074 30.255 30.7528 30.5131 30.4012 30.6281C30.4237 30.4949 30.6951 28.8181 30.6951 28.8181C31.7508 28.5085 32.4471 28.3916 33.2308 28.3916C35.05 28.3916 36.0135 29.2092 36.0119 30.7524C36.0153 31.166 35.9471 31.6776 35.8404 32.3474C35.6563 33.5123 35.2616 36.014 35.2076 36.6216Z" fill="white"/>
<path fill-rule="evenodd" clip-rule="evenodd" d="M63.6237 26.9902L63.2768 29.1382C62.5203 28.7579 61.9722 28.604 61.3844 28.604C59.8026 28.604 58.693 30.1328 58.693 32.3132C58.693 33.8154 59.4387 34.723 60.6705 34.723C61.1923 34.723 61.7687 34.5617 62.4697 34.2154L62.0975 36.471C61.3175 36.6835 60.8127 36.7612 60.2255 36.7612C57.9442 36.7612 56.5234 35.1211 56.5234 32.4877C56.5234 28.9491 58.4876 26.4761 61.2953 26.4761C62.2205 26.4761 63.3132 26.8681 63.6237 26.9902Z" fill="white"/>
<path fill-rule="evenodd" clip-rule="evenodd" d="M67.0413 33.0358C66.8205 33.0099 66.7221 33.0028 66.5697 33.0028C65.3694 33.0028 64.7616 33.4142 64.7616 34.2274C64.7616 34.728 65.058 35.0484 65.5206 35.0484C66.3832 35.0484 67.0058 34.2268 67.0413 33.0358ZM68.5833 36.6216C68.3014 36.6216 66.8282 36.6216 66.8282 36.6216L66.868 35.7879C66.3326 36.4464 65.618 36.7613 64.6484 36.7613C63.499 36.7613 62.7129 35.8638 62.7129 34.5618C62.7129 32.6009 64.081 31.4593 66.4319 31.4593C66.6721 31.4593 66.9793 31.4811 67.2945 31.5219C67.3602 31.2554 67.3774 31.1422 67.3774 30.9982C67.3774 30.4656 67.0095 30.2673 66.0192 30.2673C64.9833 30.255 64.1291 30.5131 63.7769 30.6281C63.7991 30.4949 64.0708 28.8181 64.0708 28.8181C65.1264 28.5085 65.8222 28.3916 66.6058 28.3916C68.4251 28.3916 69.3894 29.2092 69.387 30.7524C69.3913 31.166 69.3225 31.6776 69.2158 32.3474C69.0323 33.5123 68.6376 36.014 68.5833 36.6216Z" fill="white"/>
<path fill-rule="evenodd" clip-rule="evenodd" d="M44.6229 36.4993C44.0434 36.6819 43.591 36.7612 43.1013 36.7612C42.0182 36.7612 41.4267 36.1385 41.4267 34.9934C41.4119 34.6363 41.583 33.7019 41.7178 32.8473C41.8396 32.0945 42.6362 27.3538 42.6362 27.3538H44.7423L44.4959 28.5719H45.5771L45.2891 30.5062H44.2044C43.9599 32.0383 43.6111 33.9443 43.6068 34.1971C43.6068 34.6135 43.8291 34.7936 44.3327 34.7936C44.5742 34.7936 44.7608 34.7698 44.9042 34.7174L44.6229 36.4993Z" fill="white"/>
<path fill-rule="evenodd" clip-rule="evenodd" d="M51.0806 36.4356C50.3568 36.6573 49.658 36.7619 48.9191 36.7613C46.5611 36.7597 45.333 35.5277 45.333 33.1703C45.333 30.4178 46.896 28.3916 49.0171 28.3916C50.755 28.3916 51.8637 29.5259 51.8637 31.3063C51.8637 31.8963 51.7866 32.472 51.6046 33.2853H47.4104C47.2682 34.4532 48.0161 34.9405 49.2407 34.9405C49.9942 34.9405 50.6742 34.7844 51.431 34.4328L51.0806 36.4356ZM49.8967 31.6619C49.9081 31.4935 50.12 30.225 48.9166 30.225C48.2462 30.225 47.766 30.7373 47.5708 31.6619H49.8967Z" fill="white"/>
<path fill-rule="evenodd" clip-rule="evenodd" d="M36.4783 31.1166C36.4783 32.1359 36.9723 32.8366 38.0921 33.3649C38.9498 33.7682 39.0827 33.8876 39.0827 34.2534C39.0827 34.7551 38.7043 34.9815 37.8658 34.9815C37.2339 34.9815 36.6457 34.8834 35.9673 34.6648C35.9673 34.6648 35.6897 36.4387 35.6768 36.5222C36.1579 36.6277 36.5875 36.7239 37.8809 36.7613C40.1168 36.7613 41.1493 35.9104 41.1493 34.0708C41.1493 32.9642 40.7169 32.3154 39.6557 31.8281C38.7675 31.4195 38.6655 31.3291 38.6655 30.9529C38.6655 30.5177 39.0176 30.2938 39.7026 30.2938C40.1177 30.2938 40.6861 30.3401 41.2246 30.4159L41.5262 28.5492C40.9775 28.4625 40.1461 28.3916 39.6616 28.3916C37.2912 28.3916 36.4712 29.6295 36.4783 31.1166Z" fill="white"/>
<path fill-rule="evenodd" clip-rule="evenodd" d="M79.7961 36.6214H77.7922L77.8915 35.8723C77.3101 36.4931 76.7146 36.7611 75.9381 36.7611C74.3985 36.7611 73.3799 35.4344 73.3799 33.4205C73.3799 30.743 74.9592 28.4861 76.8272 28.4861C77.6487 28.4861 78.2708 28.8217 78.8503 29.584L79.3203 26.7236H81.4097L79.7961 36.6214ZM76.6705 34.7614C77.6577 34.7614 78.3504 33.6435 78.3504 32.0491C78.3504 31.0261 77.9559 30.4704 77.2278 30.4704C76.2668 30.4704 75.5846 31.5923 75.5846 33.1754C75.5846 34.2288 75.9501 34.7614 76.6705 34.7614Z" fill="white"/>
<path fill-rule="evenodd" clip-rule="evenodd" d="M70.4913 28.572C70.2263 31.0636 69.7551 33.5869 69.3866 36.0803L69.29 36.6216H71.4091C72.1671 31.6989 72.3494 30.7382 73.5386 30.8582C73.7276 29.8506 74.0801 28.9683 74.3425 28.5236C73.4553 28.3386 72.9597 28.84 72.3102 29.793C72.362 29.3806 72.4555 28.9806 72.4379 28.572H70.4913Z" fill="white"/>
<path fill-rule="evenodd" clip-rule="evenodd" d="M53.0518 28.572C52.7856 31.0636 52.3138 33.5869 51.9458 36.0803L51.8496 36.6216H53.9692C54.7276 31.6989 54.9092 30.7382 56.0966 30.8582C56.2869 29.8506 56.64 28.9683 56.9018 28.5236C56.0155 28.3386 55.5189 28.84 54.8707 29.793C54.9219 29.3806 55.0159 28.9806 54.9974 28.572H53.0518Z" fill="white"/>
</g>
<rect x="1" y="1" width="100" height="60" rx="4" stroke="#FBBC05" stroke-miterlimit="0" stroke-linejoin="bevel"/>
<defs>
<clipPath id="clip0_1_542">
<rect x="1" y="1" width="100" height="60" rx="4" fill="white"/>
</clipPath>
</defs>
</svg>
