<svg width="101" height="60" viewBox="0 0 101 60" fill="none" xmlns="http://www.w3.org/2000/svg">
<g clip-path="url(#clip0_1_474)">
<rect width="100" height="60" rx="4" transform="matrix(1 0 0 -1 0.1875 59.8472)" fill="#F2F1F1"/>
<path fill-rule="evenodd" clip-rule="evenodd" d="M61.5314 26.2495C61.2628 28.0134 59.9157 28.0134 58.6124 28.0134H57.8711L58.3913 24.7199C58.4223 24.521 58.594 24.3746 58.7955 24.3746H59.1358C60.0228 24.3746 60.8604 24.3746 61.2926 24.8796C61.5511 25.1818 61.629 25.6304 61.5314 26.2495ZM60.9639 21.6471H56.0497C55.7132 21.6471 55.4275 21.8916 55.3749 22.2237L53.3879 34.8248C53.3486 35.0732 53.5412 35.2981 53.7922 35.2981H56.3139C56.549 35.2981 56.7492 35.127 56.7859 34.8951L57.3498 31.3222C57.4018 30.9902 57.6882 30.7456 58.024 30.7456H59.5789C62.816 30.7456 64.6845 29.1794 65.1723 26.0741C65.3922 24.7169 65.1812 23.6499 64.5457 22.9029C63.8468 22.0817 62.6081 21.6471 60.9639 21.6471Z" fill="#0079C1"/>
<path fill-rule="evenodd" clip-rule="evenodd" d="M26.4809 26.2495C26.2122 28.0135 24.8652 28.0135 23.5619 28.0135H22.8206L23.3407 24.72C23.3718 24.5211 23.5435 24.3747 23.745 24.3747H24.0852C24.9723 24.3747 25.8099 24.3747 26.242 24.8797C26.5005 25.1819 26.5785 25.6305 26.4809 26.2495ZM25.9134 21.6471H20.9992C20.6627 21.6471 20.377 21.8917 20.3244 22.2237L18.3374 34.8249C18.2981 35.0732 18.4901 35.2982 18.7416 35.2982H21.0885C21.4243 35.2982 21.7101 35.0536 21.7627 34.7222L22.2993 31.3223C22.3513 30.9903 22.6377 30.7457 22.9735 30.7457H24.5283C27.7654 30.7457 29.6339 29.1794 30.1218 26.0741C30.3417 24.717 30.1307 23.65 29.4952 22.9029C28.7963 22.0818 27.5576 21.6471 25.9134 21.6471Z" fill="#00457C"/>
<path fill-rule="evenodd" clip-rule="evenodd" d="M37.3219 30.7734C37.0944 32.1179 36.0274 33.0208 34.6658 33.0208C33.9834 33.0208 33.4366 32.801 33.0856 32.3853C32.7377 31.9735 32.6066 31.3861 32.7168 30.7329C32.9285 29.3998 34.0132 28.4684 35.3539 28.4684C36.0224 28.4684 36.5647 28.6901 36.9227 29.1096C37.2832 29.5322 37.4252 30.1227 37.3219 30.7734ZM40.6014 26.1931H38.2482C38.0467 26.1931 37.875 26.3395 37.8433 26.5391L37.7401 27.1967L37.576 26.9585C37.0659 26.2191 35.9299 25.9713 34.7957 25.9713C32.196 25.9713 29.9752 27.9419 29.5431 30.705C29.3182 32.0837 29.6375 33.401 30.4194 34.3204C31.1373 35.165 32.1618 35.5166 33.3828 35.5166C35.4787 35.5166 36.6408 34.1708 36.6408 34.1708L36.5356 34.8247C36.4963 35.0731 36.6883 35.298 36.9405 35.298H39.0592C39.3957 35.298 39.6814 35.0541 39.734 34.7221L41.0063 26.6664C41.0456 26.418 40.853 26.1931 40.6014 26.1931Z" fill="#00457C"/>
<path fill-rule="evenodd" clip-rule="evenodd" d="M72.3727 30.7734C72.1452 32.1179 71.0782 33.0208 69.7166 33.0208C69.0342 33.0208 68.4874 32.801 68.1364 32.3853C67.7879 31.9735 67.6574 31.3861 67.7676 30.7329C67.9792 29.3998 69.064 28.4684 70.4047 28.4684C71.0731 28.4684 71.6155 28.6901 71.9735 29.1096C72.334 29.5322 72.4759 30.1227 72.3727 30.7734ZM75.6522 26.1931H73.299C73.0975 26.1931 72.9258 26.3395 72.8941 26.5391L72.7908 27.1967L72.6261 26.9585C72.1167 26.2191 70.9806 25.9713 69.8465 25.9713C67.2468 25.9713 65.026 27.9419 64.5939 30.705C64.369 32.0837 64.6883 33.401 65.4702 34.3204C66.188 35.165 67.2126 35.5166 68.4335 35.5166C70.5295 35.5166 71.6915 34.1708 71.6915 34.1708L71.5864 34.8247C71.5471 35.0731 71.7391 35.298 71.9912 35.298H74.11C74.4465 35.298 74.7322 35.0541 74.7848 34.7221L76.0571 26.6664C76.0964 26.418 75.9037 26.1931 75.6522 26.1931Z" fill="#0079C1"/>
<path fill-rule="evenodd" clip-rule="evenodd" d="M53.1345 26.1933H50.7693C50.5431 26.1933 50.3314 26.3054 50.2047 26.493L46.9417 31.2982L45.5591 26.6805C45.4723 26.3916 45.2062 26.1933 44.9046 26.1933H42.5799C42.2992 26.1933 42.1015 26.4695 42.1922 26.735L44.7963 34.3801L42.3468 37.8364C42.1548 38.1076 42.3487 38.4827 42.6813 38.4827H45.044C45.2677 38.4827 45.4774 38.3731 45.6054 38.1893L53.471 26.8364C53.6591 26.5646 53.4653 26.1933 53.1345 26.1933Z" fill="#00457C"/>
<path fill-rule="evenodd" clip-rule="evenodd" d="M78.4262 21.9934L76.4094 34.8252C76.3701 35.0735 76.5621 35.2985 76.8137 35.2985H78.8425C79.1783 35.2985 79.4647 35.0539 79.5166 34.7219L81.5055 22.1207C81.5448 21.8724 81.3528 21.6474 81.1006 21.6474H78.8311C78.6289 21.6474 78.4572 21.7938 78.4262 21.9934Z" fill="#0079C1"/>
</g>
<defs>
<clipPath id="clip0_1_474">
<rect width="101" height="60" rx="4" transform="matrix(1 0 0 -1 0 60)" fill="white"/>
</clipPath>
</defs>
</svg>
