<svg width="100" height="60" viewBox="0 0 100 60" fill="none" xmlns="http://www.w3.org/2000/svg">
<g clip-path="url(#clip0_1_581)">
<rect width="100" height="60" rx="4" fill="#F2F1F1"/>
<path fill-rule="evenodd" clip-rule="evenodd" d="M41.49 39.5467L44.5647 20.4727H49.4796L46.4051 39.5467H41.49Z" fill="#26337A"/>
<path fill-rule="evenodd" clip-rule="evenodd" d="M64.2328 20.9408C63.261 20.558 61.7326 20.1406 59.8287 20.1406C54.9695 20.1406 51.549 22.729 51.5206 26.4355C51.4897 29.1772 53.9614 30.7062 55.8249 31.6175C57.7401 32.5515 58.3835 33.1493 58.3759 33.9845C58.3627 35.262 56.8473 35.8473 55.4342 35.8473C53.4664 35.8473 52.421 35.5592 50.8046 34.847L50.1724 34.5434L49.4851 38.813C50.6312 39.3442 52.7558 39.8054 54.9608 39.8296C60.125 39.8296 63.4805 37.2724 63.5199 33.3144C63.5376 31.1403 62.2279 29.4924 59.3916 28.1318C57.674 27.2473 56.6199 26.6614 56.6319 25.7662C56.6331 24.9735 57.5225 24.1248 59.4475 24.1248C61.0551 24.0989 62.2189 24.4701 63.1258 24.8577L63.5671 25.0758L64.2328 20.9408Z" fill="#26337A"/>
<path fill-rule="evenodd" clip-rule="evenodd" d="M70.7773 32.7842C71.1846 31.6879 72.7352 27.4527 72.7352 27.4527C72.7065 27.5031 73.1403 26.3479 73.3885 25.633L73.7202 27.278C73.7202 27.278 74.6633 31.8307 74.8576 32.7842C74.0924 32.7842 71.737 32.7842 70.7773 32.7842ZM76.8408 20.4921H73.0425C71.8643 20.4921 70.9825 20.8296 70.4664 22.0733L63.1675 39.5535H68.3297C68.3297 39.5535 69.1719 37.202 69.3631 36.6859C69.9261 36.6859 74.9422 36.6958 75.6581 36.6958C75.8054 37.3614 76.2566 39.5535 76.2566 39.5535H80.8184L76.8408 20.4921Z" fill="#26337A"/>
<path fill-rule="evenodd" clip-rule="evenodd" d="M37.3666 20.4887L32.5561 33.4927L32.0408 30.8493C31.1444 27.8036 28.3538 24.5025 25.2324 22.8484L29.6334 39.5301L34.835 39.527L42.575 20.4887H37.3666Z" fill="#26337A"/>
<path fill-rule="evenodd" clip-rule="evenodd" d="M28.0906 20.4758H20.1648L20.0996 20.871C26.2668 22.451 30.3473 26.2648 32.041 30.8493L30.3187 22.0851C30.0215 20.8763 29.158 20.518 28.0906 20.4758Z" fill="#EC982D"/>
</g>
<defs>
<clipPath id="clip0_1_581">
<rect width="100" height="60" rx="4" fill="white"/>
</clipPath>
</defs>
</svg>
