<svg xmlns="http://www.w3.org/2000/svg" width="16" height="16" viewBox="0 0 16 16" fill="none">
  <path d="M12.5198 3.48007C11.5485 2.50585 10.2892 1.87051 8.92855 1.66822C7.56786 1.46592 6.1782 1.70744 4.96555 2.35698C3.7529 3.00651 2.78182 4.02948 2.19623 5.27427C1.61064 6.51905 1.44171 7.9194 1.7145 9.26773C1.98728 10.6161 2.68725 11.8406 3.71065 12.7599C4.73406 13.6791 6.02642 14.2442 7.39619 14.3713C8.76596 14.4984 10.1402 14.1807 11.3153 13.4654C12.4903 12.7501 13.4036 11.6752 13.9198 10.4001H12.1438C11.6493 11.2734 10.8935 11.9698 9.98271 12.3913C9.07189 12.8129 8.05186 12.9383 7.06606 12.7499C6.08026 12.5616 5.17829 12.069 4.487 11.3414C3.7957 10.6138 3.34986 9.68787 3.21217 8.69373C3.07448 7.69959 3.25186 6.68731 3.71938 5.79922C4.1869 4.91114 4.92103 4.19194 5.81853 3.74276C6.71603 3.29359 7.73175 3.13703 8.72285 3.29512C9.71394 3.4532 10.6306 3.91797 11.3438 4.62407L8.79979 7.20007H14.3998V1.60007L12.5198 3.48007Z" fill="black"/>
</svg>