<svg xmlns="http://www.w3.org/2000/svg" width="16" height="16" viewBox="0 0 16 16" fill="none">
<path d="M8.6665 2C7.07521 2 5.54908 2.63214 4.42386 3.75736C3.29865 4.88258 2.6665 6.4087 2.6665 8H0.666504L3.25984 10.5933L3.3065 10.6867L5.99984 8H3.99984C3.99984 5.42 6.0865 3.33333 8.6665 3.33333C11.2465 3.33333 13.3332 5.42 13.3332 8C13.3332 10.58 11.2465 12.6667 8.6665 12.6667C7.37984 12.6667 6.21317 12.14 5.37317 11.2933L4.4265 12.24C4.98211 12.7987 5.64283 13.2418 6.37055 13.5439C7.09826 13.846 7.87858 14.001 8.6665 14C10.2578 14 11.7839 13.3679 12.9091 12.2426C14.0344 11.1174 14.6665 9.5913 14.6665 8C14.6665 6.4087 14.0344 4.88258 12.9091 3.75736C11.7839 2.63214 10.2578 2 8.6665 2ZM7.99984 5.33333V8.66667L10.8332 10.3467L11.3465 9.48667L8.99984 8.09333V5.33333H7.99984Z" fill="#0038FF"/>
</svg>