<svg xmlns="http://www.w3.org/2000/svg" width="16" height="16" viewBox="0 0 16 16" fill="none">
<path d="M14.1719 6.22443V11.8636C14.1719 12.1761 14.0582 12.4437 13.8309 12.6662C13.6036 12.8887 13.3304 13 13.0112 13H2.33259C2.01339 13 1.74014 12.8887 1.51283 12.6662C1.28553 12.4437 1.17188 12.1761 1.17188 11.8636V6.22443C1.38467 6.45644 1.62891 6.66241 1.90458 6.84233C3.65532 8.0071 4.85714 8.82386 5.51004 9.29261C5.78571 9.49148 6.00939 9.64654 6.18108 9.75781C6.35277 9.86908 6.58129 9.98272 6.86663 10.0987C7.15197 10.2147 7.41797 10.2727 7.66462 10.2727H7.67188H7.67913C7.92578 10.2727 8.19178 10.2147 8.47712 10.0987C8.76246 9.98272 8.99098 9.86908 9.16267 9.75781C9.33436 9.64654 9.55804 9.49148 9.8337 9.29261C10.6559 8.71023 11.8601 7.89347 13.4464 6.84233C13.7221 6.65767 13.9639 6.4517 14.1719 6.22443ZM14.1719 4.13636C14.1719 4.51042 14.0534 4.8679 13.8164 5.20881C13.5794 5.54972 13.2844 5.84091 12.9314 6.08239C11.1129 7.31818 9.98121 8.08759 9.53627 8.39062C9.48791 8.42377 9.38514 8.49598 9.22796 8.60724C9.07078 8.71851 8.9402 8.80848 8.83622 8.87713C8.73224 8.94579 8.60649 9.02273 8.45898 9.10795C8.31148 9.19318 8.17243 9.2571 8.04185 9.29972C7.91127 9.34233 7.79036 9.36364 7.67913 9.36364H7.67188H7.66462C7.55339 9.36364 7.43248 9.34233 7.3019 9.29972C7.17132 9.2571 7.03227 9.19318 6.88477 9.10795C6.73726 9.02273 6.61151 8.94579 6.50753 8.87713C6.40355 8.80848 6.27297 8.71851 6.11579 8.60724C5.95861 8.49598 5.85584 8.42377 5.80748 8.39062C5.36737 8.08759 4.73382 7.65554 3.90681 7.09446C3.0798 6.53338 2.58408 6.19602 2.41964 6.08239C2.11979 5.88352 1.83687 5.61009 1.57087 5.26207C1.30487 4.91406 1.17188 4.59091 1.17188 4.29261C1.17188 3.9233 1.27223 3.61553 1.47294 3.36932C1.67364 3.12311 1.96019 3 2.33259 3H13.0112C13.3255 3 13.5976 3.11127 13.8273 3.33381C14.057 3.55634 14.1719 3.82386 14.1719 4.13636Z" fill="#0038FF"/>
</svg>