<svg xmlns="http://www.w3.org/2000/svg" width="16" height="16" viewBox="0 0 16 16" fill="none">
<path d="M5.25 6.75C5.25 6.55109 5.32902 6.36032 5.46967 6.21967C5.61032 6.07902 5.80109 6 6 6H10C10.1989 6 10.3897 6.07902 10.5303 6.21967C10.671 6.36032 10.75 6.55109 10.75 6.75C10.75 6.94891 10.671 7.13968 10.5303 7.28033C10.3897 7.42098 10.1989 7.5 10 7.5H6C5.80109 7.5 5.61032 7.42098 5.46967 7.28033C5.32902 7.13968 5.25 6.94891 5.25 6.75ZM7.25 8.5H6C5.80109 8.5 5.61032 8.57902 5.46967 8.71967C5.32902 8.86032 5.25 9.05109 5.25 9.25C5.25 9.44891 5.32902 9.63968 5.46967 9.78033C5.61032 9.92098 5.80109 10 6 10H7.25C7.44891 10 7.63968 9.92098 7.78033 9.78033C7.92098 9.63968 8 9.44891 8 9.25C8 9.05109 7.92098 8.86032 7.78033 8.71967C7.63968 8.57902 7.44891 8.5 7.25 8.5ZM14.25 3V9.79313C14.2504 9.95734 14.2183 10.12 14.1554 10.2717C14.0926 10.4234 14.0002 10.5611 13.8837 10.6769L10.6769 13.8837C10.5611 14.0002 10.4234 14.0926 10.2717 14.1554C10.12 14.2183 9.95734 14.2504 9.79313 14.25H3C2.66848 14.25 2.35054 14.1183 2.11612 13.8839C1.8817 13.6495 1.75 13.3315 1.75 13V3C1.75 2.66848 1.8817 2.35054 2.11612 2.11612C2.35054 1.8817 2.66848 1.75 3 1.75H13C13.3315 1.75 13.6495 1.8817 13.8839 2.11612C14.1183 2.35054 14.25 2.66848 14.25 3ZM3.25 12.75H9V9.75C9 9.55109 9.07902 9.36032 9.21967 9.21967C9.36032 9.07902 9.55109 9 9.75 9H12.75V3.25H3.25V12.75ZM11.9375 10.5H10.5V11.9375L11.9375 10.5Z" fill="#0038FF"/>
</svg>