<svg xmlns="http://www.w3.org/2000/svg" width="16" height="16" viewBox="0 0 16 16" fill="none">
<path d="M11.2656 4.99203C11.2656 4.99203 11.388 5.14566 11.6328 5.45293C11.8776 5.7602 12 6.27578 12 6.99968C12 7.72359 11.7552 8.3928 11.2656 9.00734C10.776 9.62187 10.1081 10.1075 9.26172 10.4643C8.41536 10.821 7.49479 10.9994 6.5 10.9994C6.05208 10.9994 5.59375 10.9577 5.125 10.8744C4.47917 11.3327 3.75521 11.666 2.95312 11.8743C2.76562 11.9212 2.54167 11.9628 2.28125 11.9993H2.25781C2.20052 11.9993 2.14714 11.9785 2.09766 11.9368C2.04818 11.8951 2.01823 11.8404 2.00781 11.7727C2.0026 11.7571 2 11.7402 2 11.722C2 11.7037 2.0013 11.6868 2.00391 11.6712C2.00651 11.6556 2.01172 11.6399 2.01953 11.6243C2.02734 11.6087 2.03385 11.5957 2.03906 11.5853C2.04427 11.5748 2.05339 11.5605 2.06641 11.5423C2.07943 11.5241 2.08984 11.511 2.09766 11.5032C2.10547 11.4954 2.11719 11.4824 2.13281 11.4642C2.14844 11.4459 2.15885 11.4342 2.16406 11.429C2.1901 11.3978 2.25 11.3327 2.34375 11.2337C2.4375 11.1348 2.50521 11.058 2.54688 11.0033C2.58854 10.9486 2.64714 10.8731 2.72266 10.7767C2.79818 10.6804 2.86328 10.5801 2.91797 10.476C2.97266 10.3718 3.02604 10.2572 3.07812 10.1322C2.43229 9.75728 1.92448 9.29638 1.55469 8.74955C1.1849 8.20271 1 7.61943 1 6.99968C1 6.27578 1.24479 5.60657 1.73438 4.99203C2.22396 4.3775 2.89193 3.89186 3.73828 3.53511C4.58464 3.17837 5.50521 3 6.5 3C7.49479 3 8.41536 3.17837 9.26172 3.53511C10.1081 3.89186 10.776 4.3775 11.2656 4.99203ZM15 8.99953C15 9.62448 14.8151 10.2091 14.4453 10.7533C14.0755 11.2975 13.5677 11.7571 12.9219 12.1321C12.974 12.2571 13.0273 12.3717 13.082 12.4758C13.1367 12.58 13.2018 12.6802 13.2773 12.7766C13.3529 12.8729 13.4115 12.9484 13.4531 13.0031C13.4948 13.0578 13.5625 13.1346 13.6562 13.2336C13.75 13.3325 13.8099 13.3976 13.8359 13.4289C13.8411 13.4341 13.8516 13.4458 13.8672 13.464C13.8828 13.4822 13.8945 13.4953 13.9023 13.5031C13.9102 13.5109 13.9206 13.5239 13.9336 13.5421C13.9466 13.5604 13.9557 13.5747 13.9609 13.5851C13.9661 13.5955 13.9727 13.6085 13.9805 13.6242C13.9883 13.6398 13.9935 13.6554 13.9961 13.671C13.9987 13.6867 14 13.7036 14 13.7218C14 13.74 13.9974 13.757 13.9922 13.7726C13.9766 13.8455 13.9427 13.9028 13.8906 13.9444C13.8385 13.9861 13.7812 14.0043 13.7188 13.9991C13.4583 13.9627 13.2344 13.921 13.0469 13.8741C12.2448 13.6658 11.5208 13.3325 10.875 12.8742C10.4062 12.9575 9.94792 12.9992 9.5 12.9992C8.08854 12.9992 6.85938 12.6555 5.8125 11.968C6.11458 11.9889 6.34375 11.9993 6.5 11.9993C7.33854 11.9993 8.14323 11.8821 8.91406 11.6478C9.6849 11.4134 10.3724 11.0775 10.9766 10.64C11.6276 10.1609 12.1276 9.60885 12.4766 8.9839C12.8255 8.35895 13 7.69755 13 6.99968C13 6.59867 12.9401 6.20287 12.8203 5.81228C13.4922 6.18204 14.0234 6.64555 14.4141 7.20279C14.8047 7.76004 15 8.35895 15 8.99953Z" fill="#0038FF"/>
</svg>