<svg xmlns="http://www.w3.org/2000/svg" width="16" height="16" viewBox="0 0 16 16" fill="none">
<path d="M11.9998 12.3332C12.5532 12.3332 12.9998 11.8865 12.9998 11.3332C12.9998 10.7798 12.5532 10.3332 11.9998 10.3332C11.4465 10.3332 10.9998 10.7798 10.9998 11.3332C10.9998 11.8865 11.4465 12.3332 11.9998 12.3332ZM12.9998 6.33317H11.3332V7.99984H14.3065L12.9998 6.33317ZM3.99984 12.3332C4.55317 12.3332 4.99984 11.8865 4.99984 11.3332C4.99984 10.7798 4.55317 10.3332 3.99984 10.3332C3.4465 10.3332 2.99984 10.7798 2.99984 11.3332C2.99984 11.8865 3.4465 12.3332 3.99984 12.3332ZM13.3332 5.33317L15.3332 7.99984V11.3332H13.9998C13.9998 12.4398 13.1065 13.3332 11.9998 13.3332C10.8932 13.3332 9.99984 12.4398 9.99984 11.3332H5.99984C5.99984 12.4398 5.1065 13.3332 3.99984 13.3332C2.89317 13.3332 1.99984 12.4398 1.99984 11.3332H0.666504V3.99984C0.666504 3.25984 1.25984 2.6665 1.99984 2.6665H11.3332V5.33317H13.3332ZM1.99984 3.99984V9.99984H2.5065C2.87317 9.59317 3.4065 9.33317 3.99984 9.33317C4.59317 9.33317 5.1265 9.59317 5.49317 9.99984H9.99984V3.99984H1.99984ZM6.6665 4.6665L8.99984 6.99984L6.6665 9.33317V7.6665H3.33317V6.33317H6.6665V4.6665Z" fill="black"/>
</svg>