<svg xmlns="http://www.w3.org/2000/svg" width="16" height="16" viewBox="0 0 16 16" fill="none">
<path d="M4.8982 5.8001L5.531 1.6001H2.2398L0.864605 5.2001C0.822205 5.3281 0.799805 5.4609 0.799805 5.6001C0.799805 6.4833 1.7198 7.2001 2.8566 7.2001C3.9046 7.2001 4.771 6.5889 4.8982 5.8001ZM7.9998 7.2001C9.1358 7.2001 10.0566 6.4833 10.0566 5.6001C10.0566 5.5673 10.0542 5.5345 10.0526 5.5033L9.6454 1.6001H6.3542L5.9462 5.5001C5.94431 5.5334 5.94325 5.56674 5.943 5.6001C5.943 6.4833 6.8638 7.2001 7.9998 7.2001ZM11.9998 8.0369V11.2001H3.9998V8.0417C3.6494 8.1681 3.2638 8.2401 2.8566 8.2401C2.7006 8.2401 2.5494 8.2217 2.3998 8.2009V13.2801C2.3998 13.8961 2.903 14.4001 3.5182 14.4001H12.4798C13.0958 14.4001 13.5998 13.8953 13.5998 13.2801V8.2017C13.4486 8.22492 13.296 8.23801 13.143 8.2409C12.7529 8.2405 12.3659 8.17145 11.9998 8.0369ZM15.1358 5.2001L13.759 1.6001H10.4686L11.1006 5.7937C11.2238 6.5857 12.0902 7.2001 13.143 7.2001C14.279 7.2001 15.1998 6.4833 15.1998 5.6001C15.1998 5.4609 15.1774 5.3281 15.1358 5.2001Z" fill="#0038FF"/>
</svg>